<mxfile host="app.diagrams.net" agent="Mozilla/5.0 (Macintosh; Intel Mac OS X 10_15_7) AppleWebKit/537.36 (KHTML, like Gecko) Chrome/134.0.0.0 Safari/537.36" version="26.2.9">
  <diagram name="第 1 页" id="lnYWhFLsl3aKDjEL3xjz">
    <mxGraphModel dx="895" dy="-549" grid="1" gridSize="10" guides="1" tooltips="1" connect="1" arrows="1" fold="1" page="1" pageScale="1" pageWidth="827" pageHeight="1169" math="0" shadow="0">
      <root>
        <mxCell id="0" />
        <mxCell id="1" parent="0" />
        <mxCell id="7g0lY63vqaFutVTRd0vr-1" value="" style="shape=image;verticalLabelPosition=bottom;labelBackgroundColor=default;verticalAlign=top;aspect=fixed;imageAspect=0;image=data:image/png,iVBORw0KGgoAAAANSUhEUgAABIUAAAM0CAYAAAAlfZLzAAAKsmlDQ1BJQ0MgUHJvZmlsZQAASImVlwdUk9kSgO//pzdaAgJSQg1FegsgJYQWQOnVRkgCBEKMgYAidhZXcC2oiIC6YEUUXAsgawEsWFgE7HVBFgFlXSyICsr7gUNw95333nmTM5nvzD93Zu49/82ZAEChcyUSEawEQJo4Qxrm50WPiY2j4wYADIiAAMjAnMtLl7BCQoIAItP27/LxPoAm7B2LiVz//vy/ijJfkM4DAApBOIGfzktD+AyiYzyJNAMA1EnEb5CVIZnguwjTpEiDCPdPcNIUj01wwiSjlSZjIsLYCBsCgCdzudIkAMjWiJ+eyUtC8pAnalmL+UIxwmsRdk9LW8pHuBFhEyRGgvBEfmbCd3mS/pYzQZ6Ty02S89ReJgXvLUyXiLgr/s/j+N+SJpJN12AgSk6W+ochVh05sz9SlwbKWZwwP3iahfzJ+ElOlvlHTjMvnR03zemicM4087negfI8ovlB05wo9JXHCDM4EdMsSPcJn2bp0jB53UQpmzXNXOlMD7LUSLk/WcCR589Ojoie5kxh1Hx5b6nhgTMxbLlfKguT70Ug9vOaqesrP4e09O/2LuTI12YkR/jLz4E7079AzJrJmR4j740v8PaZiYmUx0syvOS1JKIQebxA5Cf3p2eGy9dmIC/nzNoQ+RmmcANCphl4Ax8QhHzoIATYAntgA5yBP2BnCJZnTGyGvVSyQipMSs6gs5AbJ6BzxDzLOXRba1sHACbu79Tr8f7h5L2E1PAzvoQsAOxCEWfRjE/0HoAmGgAqNjM+BnKPSaUAXErkyaSZUz70xBcG+V1QBDSgAXSAATABFkh/jsAVeCIdB4BgEAFiwWLAA8kgDUhBFsgB60AeKADbwC5QAvaDA+AoOAFOgTpwHjSBa+AWaAf3wBPQBXrBazAEPoJRCIJwEAWiQhqQLmQEmUO2EBNyh3ygICgMioXioSRIDMmgHGgDVAAVQiVQOVQJ/QKdg5qgG1AH9Ajqhgagd9AXGAWTYRqsDRvDVjATZsGBcAS8CE6Cl8HZcC68BS6GK+DjcC3cBN+C78Fd8Gt4GAVQJJQaSg9lgWKi2KhgVBwqESVFrUblo4pQFahqVAOqBXUH1YUaRH1GY9FUNB1tgXZF+6Mj0Tz0MvRq9GZ0CfoouhZ9BX0H3Y0eQn/DUDBaGHOMC4aDicEkYbIweZgizGHMWcxVzD1ML+YjFotVwzKwTlh/bCw2BbsSuxm7F1uDbcR2YHuwwzgcTgNnjnPDBeO4uAxcHm4P7jjuEq4T14v7hCfhdfG2eF98HF6MX48vwh/DX8R34vvwowQlghHBhRBM4BNWELYSDhIaCLcJvYRRojKRQXQjRhBTiOuIxcRq4lXiU+J7EomkT3ImhZKEpLWkYtJJ0nVSN+kzWYVsRmaTF5Jl5C3kI+RG8iPyewqFYkzxpMRRMihbKJWUy5TnlE8KVAVLBY4CX2GNQqlCrUKnwhtFgqKRIktxsWK2YpHiacXbioNKBCVjJbYSV2m1UqnSOaUHSsPKVGUb5WDlNOXNyseUbyj3q+BUjFV8VPgquSoHVC6r9FBRVAMqm8qjbqAepF6l9tKwNAaNQ0uhFdBO0NpoQ6oqqvaqUarLVUtVL6h2qaHUjNU4aiK1rWqn1O6rfZmlPYs1SzBr06zqWZ2zRtRnq3uqC9Tz1WvU76l/0aBr+GikamzXqNN4ponWNNMM1czS3Kd5VXNwNm2262ze7PzZp2Y/1oK1zLTCtFZqHdBq1RrW1tH205Zo79G+rD2oo6bjqZOis1Pnos6ALlXXXVeou1P3ku4ruiqdRRfRi+lX6EN6Wnr+ejK9cr02vVF9hn6k/nr9Gv1nBkQDpkGiwU6DZoMhQ13DeYY5hlWGj40IRkyjZKPdRi1GI8YM42jjjcZ1xv0MdQaHkc2oYjw1oZh4mCwzqTC5a4o1ZZqmmu41bTeDzRzMks1KzW6bw+aO5kLzveYdczBznOeI51TMeWBBtmBZZFpUWXRbqlkGWa63rLN8Y2VoFWe13arF6pu1g7XI+qD1ExsVmwCb9TYNNu9szWx5tqW2d+0odr52a+zq7d7am9sL7PfZP3SgOsxz2OjQ7PDV0clR6ljtOOBk6BTvVOb0gEljhjA3M687Y5y9nNc4n3f+7OLokuFyyuUvVwvXVNdjrv1zGXMFcw/O7XHTd+O6lbt1udPd491/du/y0PPgelR4vPA08OR7HvbsY5myUljHWW+8rL2kXme9Rtgu7FXsRm+Ut593vnebj4pPpE+Jz3Nffd8k3yrfIT8Hv5V+jf4Y/0D/7f4PONocHqeSMxTgFLAq4EogOTA8sCTwRZBZkDSoYR48L2DejnlP5xvNF8+vCwbBnOAdwc9CGCHLQn4NxYaGhJaGvgyzCcsJawmnhi8JPxb+McIrYmvEk0iTSFlkc5Ri1MKoyqiRaO/owuiuGKuYVTG3YjVjhbH1cbi4qLjDccMLfBbsWtC70GFh3sL7ixiLli+6sVhzsWjxhSWKS7hLTsdj4qPjj8WPcYO5FdzhBE5CWcIQj83bzXvN9+Tv5A8I3ASFgr5Et8TCxP4kt6QdSQPJHslFyYNCtrBE+DbFP2V/ykhqcOqR1HFRtKgmDZ8Wn3ZOrCJOFV9ZqrN0+dIOibkkT9K1zGXZrmVD0kDp4XQofVF6fQYNGZRaZSayH2Tdme6ZpZmfsqKyTi9XXi5e3rrCbMWmFX3ZvtmHVqJX8lY25+jlrMvpXsVaVb4aWp2wunmNwZrcNb1r/dYeXUdcl7rut/XW6wvXf9gQvaEhVzt3bW7PD34/VOUp5EnzHmx03bj/R/SPwh/bNtlt2rPpWz4//2aBdUFRwdhm3uabP9n8VPzT+JbELW1bHbfu24bdJt52f7vH9qOFyoXZhT075u2o3Unfmb/zw64lu24U2Rft303cLdvdVRxUXL/HcM+2PWMlySX3Sr1Ka8q0yjaVjezl7+3c57mver/2/oL9X34W/vyw3K+8tsK4ougA9kDmgZcHow62HGIeqjysebjg8Ncj4iNdR8OOXql0qqw8pnVsaxVcJasaOL7wePsJ7xP11RbV5TVqNQUnwUnZyVe/xP9y/1TgqebTzNPVZ4zOlJ2lns2vhWpX1A7VJdd11cfWd5wLONfc4Npw9lfLX4+c1ztfekH1wtaLxIu5F8cvZV8abpQ0DjYlNfU0L2l+cjnm8t0roVfargZevX7N99rlFlbLpetu18/fcLlx7ibzZt0tx1u1rQ6tZ39z+O1sm2Nb7W2n2/Xtzu0NHXM7LnZ6dDbd8b5z7S7n7q178+913I+8//DBwgddD/kP+x+JHr19nPl49Mnap5in+c+UnhU913pe8bvp7zVdjl0Xur27W1+Ev3jSw+t5/Uf6H2O9uS8pL4v6dPsq+237zw/4DrS/WvCq97Xk9ehg3p/Kf5a9MXlz5i/Pv1qHYoZ630rfjr/b/F7j/ZEP9h+ah0OGn39M+zg6kv9J49PRz8zPLV+iv/SNZo3hxoq/mn5t+Bb47el42vi4hCvlTo4CKEThxEQA3h0BgBILALUdAOKCqfl6UqCp/wSTBP4TT83gk+IIwCHETIx/YZ4AlCHKaERmEERDEI7wBLCdnVynZ+HJuX1ClI4DUK5lYx/o9ehQ51rwD5ma6b/r+58WyLP+zf4LHI4KWeFP9d0AAAA4ZVhJZk1NACoAAAAIAAGHaQAEAAAAAQAAABoAAAAAAAKgAgAEAAAAAQAABIWgAwAEAAAAAQAAAzQAAAAA95PBvQAAQABJREFUeAHsnQegJEWZx+ulfbtL2GXJOWcWJaOSFFBBECPmfCZOMN+d8fA8787DCGYxK6ZTDNwRJEhQyUiUJalIEnaXzfvyu/rXzNevprq6p2s6zLyZf8Fsd1VXfV/Vr76qmf5edXXftA6KgQRIgARIgARIgARIgARIgARIgARIgARIoKcI9PdUa9lYEiABEiABEiABEiABEiABEiABEiABEiABQ4BOIRoCCZAACZAACZAACZAACZAACZAACZAACfQgATqFerDT2WQSIAESIAESIAESIAESIAESIAESIAESoFOINkACJEACJEACJEACJEACJEACJEACJEACPUiATqEe7HQ2mQRIgARIgARIgARIgARIgARIgARIgAQGiYAESIAESIAEeoHA1JRSE/ozpd+5iU+3vHuzr0+p/vpnUP+pp59/7ukFc2YbSYAESIAESIAESKAQAn18JX0hHCmEBEiABEigQwlMakfQ+KRSOPZCGNBOoaEBpXBkIAESIAESIAESIAESIIE0AnQKpdHhNRIgARIggVlNYHRCrw7SDqFeDIPaMTTM9cC92PVsMwmQAAmQAAmQAAlkJkCnUGZUzEgCJEACJDBbCOinw9ToeO+sDkrqF6wWGh5SSj9dxkACJEACJEACJEACJEACMQJcXB5DwgQSIAESIIHZToAOoVoP4pE5sGAgARIgARIgARIgARIgAR+BrnQKPfroo+qOO+4wn7GxMV+7mUYCJFAn8JWvfEU97WlPU//7v/9LJgUS4DxUIMxAUXhkrNX9g+5cNqF++9Bog8ZbnxhXh/3wCbV8ZEp9+qY16r4VWkFCuO6xMfXU7z9h8kzq5Upj+h/fBxtdJ4UHVk6obb72mFoxWswmSMYxlFzlpGownQRIgARIgARIgARIoAcIRE6hyclJ1adfYZL1c9VVV0V5//Vf/9WLCumQ94IXvMB7/fzzz49k3Hvvvd48duItt9wS5U+q5+WXX64++9nPqsWLF5vPQw89ZIuo7HzjjTf21nXfffdVb3jDG9RNN91UWV1E0ZZbbmnq9PGPf1ySZvXxwgsvjBjfeOONiW0J6Ys0G4Pj5N3vfrd64oknEnXhAuzdZ5/g/5KXvET99Kc/TS3f6sX77rsv0nvllVdmFvPjH/9YXXvttQoO1KS6S3vAUoKP6/bbb69e8YpXmDHo65M//elPUR1vvvlmEeU9fuxjHzN5DzroIO91SUyqc17eWcdLEvei5iHbJi+99FJp9qw6JjEqoxFwgOTZQ+hXD4yok36xXP3g7vVR9T70u9XmbWWL5varC/8yqv7lmlXRNftkyZMT6nnnL1dP3XxI7bZwUH382tVq0Zcf837+6Wq/DMgb121YNTZtjrb8POdg0qqjLI9eliUBEiABEiABEiCB2UBAv4BLwccB/wHu95I+yOcLjzzyiIIvIum6r0yraVLXpUuXGn2IJ31sHVP6VbyrV6+OfVregnLBggXq+OOPV7/5zW/U97//fYUbODugUt/85jdN0i9/+Uu1YsUKtXDhQjuL+tGPfmTiBx54oNp9990brrUaGRjQO2uWEHCDh7ainp///OebagBsX7jrrrsUPt/+9rfVFVdcoY455hhftlLS1q+fuckpRUHFQj/1qU9FGtE/P/jBD6K4fVJUX8Bxgs///d//mQG/7bbb2mqanj/++OPqZz/7mfmcddZZ6n3ve1/TMiEZWlkV9/e//1399re/NWownr/zne+kqpw3b1503ccVkyjGtYztd73rXerTn/60fkV25H+Oyn/wgx9UF110URS3Tx577DF15pln2knB53l5Zx0vrXAPbswsL1AlI7xlLE/4wCEb6jeVTau3XrpC7bpgQDsmlVk5tPeiQXXa5SvV+olpde2jY+ot+vqgfg/8s7afo16y+zx1wZ9H1KsvfFIdvd2w+saza9917z94Q/Wm/eZ7q7PxHC1Yh9Xa+fOjJY1z86Nra4349p3r1MLhxrHz0j3mxtK8CjyJYMM3knnAMIkESIAESIAESKDnCfz5z39Wa9euVXCc3HDDDd77F1w76qij1IYbbqiwqAYfCX/5y1/M6fi4/7l93A8NDrbsfhE15vjwww+rNWvWqJUrV6rrr7++4Zobefaznx3pxf3b7373OzeLimoFZwqET0zMrDF/xzveoX7961+rXXbZxTgw7NJbbbWVevWrX20cJQ888IC69dZb1VOe8pQoy3XXXWe8bJJwwQUXmPwSRyN+8pOfmOjrX/96Sc58/NWvfqWOPfbYWH7ctO6xxx5mtQIu7rDDDrE8rSTceeedCitT4I0LCbjxlZtbeA/B8/TTTzci/vu//7tSp1BIvTs9L1ZPwBMr4bzzzlP/8R//oXbccUdJih1D+wLOn+OOO854XdH/3/ve98wKmHvuuUf98Ic/bOrUOfzww423GRWBvV988cUKq+dQ/v3vf7+Cw6SoiSHW2IwJaCPCC1/4QjO5SbFTTjlFgakbfE5XtAPtwaT417/+1TjOEEf43Oc+Z+YPsXlbHnjAMfrMZz7TTjbnn/zkJ2NpzRI6jTdWlWHVFEJR81AzBr1+XX9PF7Ia5qOHb6R22HjAOF+O/mltzn/OTsMG70r9SNcuCwbVFvNrzpr5g33m8bC3/GaFeuviDdR/HbmxetdvV+p5Q6mzn7lAbYB3w6eEP6+aUO++cqWRKdlGtVMK4ZvaKTSkHU8I4/p5s7+tnlTP2GZOy04hrBQCI4+P1ujgPyRAAiRAAiRAAiTQiwSwoAVPLsHHMTw8bBxCz33ucxtQjI6OqssuuyxKg78DC1/ckLSyH09ZHHHEEW52E8d9FPwp+MP4IYccojbffHNvPknEKvxNNtnE1BX3Z3I/dffdd5t0PPGwbt069fvf/16KNByP0QtT5syZE6VFTiGkbLPNNtEFnGy66aYmjhtX303NySefHOX/+c9/3uAUEoePZEAcTiQJcLBIePGLXyynmY9w/syf7/8L7NZbb63waRZGRkbU0NCQsm90YRB4VKaoAHbQgQCHBRxt8ObBwXDNNdcYh0MefagvVjS4LLK2I0s+eER9Kz1cRllkZcnjyvXFsTII4TnPeY7629/+ZlZffelLX1JpzoQsfWHrQr9J3x1wwAFq//33N6uRsAKlmUcWcmBXUh6D9uUvf7npqze+8Y1GDVaMQWYroSiOWLmE4I5BsHJtKqmemOBk7sDjY5js4FTCY1/wRn/oQx8ydu+z83/+539WmFDta/DSw5kUGsrkLXUJ4Z5lHgqRJ3XIesw6brPKC8lXZrvS6jGhHR5FhdfvM1/t/70n1NrxmoPm0C1rX5xXPzSmX/PepyT+rB2G1ZyBPrXk9VuqjfTqHzx29o071qlfPn+RuvHv/r8UoY7D2le0eLPadwPit71m5ssfj6Ed9IMn1FWnbqY2n1dzPsEZte3X/46suQIYzamJzCWHhUmABEiABEiABEigWwhgAQAcM3vttZdatSr5EX+7vbjXkZVCcOigHO6D7PsaOz/ur3wBq33wNIrI8uWx0/BYGxw+u+22m0kWffjtD1lwauFc0u2yco57VLs+uX4a4kZXbibxCJkErDY699xzTfTII480R6yQefLJJyWLwj4mCM961rOiG8roYs4T3Oiik/CRlU8f+MAHTPxf/uVfjG5cg2MJHYgbmG9/+9tmKRicHwCI/WO+/OUvm9UoyCtOLiwlE9l2m0OqLCuqcMOMzxlnnBHVzZZz6qmnmnRxgGBFluiGl/Ltb3+7cda88pWvNMXgvfzP//xPhSViaAc8hC972ctMG225MJJ/+7d/M0485MOKK3sZGeR861vfUieddJLCDT9utnfddVezwgkGaAd4H5EPuiBrzz33VFiRY/c1PJ7gjrojD7yuX/va12wxQedwAsGphgAnG1aqIGDlFQZCSHD7Iq0sOMBziyDLA9Py+65hTykJWDl2++23R32K/XYkoH+lr8UDDfYf/ehHI47oG7C3HaxSHo6rt771raZfkA+2hI2P7YA+ks2lTzjhBPtS7nM8ZnnmmWcaObDx+++/3ysT4wmPl9rBfRTVvhZ67vKG3YCreNNFHh7nQ/qrXvUqSYqOmKBlvOCxWbC0V6lFGZ0T3zyELJj0/+Ef/sGMKYwH6IUTLOvjao6aKJp13GZlYM832KPKtifsjeXaU9b5J4ttRo0KPEnbvDmrqHP+uNas3MHqnX/Wj5J99bjao2CfvHGNwgcbUWPjaYnj8S8EOIT+oB8rw2Nnb1k83zh8jvvZUmV/jtGrjvBB2ksumPk+zFq3IvIVwaiIelAGCZAACZAACZAACXQCAdyTPfjgg6YqcKgg4H4ZW2zYH3fVDfLij+h4XAz3Vfvss4/Zhwj3Pe4HT2TZK3OMkvo/8ElgZZD4Texr7jl8G7IvK+4jJOCeCnXFfRd+w+N8yZIlcjl2xG97rGiSj99dFSuWnACHBG5+oByP9GBFBZSgQgjY50VWGeERste85jXmxl1WKCDeSkCnuDdR6Bg4RJYtWxbBgsMH4S/6GT8AxLIwqRvSly9fbpwJcFog4FE5PCMo+8fAMSTgTQb9j8TlZl3SsxzxnOJ3v/tdkxWGgxt2LP+CTKyysAMcVnjU6BnPeIZJxsom0Y3HfaQdeKQNDgPcrMpNPgrg5gvOLDhK7L1b5GZddOEGF4aE5WZY8YFHimQ1C/JstNFGpn+/8IUvmDe64ZEfBPSB1A154DCBHDim8Ajf61//erME7uijjzbtQB7sH4XHhvCBlxOrSEIDVgQhbLfddsbBBDt4y1veYtLgzBInkUlI+cfXFynZTT8JX2l3Wn73GgYxnI8SwAKrYqRPbXtGn0k6+h3hRS96keGGc6wwgu2iPmDu3qDDFuyAza0xBuwVTugDBKy2WrRokZ3djBPZE8y+ACcanBhZApx/733ve01WbDot3mwpi9VEcAhhtRCcW/BWw0km+xq99KUvzbUpt483xp5wlXrgiL2QkI7H/NzgOqnAEh84Up/+9Ke72aO4bx665JJLDO8okz6BXnzw+Bs+rYas4xb7SGVhYM83xxxzTEO1MH/jy1Psqdn885nPfCYqn8U2o8yBJ0U4PEb0nkHL1k+pn983ot51wIZK9ve57CWbmtq89dKVaq5e5fN5/WgYwly9SgjhfJ3/NRfVHD0H61VFeLxsxWmNK1Y/e/Ma9a071zesCjKFK/ynCEYVVpeqSIAESIAESIAESKA0Arj/wj03HDayBybuz7FiCAH323DoSBxpc+fOxcEE+BrwAik4dnAvD0eMfT+B+03Ixd7KuBfyrd6BbtwX2veCIt894je8bxWQ3Jvi/gRPK8Cngd/ncA7ZQXwjeIIJCx4kzLiXJCXwaD9r94tf/MKUllVAcFwAjjgYsA8Lgr2yATeGrQTszfL85z+/4ZPFwYSOhRcOdYUzBSuVxEmD1QDw6sEwsDcKVujA2YC/gMPBgYAOQxyf0047zaSl/fM///M/6k1vepP5gBUcTrfddpspYj9OlybDdw3tAAOsLsEG2N/4xjcihxAcXFhNA0PAihysknIDHHTwasoKKMiDcwEBN+hve9vbzH44uLGG8wvOFgQYFrypCGgbAm4YsVwON4g4YsUObugRsK8KHFtwGGHFEAYN+CJ8+MMfNmkmkvEfyP/iF79ocmOfGjgS4GyCHgRsapy0uVdoX8C5JX136KGHNmyGnvRGPVOJ+j/oZymPG2E4XuBkRMCmzltssUU9Z/MDbuTFiYM+AEP08R/+8AfDw/YUQxocZng8DSyEDfrX3hMLj3wiYNWHG+y6SxtwhN1kDbaTEw5jN8DZgr6Dfciqu4985CMmG8ayTG5uuaS4Xee8vF0dsH9M6vCmS7/59klyy9lxrDgS1nCawomD/kE/YYzmcQhBT9Zxa9cp6zm+WDDXJNlTyPyTxTaz1svNV/8bgJscFMfm0F8+trY6yC64mX6LGD4/u3e9eURM4sv0a+qXaifSGy55Ur1ot7lKNpC2y2Y5f9Gvlyv5nHZZbcUjnEyS9qoLV2QR0zRPEYyaKmEGEiABEiABEiABEpgFBODgwZY5Bx98sKktHC5wluD3Kj6yt4/EcRTHCvJiOxj8IRVP1SDgqRk8cYQP5MIhhEUX+EOyzyFkCgX8A18CFge4suCIwkIP3CtjEYws4nBF494eAU914Pe9fHKvFMKSKThMsAICN3ZwSMibh8Tpgc1WseoAziD89Vyu49EzPILWSsBNtfv2J/ftZklyoV/2QEEeQMGNGZwGuJHFaies4pEVJ/DeiScNx6SlXz59kIuPGz7xiU94nTVuvqQ4HpuyV/zIK8hxk41Xzsszgm9+85tjInDD/bznPc+kw3EnATfnCHjGEM4LrOSBtxN9JkvpcP2OO+4w/GRTZzh6sBIAN7UwUtlkGANGVtYgHYPGDSgrdXGv+eJ49AUOLATYnQQ47+DEw4oPOPzEKSXXcQztC98jQuALO8Hqp2YB9fSttkHdMF5CAmwbuiET7cQSxf322y/RkQCHy957721UwEEijyBiVdpmm21mHBxY7YLg448JwscQu+1nDVjJJGHnnXeW0+iISRaOWDitsFoIk6w8Svbv//7v6vzzz4/yZjkpkretD45gsTU8aolHzMATnvosHn2RhWeVxXbf+c53KnlkD/2ETdLzhqzjthU9WNEnfyHx2VOz+ceeA5vZZiv1K7vMoP7zyfK311b9vFk/HjasVwd9ob5SqL4PtPrdyzZX+26q9987t7V9f7B5tYTH102aU6RhI2sEvPWMgQRIgARIgARIgARIoDgCcK7gj/+yugdPX+DJBTfYm0fjj/F40gL3tlLO/QM9yuO+Cz6FnXbayRXXchzyENw64g+3cPjgfhzOKuzZ6gv4IzeC/dsc8ZlfoYi1GOD0wU0uHiHD6gq58ZGbHqwkkRta/MVdbvx8+3dkrcI//dM/mTdDZc0v+eCcsB1CSMeKFXjUsNLgDW94g8mK1QDQIY+/SPnQI26gXvva15piMBbcHMMJJU6mUHmSH4ZoB+l4vC1LHEL2dfsc+iXIShv0mSyZwyNNeCwQj9D5AlZJIcjb5+D4sTlhjyQ4rDBIxBawkgAfN+CRNZ9Tws2HOAz9v/7rv6JLSY8xYX8Yn0MjtC/gXIODEAFOMdwUw3GRNWA1iP3YDHazx0DG8sLQAP14bA6r0zB+ZAzBYQHHistQvNXQg7EnARMGgkxsWI3j25Qd7bZZS/mQo/2I0mGHHeYtin2xzjnnHDN3wNGLgH2T5JFTb6GExCJ52ypcByA8/+Jkw1jJGuAUkhC6CkrKpR2zjts0GUnXmtlTyPzTTFZSHbKk6+9189avLHlD8mBz5ueev8wUwX5CeGLsvhX1v7QsHFRffNYC4xAKkSl5t9twQH36qI3VW/ffQJIUNprG42sfe9pG0UbT47oOz9x+jtpRvxUtTwAjBhIgARIgARIgARIggTgB3Bfhng0BW2/AR4AA5xF+v+M+zl6lg3scedoGCwrkPtkU0v9gpb3sGyvOJLlW9BHyseBGVjL55OMJINQfT6HYoRCnEDZtFacPbqQRsEJFbn7heMDGqriRklUkyGM/eoZ4FcFe8SL6sFwM3jbskfPHP/7R3DDjpvt973uf2Xwajz6J9y90I2M4EtwbdtErR3HiyN4xSMejJu4+MZIfRykjaagjVsngOUJ4B6W+cj3kiJt0OITgAME+QlgGhxURcEDYAUvi8DgRDB2PMaHM17/+dXX22WebN63BOSR2ASeRzwmIDaqzBvQJ2ijBPpc0HDEwr7766thmXVn6wpYDTyucbK0GrITJ2vfQIU45nOPZVTfACYd9hbAcEA5MrFiC4wVOWXdgu2XduKzCwUbkZQQ4BDF+JCxevFhOG44Yj3jkT1aswRkr5dImtAYh9Ugob4wxcc7icdGkIPvmyHXb2YXVcrIxHa6L003y2kdZaYM02Khscm7nyXOeddzac0dWBs3qVeT800xX2nWs2qm/zT0tW9Nrf11VW6nzs/vWq8O2mmPyv3qvmjNXjiJkUf3tYBIPPS6a29/gEEoqP6RXK71k93CHsitPVja56YyTAAmQAAmQAAmQQK8TwD00PthyAw4h3KviPgtPWuCPoPhjsbxd2n2CAotP8NtaAp6IwT5C2KMIIc/9uchMO+JeUv7wn5QP27ngj+/2y3iQV//MzB8ARlbYiDTcqNrBvfnE/iTiNLLzteMcb0YDILxCDo9lYa8V2TcEnYkgK0TwiJXsPG7fxOeptzzmA7my5wv2ApJVNllko+4I2Fz685//vHk8CHE8sufbzwXXkoLkx8oL7PmEm1lZCWCXwc0y8qL+2DcKdZZHBpEfN5/YswnhvPPOM/spYWDgg0EBzvYqFlu271xeN49Hm/Bom/tBH4o8OBpmQ0BbJGBvKATYgPtKdjhI5I1rcDRhDxowRYCdJL3dy2Rw/oEHW/YTwj40voBVWXAE+j5ufuiHAxOOLNgEVoRhNQhWDiJ89atfjTkxbRmwMdltH49RSR/aXng7f55ze5WcPM4IB42svPLJhqMVb4NDwMo22YcLq7422GAD8yyulEubiG3HGB7PhGMPAY/ZyebpIifpCEcovqDcD54fzjpuW2GQVB9JL3L+EZmtHItweOB18k//8RPqeP2q+e/etV699ILl6tQ95hln04Zz+tXC4X41f6hPDWhlK/Wbx/74+Lhq9mDXAysn1L169c+9KyZVEXVshY2Uabd+qQePJEACJEACJEACJNCJBHBfhfsDPF0kTy/gCRXcm1x11VVm315fveE4ghNJPsiDPWUlLvsTuWXxR2X8lpdH0fCIF+Ky/4+b3xeH4wm/x/EoHD6uwwplcB8Bp9VOO+0UE1HISiFIhdMHK0QQ4FBxK4LK4QZYbhRdp5Ep2IZ/sBkzVrDgxhY3poAERxCcKwiyUgRHbOyMII9+wIGEv87nDdCLzZlRBxgL+In+rLLhZMNeSTDg97znPaaucLpBDh6bks2/s8iDowCbGWMJHIwL+9nI3kB2eTzmg82PcXOMgYKNj1EOQR4dxE0+VhHBmYblePCgYkWU7F+E1WJIaxbgMEPbEMAKg84X8Pgi+gU3+dgPCaucOjlgiR/aDwcBeMKx5lsBBYZ4DBGfk08+2ThOxAEBhyW8vbI0sVl75e2AWPnl2+sH5cEP+4W5AQ4bTFJ2wApAeZzKTsc5HFfNxjomWLyVC3YhnnRXTlFxeRwQ8o455piGOSlNB8a/Oy5hawhY7fTyl7/cjD84LuHgwYo5N8BJis32wQOrjbBSyJ4TMWdin6i04DrfJS/kZh23rTIQXb5js/lH5k5f2SLTsPfP+MwfaFoS/Xv9Wvn/OmJj9Tb9OBecPZc/OKp+cs967SBap5aNTKsp7aDt1zY7rJ/imqv3+9ln0aDSC5RSwxsuXqFuXTquBnU5vOa+WWgmr1n5tOtgxEACJEACJEACJEACJBAngL1zcS+GeyQsfMAiBAQsaMBvdfyxGPdSWDHku1fCH/KxcMReMRTX0piCP6zbe/zIOe7vZA/fxhKNMTiP5L7QvmI/dQGHE56Mgq8Bf9S2A56ESnUKyaMVdqGkczxqg5tTQMSNi1sWN36ve93rjLMCN1f2Ph3whmEjprQgq0skjytf0t2ju9rALYc4Vl3gRg6PHOGDgFUyWK0BvQjYMVz2dDEJ+h95xlDivqOrz5cHN3N47E4cQ1idAQcBVifA8LKEBQsWGAcNHEJ4qxGcQXAyoR3u/jrN6oQNtjEAcIMr+nGOzYDtgBtBrHKAs0aMF04D1F1WDMFhBBnYnwnGKqsjYAOoK26K4Y0Vz6gtX86xy7o431AOb51LCthEG04hBKxQsff0adZulLGX9WXJjzJuEBlydK+7cThgsFoGbDB+8CgO2oHH7ySAE94I94Mf/EBhZZsErMQ699xzG55txTW77m495C2Brl2gnJsXaXZotroPc4B4qeF0sR0QkGPLt+uInf/t1zvaOu18drqci0w5SrrvCI8/xgc2jsYYgZMaj65h4rdtxS6LsYlJVFYIYUxhLNh2iEfesPII/Ydx5z5GJvMQnEdoD1bzYVyIkxxjKcnRmaVdkJl13LbCwO4DX31anX98smz2oef6+1qv4NGPkOn9d1oN3zh+5s1jcM4cq1cM4ZM13PDKzdWGeiWRHa481e/EtvPY53tsMqgeevOWaoFelVRkABswYiABEiABEiABEiABEogTwIp6LGTwrerBy6bgw4ATx3UIyW99/PFc7p/xOxe/kZuFnXbaSeHTSoBe6HG3eYEs/MEdTi4E3PfgD9m+PXmxL2mf9iA1W/luBJX5D/aiweataQErJeB4KjPgLVvwlMHxAEeEL8Drh8eUgA03V0Xe1GAvIBgZDNHe98NXj2ZpeG08vIBZDDFJFtqK+mDJm28vJikHhw4eeYI+3wCSfDjKILLfOnfiiSeax9zsfPY5Vh3hRr7bAzb+gg1gmWFSQJ9gUOMRMLx9T55pTcrvS8dkgJUq2PgYTrteDRjHWJnkTupJPMAcb32TzefcfJgTIBP54BxrNoaxShFzDuYR2+niyg2NZx23kBvKIGtdiph/supy88EhNFLbT9291PPxuUM1p1nPgyAAEiABEiABEiABEnAI4De0+5scv+/xx960t49jpY79ux/54ayx0xxVuaPQKXXFeZZ7wrR9hzvCKYQbLXnsKInQMccc0/Lr65NkMr0zCMApmLapNpxkZTsEO4NENbXA5AaHULNHlaqpDbWQQPEERvWLwSZyPkZWfK3aK3FQP+42nLo2uL31o3YSIAESIAESIAESIIH2EOgIp1B7mk6tJEACJEAC3UoAq4XyPEbWTVzw2BhWCTGQAAmQAAmQAAmQAAmQgEuAuwu4RBgnARIgARKY9QSG+aiU6UM4hMCCgQRIgARIgARIgARIgAR8BLhSyEeFaSRAAiRAAl1BoJcfJeMjY11hwmwECZAACZAACZAACZRKgE6hUvFSOAmQAAmQQLsJ4DEyvKq+Vx4nw+qgIb2HEI4MJEACJEACJEACJEACJJBGgE6hNDq8RgIkQAIk0DUE9Mv91IT+TOl3buKj91zviqBfcKH6659B7Qjia+e7olvZCBIgARIgARIgARKohACdQpVgphISIAESIAESIAESIAESIAESIAESIAES6CwCXFzeWf3B2pAACZAACZAACZAACZAACZAACZAACZBAJQToFKoEM5WQAAmQAAmQAAmQAAmQAAmQAAmQAAmQQGcRoFOos/qDtSEBEiABEiABEiABEiABEiABEiABEiCBSgjQKVQJZiohARIgARIgARIgARIgARIgARIgARIggc4iQKdQZ/UHa0MCJEACJEACJEACJEACJEACJEACJEAClRCgU6gSzFRCAiRAAiRAAiRAAiRAAiRAAiRAAiRAAp1FgE6hzuoP1oYESIAESIAESIAESIAESIAESIAESIAEKiFAp1AlmKmEBEiABEiABEiABEiABEiABEiABEiABDqLAJ1CndUfrA0JkAAJkAAJkAAJkAAJkAAJkAAJkAAJVEKATqFKMFMJCZAACZAACZAACZAACZAACZAACZAACXQWATqFOqs/WBsSIAESIAESIAESIAESIAESIAESIAESqIQAnUKVYKYSEiABEiABEiABEiABEiABEiABEiABEugsAnQKdVZ/sDYkQAIkQAIkQAIkQAIkQAIkQAIkQAIkUAkBOoUqwUwlJEACJEACJEACJEACJEACJEACJEACJNBZBAbXTc1UqG/mtLCz6RRJZegTdWl6JU8Z+tP0lqFP2pKmV/KUoT9Nbxn6pC1peiVPGfrT9JahT9qSplfylKE/TW8Z+qQtaXolTxn60/SWoU/akqZX8pShP01vGfqkLWl6JU8Z+tP0lqFP2pKmV/KUoT9Nbxn6pC1peiVPGfrT9JahT9qSplfylKE/TW8Z+qQtaXolTxn60/SWoU/akqZX8pShP01vGfqkLWl6JU8Z+tP0lqFP2pKmV/KUoT9Nbxn6pC1peiVPGfrT9JahT9qSplfylKE/TW8Z+qQtaXolTxn60/SWoU/akqZX8pShP01vGfqkLWl6JU+r+vvWTU5nkS96eCQBEiABEiABEiABEiABEiABEiABEiABEugCAnx8rAs6kU0gARIgARIgARIgARIgARIgARIgARIggVACdAqFEmN+EiABEiABEiABEiABEiABEiABEiABEugCAnQKdUEnsgkkQAIkQAIkQAIkQAIkQAIkQAIkQAIkEEqATqFQYsxPAiRAAiRAAiRAAiRAAiRAAiRAAiRAAl1AgE6hLuhENoEESIAESIAESIAESIAESIAESIAESIAEQgnQKRRKjPlJgARIgARIgARIgARIgARIgARIgARIoAsI0CnUBZ3IJpAACZAACZAACZAACZAACZAACZAACZBAKAE6hUKJMT8JkAAJkAAJkAAJkAAJkAAJkAAJkAAJdAEBOoW6oBPZBBIgARIgARIgARIgARIgARIgARIgARIIJUCnUCgx5icBEiABEiABEiABEiABEiABEiABEiCBLiBAp1AXdCKbQAIkQAIkQAIkQAIkQAIkQAIkQAIkQAKhBOgUCiXG/CRAAiRAAiRAAiRAAiRAAiRAAiRAAiTQBQToFOqCTmQTSIAESIAESIAESIAESIAESIAESIAESCCUwGBagen6xb60TFmuBQoKzO6vgQiRqxkaIUUyZBWp/mOgoMDs6TrlaoZGFKIX+gIFBWaXFjUeRYiksr1CIjoKogxoojLek0BBgdm9KiObkqsZGlGIXugLFBSYXVrUeBQhksr2ConoKIgyoInKeE8CBQVm96qMbEquZmhEIXqhL1BQYHZpUeNRhEgq2yskoqMgyoAmKuM9CRQUmN2rMrIpuZqhEYXohb5AQYHZpUWNRxEiqWyvkIiOgigDmqiM9yRQUGB2r8rIpuRqhkYUohf6AgUFZpcWNR5FiKSyvUIiOgqiDGiiMt6TQEGB2b0qI5uSqxkaUYhe6AsUFJhdWtR4FCGSyvYKiegoiJqhSXUKiTQIayZI8rrHvmmpir4y3Yf/M4dceh0tVi2cK/FoLr1sbxxoQkouzo5M9q8DxIrm4kx7tkimn+bi7IimPTtArGguzrRni2T6aS7OjmjaswPEiubiTHu2SKaf5uLsiKY9O0CsaC7OtGeLZPppLs6OaNqzA8SK5uJMe7ZIpp/m4uyIpj07QKxoM86ZnEIBfhxLtZzWSptOChQUmF0UNhxDjEMK5tPL9grHZsd8nGvS2b/NKLfu0K1Jpj03J2yTyprbn4/27Odip+abN2jPNsu083yca5Jpz2mEa9fycaY9NydcBOeaDNpzc9q05+aMZnJw/M6wSD/LZ1c12Ry/6YxxNR9n2nNzwrUc+TjXZJRhz6lOoSIqHQEKEBaQNRKfeBIgLCBrorroQoCwgKyR+MSTAGEBWRPVRRcChAVkjcQnngQIC8iaqC66ECAsIGskPvEkQFhA1kR10YUAYQFZI/GJJwHCArImqosuBAgLyBqJTzwJEBaQNVFddCFAWEDWSHziSYCwgKyJ6qILAcICskbiE08ChAVkTVQXXQgQFpA1Ep94EiAsIGuiuuhCgLCArJH4xJMAYQFZE9VFFwKEBWSNxCeeBAgLyJqoLroQICwgayQ+8SRAWEDWRHXRhQBhAVkj8YknAcICsiaqiy4ECAvIGolPPAkQFpA1UV10IUBYQNZIfOJJgLCArInqogsBwgKyRuITTwKEBWRNVBddCBAWkDUSn3gSICwga6K66EKAsICskfjEkwBhAVkT1UUXAoQFZI3EJ54ECMuaNdUplFiRgAuteLICxCdmpd5ENIVeIOdCcSYKI+dENIVeIOdCcSYKI+dENIVeIOdCcSYKI+dENIVeIOdCcSYKI+dENIVeIOdCcSYKI+dENIVeIOdCcSYKK5Nz37pJ+6HHxDrwAgmQAAmQAAmQAAmQAAmQAAmQAAmQAAmQQBcRKH2lkGElbq2s65eKAix6RV5V+kVvVfqkfaJX4lXpF71V6ZP2iV6JV6Vf9FalT9oneiVelX7RW5U+aZ/olXhV+kVvVfqkfaJX4lXpF71V6ZP2iV6JV6Vf9FalT9oneiVelX7RW5U+aZ/olXhV+kVvVfqkfaJX4lXpF71V6ZP2iV6JV6Vf9FalT9oneiVelX7RW5U+aZ/olXhV+kVvVfqkfaJX4lXpF71V6ZP2iV6JV6Vf9FalT9oneiVelX7RW5U+aZ/olXhV+kVvVfqkfaJX4lXpF71V6ZP2iV6JF6S/X+SVdnQrXpqiDhHM9nZIR5RUDfZvSWA7RCz7t0M6oqRqsH9LAtshYtm/HdIRJVWD/VsS2A4Ry/7tkI4oqRrs35LAdohY9m+HdETr1egvyLmUWIMpfQWvoTcf5CpbodRE67F1m3NtsGWrt3Wa8VG2QrbX2Bb7Vwyh2CPtuVieidI4Xyk8yFz2dEl7TrTAYi/QnmnPxVqUkcbxWwJUn0iOX45fn13kTOP4zQkwa3GOX47frLbi5Ouf0j/Ey9pVyDhF6gqhw3x0HDqn9D+JelHQLuxUulkURaf07INjn14LhfM+DBKdwPY2o5f9ut1F7F/ac2Q5MAzbOKIL2U5QlOOX81U2a8meyzZJzlecryLL4XwVochywvmZvyez2EloHs7PtZ9NvD9yLIfzswMkPcr5mfNzuoWkX+2H08QEe0ZOLxN0tb/ulBkZGVejYxNm1kOa0muU4KgpK0A2lkGNjU6rkdExc5M5MFBzEhmdbG8h6Nm/2s5oz4XYki2E41cpzle2RRRzzvmK81UxltQohfMV56tGiygmxvmK81UxltQohfMV56tGiygmxvlq9s9XAx/4yJlnYoIw/hnzTzHGEUnRzpd168fVkyueVGNjo2rOnGF9s1PzREFvfT1PlL3hJE99dNmJSaWWLl2mRkZGtNg+NTw8VFtSpq8Z0XnkN1TUivRYe/EX9/U91L+91l6s+Oml8dtr/cv2dvf3EfuX/Vv/tWP9SKmf5vn9o8u24/cV7Zn2THvm+I1PZk1SOF9Vcv/L+Xn2z8+D+p4veR8HXETI8eMBIqa0pUzqNZF9fXrJuvnPSG3+T2rlshWfnNKeIS1nahpPs6a6oGoXkYntBYXMoZf6F1B6qb29Nn57rX/ZXnwjZQyz8PuI/cv+TbRu2nMiGt8F4Kr69yTq0Uu/N9hezlewAW/gfOXFkpTI+ar8+32w77b5uW+dbhG8e9pf0+gMQVrd2rBJdCvBiNRlx7VfZr1+fAyPc82fN2SOeG7W7HIN5ZEmfWrrhdIWdEMiykHH6NikmhyfUHPnDquhQVzQKqADmWzZSDNX9XU5qcezHoxIXZbtrbFn/2rLse0KhtSCbcGuaM/VjF9wxl/Ae2W+Ynu7+/uI/cv+bfjSmeXfR7Rn2jPtGT8IzU/LBhS11Ob/tvP3JMcvx2+D0fL7qPmAdXKUPX771kxoF4nWYm7g5YbV6ijUJ4+TBI4ZPCZmjloWnjnEoh2s3OnXF4xezBQIrl6kSZ1wnjFoMfovOvofXRb7ckzorYwGtV7ZcJrtbcTK/s1mWLAr2jPHbzR6OF9FKLKNoFouzs/8PuLvjZkRw+/fGRZpZ/z+5e9n3i/MjBCMB94fzfBIOuPvDf7e4O+NmdHR7PeGWSkEJ4n5iANGx63TmciM3ExnECs30VIAnYN0/FPTgVhdW5RWz4N8UhGcZwxGoi4Hx5Dsl2RWB+nyZmNtZLDUztSlrrcFnagaRLK9dYYaRg2jBTpKq+cBtBZYG4nsX4OO9lwbeGJGsI1WbArFUJbjl+M3MiDOVxEKjI+sgfOzHkN12+H8rK3GHUcyWWc1qHo+2BXnZ87P0aTk2hXspAXbgl3hPoH3C5oDtnsFEANFHxFczi0wrovh+NXsgHaGqQXa5Yx8LbA2EmnPvD8S23HtStJhX57Qt3ZyupnjyFMsexIMNCl462YX8GZIktaYbotpvNLSOHNFJMaD9doF2N5Eru4FG5t7LQdGV1QsHqzXLpCjYrYYt1I5xLqiYvFgvXaBHBWzxbiVyiHWFRWLB+u1C+SomC3GrVQOsa6oWDxYr10gR8VsMW6lcoh1RcXiwXrtAjkqZotxK5VDrCsqFg/WaxfIUTFbjFupHGJdUbF4sF67QI6K2WLcSuUQ64qKxYP12gVyVMwW41Yqh1hXVCwerNcukKNithi3UjnEuqJi8WC9doEcFbPFuJXKIdYVFYsH67UL5KiYLcatVA6xrqhYPFivXSBHxWwxbqVyiHVFxeLBeu0COSpmi3ErlUOsKyoWD9ZrF8hRMVuMW6kcYl1RsXiwXrtAjorZYtxK5RDriorFg/XaBXJUzBbjViqHWCOqb512CrlCGScBEiABEiABEiABEiCBqghcdfe0+o9fTaqrlvBnaVXMZ4ueo/bsU0fu2a8+dErt7cWzpd6sJwmQAAnMFgL1rZdnS3VZTxIgARIgARIgARIggW4i8IlfTqlPaIcQAwn4CMBReNWSmn3QMeQjxDQSIAESyEeAK4Xy8WNpEiABEiABEiABEiCBHATmv2k8R2kW7SUCF71/UB21V94HJXqJGNtKAiRAAs0JcB1mc0bMQQIkQAIkQAIkQAIkUAIBrBJiIAESIAESIAESaB8BrhRqH3tqJgESIAESIAESIIGeJzCkF34McvFHz9tBMwATerupcW451QwTr5MACZBAMAGuFApGxgIkQAIkQAIkQAIkQAJFEaBDqCiS3S2HdtLd/cvWkQAJtI8AnULtY0/NJEACJEACJEACJNDTBPq5Qqin+z+08bSXUGLMTwIkQALNCdAp1JwRc5AACZAACZAACZAACZRAYKAEmRRJAiRAAiRAAiSQnQCdQtlZMScJkAAJkAAJkAAJkAAJkECbCNCJ2CbwVEsCJNDVBOgU6uruZeNIgARIgARIgARIgARIgARIgARIgARIwE+ATiE/F6aSAAmQAAmQAAmQAAmQAAmQAAmQAAmQQFcToFOoq7uXjSMBEiABEiABEiABEiABEiABEiABEiABP4FBfzJTSYAESIAESIAESIAESKA3CSy55x517bXXqccff0Jtvvlm6pnHHKN23HGHUmH88le/Vo899vcGHTvvvJN69vHHqe99/wfqxBOeqzbddNOG64yQAAmQAAmQQF4CXCmUlyDLkwAJkAAJkAAJkAAJdA2B62+4Uf33WZ9W8+fPV4cffqgaGBhQ//bvn1BLly5Tq1atUmd+7OMtt/Wzn/u8+tvf/uYtf9311xtd++yzl5LPdttua/Jefc3v1OrVq73lqkrM2/aq6kk9JEACJEACYQS6d6XQdAKIvoT02Z7M9tZ6kP072y25Vn/aM+25OyyZ9mz3I+dnm8bsPe+B+fnyK65QzzvxBPWiF77A9NORRxxh4osWLTIrh/764IPB/Tc1NaX6+/vVvffdr9atX59YfvHi/dRhhx6SeL2dF0ZGRlUrbW9nnZvq7gF7bmDA9tZw8PuowSxmbYT2XJg9V+AU8vVW+SPRp8FXk+IHgU+LrzbFavZp8NWkWK2Q5tPiq02xmn0afDUpVivbW+Ppo18saZ8G9m+xjGvSfFR99IvV7dPgq0mxWiHNp8VXm2I1+zT4alKsVra3xtNHv1jSPg3s32IZVy1twcYbq4cffkSJIwf64RDCI2Wf/sznTHVOe8cZaquttlTvf+971De/9W116223q8nJSbX77rupd51xupo7d676+rnfNCt/7rjzTrVw4QLzaNh67RCCjMHBQXXWJ/9TbbDBBi0171e/vkBdccVv1ejYmDrk4IPU61/3WtXX16c++OGPqJ132lndcOONanh4WL3x9a9T1153nbrxppvVJgsXqn96//vUFltsrsbHx9W53/imuv2OO9XQ0KB6wSmn6EfkjlZXXX2NuvmWW9TIyIi69977TJn3vufdatXqVbG2f/TDH2qp7p1UiOPX/81YfB/5ZkUf/WI1+zT4alKsVkjzafHVpljNPg2+mhSrle2t8fTRL5a0T0NR/TvwoX8988xiq9tMmq85zcoUdL0tqtuitAasLarbopTtLWiINBfD/m3OqKAcbUHdFqU1YG1R3RalbG9BQ6S5GPZvc0YF5ciBekCX7c9RvqAWNIjZequt1cUXX6LO/+Wv1F/+8hc1qVf5bLP11npvoc31Kp5D1aWXXaa+/tUvq6OPOso4d1avWaPe+uZ/UCc970RTDg6fXXbZWV155VXGOfOPp71NveTFLzLXL/nNperd7zpDve41r1Zz5sxp0HvZ5Veom2++WV19zTUK5/jAubTD9turX1/wv+rII56hnUsL1TX6UbILdf0+/rF/Vccfd6y66KJL1IR2SEHnT//n58Y59Z+f+Lhx/GAvoiN0uXec9nZ1yy1/1I6px9QBT32q+tq531BT09Pqox/+oI4foL745a+oAw54qnr00Ud1+y5Xr3vtq9Wb3vgGdY92DN19zxJ1wnOfE2t7Q+UrikxpPfiUGtpij21RWsPYFtVtUcr2ljpwbOHsX5tGqecFoa5gpZCNoaBa2yKTzitUlVQFpSqsRIWq2F4hUCH0ClVJ6+LHCitRoap4OyWlwkpUqEpaFz9WWIkKVcXbKSkVVqJCVdK6+LHCSlSoKt5OSamwEhWqktbFjxVWokJVbjuvv2tKXfen1v4uevqLB1xxifHttttWfeqsT5qVMlgd9H8XXqi+893vqc995lOxMlids/feeynsQ4Q9f5YtX24cL5LxmKOPVvvtu69Emx6fffzx6in77x/lwwojN1x3/Q3G4XPlVVeZS6Njo+oOveLnuGOfZeIvedELzSqhgw86yDiTkA5H1VOfur9ZGYRM12sZh+rH1C66+GJTBquiliy5x5yj/Yv328+cP2X/xepS7Zzq2tBGe55hWmElKlQ10z73rMJKVKjKbeVMvMJKVKhqpn3uWYWVqFCV28qZeIWVKFFVBU6hEms/0xsddMb2dlBnlFAV9m8JUDtIJPu3gzqjhKqwf0uA2kEi2b8d1BmFVgXOoE//Ykr95N7WHEKozBkXaIfS+wfUoftkf8cKHgXDByuA/vkDH1J/0G8j23effUzbpvUqGziEsMfOv338E/rxq+ebx8k21Y+Z4ZqETTZZKKfR0b4eJdZPNttsMwWnjC9gZQ/C+MS42ky/hWzzzbcwcTz6tWiTTcw5/pk3b545H9SPhSHAIYQwNDhkjvLPlltsEcn4hze9Ue20447qj7feajbYljwDgwO6PY1rc6TtkofHVghwvmqF2uwpw/6dPX3VSk27r3+zfzO2wqudZWa+j9tZi+p0s73VsW6HJvZvO6hXp5P9Wx3rdmhi/7aDenU62b+lsz7srMlcDiGpIBxLWcLXvn6u3iPoNrOnEPYJuuuuP+kNph83j5AtWrSJ2TD67iVLjKiHHnrYOFGwMTVW1zz+xBOpKrbdZhu9queu1Dy+i5top8/DDz9sLh2oH//CqqT99t1HHXrIwWq7bbfRjp/sK6EgBKuX/q7bhP2IIGOu3n9o3ry5PtVRmtv26MJsPuH4nc2917zu7N/mjGZzDvZvYb03aPbBKtHZ5fZViaoaoEw7ikxUKuNcayiYMyIqREyJqkSFObK9GoPALxG6qBD4JaoSFexfTcBwFvglQhcVAr9EVaKC/cv+bbCFIiO05yJpJsvi969mI8ZWwqR5zs8mk+EHXsFKo/fqVUfNVgvtuusuZvPoVatqr4DHhs3YE2jPPfcwGp9/8knqU5/+rDn/zKf+26zaedtp7zCPbG291VZmBREu6oVE0bnJrP856aQT9QbP31IXXnSReufp71D768ez7PCVr35N4SMBzpv3vudderXSCep73z9PP/Z1o3rPu9+pHtV7A73rPe+LVgG9GSt9dqqVwgomhD79H954FoV6OuJve9tb1Oc+d7Z669v/0eRZsGCBevc7Tzf1lfJSrq+vJgMrjuy2f+kLZ5s2S77ZeOT41b1W4vgVmxAVEi9hqhDRDUf2r8Yh8EuELioEfomqRIU5sn+L69++dRNY/9rAt7CIGIgcRY0cC1PkCBJ9chR9fW6CUy5vVMTLMdKbV3CT8qJPjpFeN6GJnNDLIl6Okd5QQYH5RZ8cI71uQqDcZtlFvBwjvc0K5rwu+uQY6XUTcupxi4t4OUZ63YwFx0WfHCO9bkJVegvW44qTZsmR7XUJFRMXvnKMOBcjPlGK6JNjpNdNSJTQ2gURL8dIb2viMpcSfXKM9LoJmSVmyyji5RjpzVa85VyiT46RXjehZQ3+giJejpFef/bCUkWfHCO9bkKAxiEtZFAEecrBKYRHv4oKZ5/Ur7LuLzQ6OqomJia8bwjDCiK8wQsbQSPgbV3YOLrBCZNS6bVr13rlphQxdYFOeTwMj3GtW7cuWI6tA+1DW+D4yhrctmctV0S+CW1r42JvOQWKGDmKGfJ+ISdYp7jwlWPE2clXdFT0yTHS6yYUrFjEyzHSW7AeV5zok2Ok101wC+aMi3g5Rnpzym1WXPTJMdLrJjQTFHhdxMsx0hsoJzS76JNjpNdNCBVcz9/vethalBNUDI9Ey8dbEI2TBnozNE/EH0P0nnkmyB9JEGV7m7PLm0P6FkdvYP96saQl0p5rbxvh+E2zkmKucfw6HDlfOUCaRzlfcb5qbiWzIwccJUmvjB8YGIgcQmgNnENZHULInyQX15ICVuqIQwh5sKKnFTm2fMgMcQihrNt2W16l55yfg3Fzfub8HGw0LRbg70kHXIfPV2Y9aOLNu/HMoAU5gi4OTxb2qJuCKET0BytRxVnTIL2eH9nyBLRpoL5idtJxDrG9QhYdgk+OUO8v9i/t2VhR3R44fsPGFOermfHD+Vlsh/OzkMh85PdRd/++ymwIzNgTBPh7o6Vu5u8N/t6IGw5/b8SZNEnpwt8b/eKkyesbSELXr/e9GxlVavmTa9Sq1euNcwjOIKziEWdNVLYOOIrnOdF3pXBCrV4zopYvX6XWrR83q5PY3jxQ42XZv7UvF9qztg2O3/gAyZrC+Yrzc1ZbCcjH+Znzc2QuXTA/R22xTqa/NWTeKHbq7nn/FGEJ5WnnE+gCe+b8zPk5Gmi05whF8Al/Pxf2+7m20XRCD8gztXke2RifUGpM/7N23Xo1ONCnhoeG1JzhQdWvOxEfOzhR+1JL52P6oeNV+u0Mo/o5736tbO7wkH91Ul062xuOmf1Lexar4fgVEq0dOV9xfrYtp6u/jzyTRVe31+7Y+jnb64HSYhI2jf6x/mAD6byvrW+xCixWMQHPFJKrBqnfvx5lXT1+e629Hsth/3qgNEnq2PvBXrPnHO0d1M5Js3hGHD8eWU3MIP3y0CCePR40zx8PDQ3oTfgGFdIm9MsksJLHdQylS8t+FSs38Kz13OG52hml9eqj0iuU2N7sDLPkZP/SnrPYSWgejl/OV7AZfh+FjpzG/B07P9eryf5t7K/QWMf2b71ji+7fZnzEOXREwRtTN9PL67ObQNPfG/XmFW3PHTt+e629Jc1X7N8OuT/qNXvO0d6+tZONOzg0THrwoCA0JNaSsvyL4vqlBmpwSD8qhjeKwgkEx0z9CIdQg3adLqpQNorgPCCgrHE4aV1wPmG/G+2XMuJEvohriBul+kpDouRsfkRxtpf9G1mKNggxJWNaEokyZDtBWdozxy+spcGEjFG5iciVLaA45yvOV5G1aIMQ+zKmJZEoQ7YTlOV8xfkK1tJgQsao3ETkUirP28fw+FhS6HvDuPdSyNvHvAKY2FYC5u1j+MNvvRacr7J3B+dn3g+Ktcj4MfGU+Vnypx1RnL8nZ//vSe02mQkNBoJkJMQSZ/I3O0NR/VIDTam26bNesKNX79QcQyjb4BBCgr6GFUtm1RIKtxhQ1KxA0noHdQvhrUVDXZFunO0NAw5+7F/ac2Q12iA4fkqp/AAAAEAASURBVCMamU8wjjhfcX7m95EeCDEImYeRKcrvo+79PspuCUrhFfZJDqEQOZJ3Sns5r73uBv36ef1XTk/A9Vtvu91zJTnppptvSb5oXcGr3x/820MmBa+ev+fe+6yrPXzK3xstdT5/b/B+EIYT+6pFQiwxu4mhKL9/Z//372AOG8hkLWXLT6oE9SaRKTadnIvlmSSNnJPIFJtOzsXyTJJGzklkik0n52J5Jkkj5yQy1abDGXTGBXoJScHhoot/ox5/4gk1ovenPOboIxukP/TwIwrOmj/eerv+o2e/fi39sLn+h2uvN1sXTOm/fr7mVS9vKDOln1e6/Y471UEHHtCQjsj1N9yk7l5yj0mfmppUpzz/JHX11b9Tp770Req22+/QN17JK6NiwpiQiQDHbyZMuTORc26EmQSQcyZMuTN1I+eGlUK5CVEACZAACZAACZAACZAACVREQFYGFe0QgvPm0suuMHtivvbVr1Dj+vmIiy65VL89V561UGrZsmVmFdGuu+ysHnjgz+qmm/+oH6OYUIgfdNABassttohRWLt2rZEx7SyXx6qgDTfcQG266SK1xRab6z04h9Wf7l6iH8ecUhdqx9TdS+5Vq1atisljAgmQAAmQAAnkJUCnUF6CLE8CJEACJEACJEACJFA5ATwmVrQzCI14+JFH1A9/9FM1b9489ZxnH6v3w+xXxx/7TLXJJgvVD3/8U/XII4+atj5l/8VqQF878MCnqqE5Q3r1jz7WV/Pccdfd6sADnhJj8tjfHzdpTzyxNHZtnX5T78qVq9TwnDnacTSpVxsNqqOOPEKNjY2pxfvto3bffbdYGSaQAAmQAAmQQF4C2PGHgQRIgARIgARIgARIgAR6nsDatevU5VdcpYaGhtRfH/yb+UzrVUN9eFOKDnAQXXr5b9ULTzlJXakf7ZrU1/7vwov1Kp7V+sUm02rhwgXaoTOl1ukVQQsWbBzj+eijj+nHwAbN/kBYESRhQG+8idVCY2Oj+nG1pWbF0Y47bK/+tGSJGh0ZVY8+9neje/vttpUiPJIACZAACZBAIQToFCoEI4WQAAmQAAmQAAmQAAnMdgIbbDA/tg/Qd753nnrdK18Wa9ohBx1oHED2heXLn1RPrlihDnjq/urqa36vnvXMo6PL4+Pj6oE//0WdfNIJ6qKLL1VPO/xQ83iaZNhyyy3U/foxtOed8ByTNEevGNp2m20UVhVtvtlm5rEyycsjCZAACZAACRRFgE6hokhSDgmQAAmQAAmQAAmQQKEEDttbb+l5QaEiMwnDm77gwEHAyh/sJ4SwzdZbq/0X72vO//Lgg+qee+41+/8gAat8Dj/0UHNtn733Uj+67X/Mufxz8y23GufOpotq+wZhQ+ojnvE0uax+/4fr1OjoqN5D6BK9gfV6teceu+lH2ObrFURTZqPrpUuXK5SdO3duVIYnJEACJEACJJCXAPcUykuQ5UmABEiABEiABEiABEohcOg+/erU3Yt718vpLx7IVM9tttnarPbBip8+rR5HfHbacYeG8ov321e9TL8d7NSXvFCn1+q5YuVKdeVV1+h9huZEeZdo59Gf7r5bHX74ISbt8EMPNquC7r3vfhNfvXq1Gh6eo+bPn69e+uIX6hVCW+tHyCbVyOiIcUphlZE5dzaojhTwhARIgARIgARaJMCVQi2CYzESIAESIAESIAESIIHyCbz3Bf3qJ2dN5lIExxLkZAkPPfywWalj58UG0Ag44vEw7PeDAKfO0qXLzLn8M3d4WG255ZbqUO34Qfj9tdepJfrtYUcd8XSz0gdpG220kTru2GPUby69XD344EPqmcccqU5+3onqvB/9RO9pdKX6++NPqMMPO8S8yQzy9957T/MoGcoykAAJkAAJkECRBOgUKpImZZEACZAACZAACZAACRRKAKuFpr/Vr/D6+VYCHkGDjKxh2bInFVbuSNht113V49pJIwH7DsEptMnCheZtY7JhNDannjd/nnYIbaH23Wcvk91sOq0fBXv+SSea182LDByxX9BLX/widcONNym8or5PL0nabLNN1R76LWP44BwBG1bPGZpZdWQS+Q8JkAAJkAAJFESgb90k16EWxJJiSIAESIAESIAESIAEAggM6SeuBmtPXQWUYtZeJTAxrdS4/jCQAAmQAAkURyD7n02K00lJJEACJEACJEACJEACJEACJEACJEACJEACbSZAp1CbO4DqSYAESIAESIAESIAESIAESIAESIAESKAdBOgUagd16iQBEiABEiABEiABEiABEiABEiABEiCBNhOgU6jNHUD1JEACJEACJEACJEACJEACJEACJEACJNAOAqlvH5N93HLv/xcoKDC7n5sIkasZGiFFMmQVqf5joKDA7Ok65WqGRhSiF/oCBQVmlxY1HkWIpLK9QiI6CqIMaKIy3pNAQYHZvSojm5KrGRpRiF7oCxQUmF1a1HgUIZLK9gqJ6CiIMqCJynhPAgUFZveqjGxKrmZoRCF6oS9QUGB2aVHjUYRIKtsrJKKjIMqAJirjPQkUFJjdqzKyKbmaoRFpevE+sdQfo6KHRxJwCKTZlZM1OSpCJEdOexYxmY6iO4NOyAvM7q+CCJGrGXRLkQxZRar/GCgoMHu6TrmaoRGF6IW+QEGB2aVFjUcRIqlsr5CIjoIoA5qojPckUFBgdq/KyKbkaoZGZNWb6XsYwjLolOo1HPvsl5tN9yn9f+aQS6+jRYA4yd5oLr1sr5epLzEXZ0cg+9cBYkVzcaY9WyTTT3NxdkTTnh0gVjQXZ9qzRTL9NBdnRzTt2QFiRXNx7jF7trDxtIcJwInohlzjyBHG+coBYkVzce6x+Yr3v5bhNDnNZVeObI5fB4gVbcY5k1MowI9jqZbTWmnTSYGCArOLwoZjiHFIwXx62V7h2OyYj3NNOvu3GeXWHbo1ybTn5oRtUllz+/PRnv1c7NR88wbt2WaZdp6Pc00y7TmNcO1aPs7dYc9TMJR8IJqDZo6uIWDsxWlNEebD+cqB6onm49wd85UHS0IS25sAJpacz65q4jh+Y1hjCc04pzqFmhWOaUtLCBAWkDVNY+1agLCArNTrEgiAF5DV1RKPBwgLyBrX46YECAvI6mqJxwOEBWSN63FTAoQFZHW1xOMBwgKyxvW4KQHCArK6WuLxAGEBWeN63JQAYQFZXS3xeICwgKxxPW5KgLCArK6WeDxAWEDWuB43JUBYQFZXSzweICwga1yPmxIgLCCrqyUeDxAWkDWux00JEBaQ1dUSjwcIa5Z1Qv+iH2yWKV4DpvQYAdiJHQo1mQBhAVnt6vrPA4QFZPXrslMDhAVktTX4zwOEBWT167JTA4QFZLU1+M8DhAVk9euyUwOEBWS1NfjPA4QFZPXrslMDhAVktTX4zwOEBWT167JTA4RlzZrqFLJ1t3ruzN+tigkuR73ByFoqQM4tYQsuRM7ByFoqQM4tYQsuRM7ByFoqQM4tYQsuRM7ByGIFxjXEfv3LlW8/iaFhgkUAdlJ0KEFkpipSbyZMuTORc26EmQSQcyZMuTOVyblv3aT9kGfuulIACZAACZAACZAACZAACQQRgFNoOOufNIMkM3M3EMAqoTKcQt3Ahm0gARIggbwESl8pZCoobq2qv+xFr1CqSr/orUqftE/0Srwq/aK3Kn3SPtEr8ar0i96q9En7RK/Eq9IveqvSJ+0TvRKvSr/orUqftE/0Srwq/aK3Kn3SPtEr8ar0i96q9En7RK/Eq9IveqvSJ+0TvRKvSr/orUqftE/0Srwq/aK3Kn3SPtEr8QL0Y6+Y9fozpGXxUTIBy+OURgBnkG8vocLolGDPmeomegsYP5n0SSbRK/Gq9IveqvRJ+0SvxKvSL3qr0iftE70Sr0q/6K1Kn7RP9Eq8Kv2ityp90j7RK/GC9JfvFHIrLg3o1iPb2609W2sX+5f9200EaM/d1JvxtrB/40y6KaVL+9deDcJHyrrJYLO3BY4ghNKdQTU17fm3S8dvIky2NxFNV1xg/876bjR/jCmzHzGx91keLHNepkLpEq0Tf1UQ3XhIrk9/8AOjTPVsr+6AMgGzfw0B2rMYQrFHjl/Nk+O3WKOCNH4f8fu3eKtS3TxfRY4haz6yf9OZYYXfltb1EhDXRGL8atgNvyf1lTJ/T37h7LPVl845R512+unqH884w9Sj0t/PFbcXDWxr/2o7auhfHS+zf0179T+iE/FK+5ftZf/C6AoM3fx95MPUje3txyRc1q5CWnQUoMN8dAp0Tul/EvWioF04kpLtBEXxBY5jn961UL7MjV6dmKg3m/jEXHaV2V72b2QoMAzbOKIL2U5QlPasGWgQ+HD8ZrObZrlsk+R8xfkqshcYhm0c0YVsJyjK+YrzVTZryZ7LNslemK9sMr3Q3l7rX7a39jVjftfpfxJ/1wGUDcseGBnOUZTfR/w+ymAqQVlsk+ym+bkfThMT7BYGoUnP3F93yoyMjKvRsQkzuJEGF63tIU+XEn4VsuHlHxudViOjY2ZSGBioOYmMNLY3HKqnBPtX2xnt2WMZ+ZI4fpXifJXPhnylOV9xvvLZRd40zlecr/LaUFJ53HDw9zPvF5Lso5V0zlecr1qxm2Zl+Ptq9v++GvjAR848ExOE/r/+T7NuD7yuv9DWrR9XT654Uo2Njao5c4b1zU7NEwW9NRewOYkLTkiOZ/Sk6LITk0otXbpMf6GO6Ax9anh4yHijS2+vdoCxvZo4+7fRMGnPjTzSYhy/nK/yjJck28L3EednQ4fzs2MkeeyN8xXnqzz245giotdfd5264frr1VMPPFjtstvu/P1s+OKvuQmgE5I9aONJuizvF3h/FDeMnCn8vcH7/Vk2Xw2mTLEzS/ZyTLaQP6X/1DGplwf26U19av9lHGiplWsuA8Unp7RnSJ9MTePpv1QXVIHthV621wBP+4f9m0Yndo32zPHbYBQwCITc8zPnqxrIJv9yvmoCqPEy5yvOVw0WwfmqAUfWSG0c8fdkU16cn5sisjNwfub8bNtD9Igef082YEmLYAzh8cduut8fxKId77OcuqFiG2h4qwHLyebNn6PXVC0yj3PNmTNojgDpDQXphWw8frHpZpupyfEJNXfusFm5MqAbVXp75w1peGwv+1cToD17zSBLIsevnsM4X9VMpaBxZL6POD+bHzLeMVgQZ8jm+OX4jWysILvqtfELfkODA2qTRfw9GdmSfVKQXUEk5yvOV5FpFWRXvTZfsb2z378xiA24zI2reIAwKqwBEQ2SFk8mtXw4nubrH+JQgSXr0GlW7ugI9v2JQpF69QIhKJw3d0BN6C/VQV2HSZ1mlsxDT1l62V72rxg07VlIBB8xVjl+OV8ZwylyHHF+5vwss1GRdsX5ir+vSrAriMRvVf5+1hM37xeiP9SLqbV65O8r3g9GtlPk9yB/X83631eD8OyZZWPaMHwhIdmXNTVNnD/GF6N1Dkz31yc4vwZ/aqqKhovaD6SXdOmm6Q8cQlgdhDqYjbUhPEFBQnKD7CwRtpf9a9tJXruiPXP82vYk53ntSuRwvuJ8JbaAY1674nzF+cq2JznPa1cih/MV5yuxBRzz2hXnK85Xtj3JeV67EjmcrzhfiS3gmNeuypyvBuEsMY4a80+92vo8b6UhCSJlMNQlex7dshRDr63YuiTlsxxRTJxAkl9WBrG9mgg4C5gcR3Bm/7oALaMFZxu0dcktlRZHMdpzjRDHr+YAu0ozmIzXYFccvy4sa5CCsw3auuSWSoujGMdvjRDHr+YAu0ozmIzXYFccvy4sa5CCsw3auuSWSoujWDvGr9QJ+qXqDe0xGeRKLVPDdeuSyMpyRLF2tBd6ac9uD1mdqE/Zvy6f5nHas54/6mYE+zGn9bihp8/tabI5UX8OiOT4ddlYoMHZBm1dckulxVGszPl5sMV6pdW54Vqw/OACDeqiSEFiInlZT4L1Bhfw16QgMX7hKanBeoML+JUXJMYvPCU1WG9wAb/ygsT4haekBusNLuBXXpAYv/CU1GC9wQX8ygsS4xeekhqsN7iAX3lBYvzCU1KD9QYX8CsvSIxfeEpqsN7gAn7lBYnxC09JDdYbXMCvvCAxfuEpqcF6gwv4lRckxi88JTVYb3ABv/KCxPiFZ0jNrD9zxnSlBYlJV+K5Gqw3uIBHqU4qSIxfeEpqsN7gAn7lBYnxC09JDdYbXMCvvCAxfuEpqcF6gwv4lRckxi88JTVYb3ABv/KCxPiFp6QG6w0u4FdekBivcDw8xkACJEACJEACJEACJEACJEACJEACJEACJNBjBOgU6rEOZ3NJgARIgARIgARIgARIgARIgARIgARIAAToFKIdkAAJkAAJkAAJkAAJkAAJkAAJkAAJkEAPEqBTqAc7nU0mARIgARIgARIgARIgARIgARIgARIgATqFaAMkQAIkQAIkQAIkQAIkQAIkQAIkQAIk0IME6BTqwU5nk0mABEiABEiABEiABEiABEiABEiABEiATiHaAAmQAAmQAAmQAAmQAAmQAAmQAAmQAAn0IAE6hXqw09lkEiABEiABEiABEiABEiABEiABEiABEqBTiDZAAiRAAiRAAiRAAiRAAiRAAiRAAiRAAj1IgE6hHux0NpkESIAESIAESIAESIAESIAESIAESIAE6BSiDZAACZAACZAACZAACZAACZAACZAACZBADxKgU6gHO51NJgESIAESIAESIAESIAESIAESIAESIAE6hWgDJEACJEACJEACJEACJEACJEACJEACJNCDBAa7ts3TCS3rS0if7clsb60H2b+z3ZJr9ac90567w5Jpz3Y/cn62aczec87Ptb6jPc9eG7ZrTnumPdv2MNvPac+05xZtuAKnkM86y/8m9Wnw1aRFbinFfFp8tUkR0cIlnwZfTVoQ3aSIT4uvNk3EBF72afDVJFBshuw+Lb7aZBAVkMWnwVeTAJEZs/q0+GqTUVzGbD4NvppkFBeQzafFV5sAkRmy+jT4apJBVGAWnxZfbQLFNsnu0+CrSRMxLVz2afHVpgXRKUV8Gnw1SRHR4iWfFl9tWhSfUMynwVeThOI5kn1afLXJocJT1KfBVxNP0ZxJPi2+2uRU4xT3afDVxClWQNSnxVebAlRZInwafDWxihR4Ck22Nl9tClSnRfk02DUoVpstzafFVxu7TP5znwZfTfJrciX4tPhq45bLF/dp8NUknxZfaZ8WX218ZVtP82nw1aR1DUklfVp8tUkq31q6T4OvJq1JTyvl0+KrTZqM8Gs+Db6ahEtuVsKnxVebZnLCrvs0+GoSJrWWuwKnkFstX3PcPPnjXkDVqHYqX41StldjrwY1+9chUEaU9kx7LsOu4jKrmTRoz7TnuO2VkUJ7LoMqxy/Hbxl2FZfJ8Rtnkj+F41czrMa0nM6qRin7t7j+HZye9uJ0OjZP1JYPA7HjeeS2ULZk1X197gBw4y3UOWuRClUlV6nCSlSoiu0VAhVCr1CVtC5+rLASFaqKt1NSKqxEhaqkdfFjhZWoUFW8nZJSYSUqVCWtix8rrESFquLtlJQKK1GhKmld/FhhJSpUFW+npFRYiQpVSevixworUaGqeDslpcJKVKhKWhc/VliJClXF2ykpFVaiQlXSuvixwkpUqCreTkmpsBIlqqpgpVCJtZe+6JBj3MEW90LFHUcdUvmWq9E7/VtDxPa2bCqzoiD7d1Z0U8uVZP+2jG5WFGT/zopuarmSvda/AIU290q7e6WdMgDYXiHRnUf2b3f2q7Sq+/q3e98+FvfHSC+29QjHkXwKrUiHtrfQNtrC2F6bRveds3+7r0/tFrF/bRrdd87+7b4+tVvE/rVpdN85+7f7+tRuEfvXptF95+zf7utTu0Ul9u+geZqrRGeXW/cSVdnI1LSjyESlMs61hoI5I6JCxKSpkpVFRawemg3tFSZFHNleTVGMLc3IcsIWFSKmRFWiwhzZvxqDwC8RuqgQ+CWqEhXsX03AcBb4JUIXFQK/RFWigv3L/m2whSIjvWbPwk7azfErRIo98veG5lmBkYkK6T3as5Ao9kh7pj23alGl7ikkE4AcMQHgvOyJQPTJMdIrCa3SalJOxMsx0os2x/YbmhGW1zkk+uRo653RUvyZ6JMj9RbPGBKFrxzJmZyLICD2JEfaVRFU4zKErxzJOc6oiBThK0dyLoJqXIbwlSM5xxkVmQLO+JBzkVRnZIkdy5GcZ9gUeSZ85UjORdKdkSV85UjOM2yKPBO+cuwWzv2uR7FIaEmysLe1fLx5QFlIezM0T4QPZmqqlq+//pAcou1q79TUtK5P7dGxWO3r7RXnUOx6hoROa2+v9S/baxlpF45f9i/71yIQfMr5WX8fa2rt+v7l+LVMlvOzBSPbKccvx282S8mfS+YqHL2B49eLJS2R45fjN80+irw228evWSmERmDQxIPMSt6L8exOiimNf8RBo4/ioIE+SI1NfKhLXY5od8Q2jaIc5PZrQThOTNZkQifi+FTd3n5dGWmvOH/M6iHUxWovrqWtKkpqPNo0oJ1f+qAm9a9vyATrMttr6lJnCQccfvBX0b/Qy/ayf439NfwD60eQEVWLBf1Leza4ypyfoYDjl+M3Pi45fuNMmqRwvjKAuna+0q3Dt9k0f1/VOMgUIcMC9l8/dy9JlixHfh/x+yhuJ2JRYmHxHE1TYJ+6OO+P6vOYIBVw4FM/dy9JlixHjt/ixu+gXrtSY44/40nvRL2Qp5v0F5mWAyfBuvVKrV2zRg0MDagFG81TAwPacaEdNQhw3ERBF0BUtMoxup7xxJTTgjAQ16wdURNjY2ruvHlq/ryhmTaW3d61a9VgQ3trrUF7xekzrVcOmeY7HqqWHENWe8d1e+e57YV6oywjxIzZ+nVfon/X6P5tbG9NgK9/M4pOz8b2Ntoz+zfdXjJepT03n58zokzPxvHL8cvvo/QxkuEq56vunq9gAvij5vIn+fsKLPh7EhQKCPz+5fcvv39zD6Ru/P4dhGPChPrBptQH95sOrS75RumxcaVGxybUmnXr1OBAn5ozOKjmDA+ayR0TfF2F0dOnC9jVsM9Nhoz/SLnRsWm1atUqNTo6qjbRuobnaL31R8kaFNXlhrRXHDtulcYn0OYJtRbt1Q202ztQ/0YTp4+MSYm7skLjY+O6vatXq9GREd3OPjV3eGimvR5h4I3Qav+i7Ex715v+HR4aauhf5JEg7ZV43iPby/61bYj2bNPIds7xy/lKLIXzs5Bo7cjvI34f2ZZTxPcR5E3qpd9r9V/e8PuZv69mCHO+mmHRyhnnK85Xtt0UMV/x9+Ts/z05OHdQL/WwQpETLXwOWAQzR7vT5g4s0CuE+rV3dtg4KuCLgq4i9UkzoBefobla92aL9IqhSTU8PKwGB/tj+orUb9o7qPX2zVHD/RvX2ztHH/uU295RPOMFBvVVQnAMGVj1RoQ6irAqCrLmDs/VPx4GtGNGN77+OBnaKI6fItuLqg7p9g4MDOrPgBrSK6PmaMcb0vDXLbS57gert6q4A9vL/oU10Z7zjSmOX85X+SzIX5rzM+dnWAbnZ//4CEnt03/J5O8r/p4MsZlmeTk/c36GjXB+bjZS0q934+9nvTjGXquTDoBXiyOwZlx7TeAH0iLhzNGnqs/xoIjDqJlWlDUOGO0EgjMGz59rP01NtlO4YRJAQYSGxFpSln9RfEKvjBrUT+WZxwF1AlZiwaJwRHMarEuniyqUjSJZlFl5UJbtZf/CJMSejHkYo3ITzZVM/6A47ZnjNzIWbRBiX8a0JBJlyHaCspyvOF/BWhpMyBiVm4hc2QKKc77q3vnqC2efrb50zjnqtDNOV2/7xzN0Q/n7ir8na3ODmToaJpNscwZyoSy/j/h9BFtoMCFjVG4icmULKM7vo9n/faRdBwztICArgTCQsK+TcQzpbzzbESR5mtUPA9v4k7QwvRhKR/wlGiYAZIkl+MslpaK4fhrQfMtgk2sJ9cVPjQ4hXNQFZN6RvK0coZftjZOLdWcsIV4mLQXF2b/abOscG36QApxOpz2nWZD/GnBy/MbZ1M1s5kIsYeZSljMU5/jl+I1sRRsE56uIRuYTjKN2zFdRBXWn8feVtl3XeGnPkYmEnLTLnqGX30f8PopsleM3QhFyUvb4pVMopDcKzpvV6ZNFLQylHYF6q6FOzuRcBgHaVRlU4zLJOc6kjBRyLoNqXCY5x5mUmVI176r1CTvqFRLlHsm5XL4inZyFRLlHci6Or7W+ozihlNScgDy1l3QUCXJd4jySAAmQAAmQAAmQAAmQAAmQAAmQAAmQQBEE6BQqgmKLMujwaREci5EACZAACZAACZAACZAACZAACZAACeQmQKdQboStCbAdQvZ5a9JYigRIgARIgARIgARIgARIgARIgARIgATCCNApFMar8Ny2Q0jO5Vi4MgokARIgARIgARIgARIgARIgARIgARIggToBOoXaaAp0/rQRPlWTAAmQAAmQAAmQAAmQAAmQAAmQQI8ToFOoTQZAh1CbwFMtCZAACZAACZAACZAACZAACZAACZCAIUCnUIcYAp1EHdIRrAYJkAAJkAAJkAAJkAAJkAAJkAAJ9AgBOoVmQUfTYTQLOolVJAESIAESIAESIAESIAESIAESIIFZRoBOoVnWYawuCZAACZAACZAACZAACZAACZAACZAACRRBgE6hIihSBgmQAAmQAAmQAAmQAAmQAAmQAAmQAAnMMgJ0CnVAh/HxsA7oBFaBBEiABEiABEiABEiABEiABEiABHqMAJ1CPdbhbC4JkAAJkAAJkAAJkAAJkAAJkAAJkAAJgACdQrQDEiABEiABEiABEiABEiABEiABEiABEuhBAoM92OaOa/J0vUZ9eWomQkRGBmFSJENWkeo/BgoKzJ6uU65maEQheqEvUFBgdmlR41GESCrbKySioyDKgCYq4z0JFBSY3asysim5mqERheiFvkBBgdmlRY1HESKpbK+QiI6CKAOaqIz3JFBQYHavysim5GqGRhSiF/oCBQVmlxY1HkWIpLK9QiI6CqIMaKIy3pNAQYHZvSojm5KrGRpRiF7RB2EZdCJ7IXpFiOjPoFuKZMgqUv3HQEGB2dN1ytUMjShEL/QFCgrMLi1qPIoQSWV7hUR0FEQZ0ERlvCeBggKze1VGNiVXMzSiEL3QFygoMLu0qPEoQiSV7RUS0VEQNUNDp1CErP0n6LRmHZZUS7ecGEBSfjs9l95pS9N0n9L/Zw659DparFo4V+LRXHrZ3jjQhJRcnB2Z7F8HiBXNxZn2bJFMP83F2RFNe3aAWNFcnGnPFsn001ycHdG0ZweIFc3DGWL0ryrzwY8r/r6ywDqneTi7P1tpzw5cK5qLM+dni2T6aS7OjmjaswPEiubi3IX2TKeQZRztPnW/mFqpT8jgF/n59NZKG72BggKzS3UbjmxvAw5vJB9n9q8XqicxH+eaQNqzB6yTlI8z7dnBmRjNx7kmlvaciDe6kI8z7TkC2eQkH+ea8OrtGXprbqHQvxjOzvbSnpuYcXSZ/RuhyHxS/filPWftHNpzVlIz+cqwZzqFZvi27QyDoYgBYRoQICgga3M2AcICslKvSyAAXkBWV0s8HiAsIGtcj5sSICwgq6slHg8QFpA1rsdNCRAWkNXVEo8HCAvIGtfjpgQIC8jqaonHA4QFZI3rcVMChAVkdbXE4wHCArLG9bgpAcICsrpa4vEAYQFZ43rclABhAVldLfF4gLCArHE9bkqAsICsrpZ4PEBYQNa4HjclQFhAVldLPB4gLCBrXI+bEiAsIKurJR4PEBaQNa7HTQkQFpDV1RKPBwgLyBrX46YECAvI6mqJxwOEBWSN63FTAoQFZHW1xOMBwgKyxvW4KQHCArK6WuLxAGEBWeN63JQAYQFZXS3xeICwgKxxPW5KgLCsWekUciHP0ngrHsMimkq9RVBsLoOcmzMqIgc5F0GxuQxybs6oiBzkXATF5jLIuTmjInL0Gmcwa0eb26GzXW2lXhCoJtCuyLkMArSr4qjSKVQcy/ZKyuoGLLqW1Fs0Ub88cvZzKTqVnIsm6pdHzn4uRaeSc9FE/fLI2c+l6NRe41w0v6zyeo0z25vVMvLlI+d8/LKWJuespPLl60LOdArlM4nOKu26S6syWNFblT6hLnolXpV+0VuVPmmf6JV4VfpFb1X6pH2iV+JV6Re9VemT9oleiVelX/RWpU/aJ3olXpV+0VuVPmmf6JV4VfpFb1X6pH2iV+JV6Re9VemT9oleiVelX/RWpU/aJ3olXpV+0VuVPmmf6JV4lfqhu0p9aGO72it62V6xtHKOwlmkV8Vb9FalT9oneiVelX7RW5U+aZ/olXhV+kVvVfqkfaJX4lXpF71V6ZP2iV6JF6S/X+TxSAItEXANsyUhs6gQ2zuLOquFqrJ/W4A2i4qwf2dRZ7VQVfZvC9BmUZFe699Z1DWFVLXX+pftLcRsOlYI+7dju6aQinVh/9IpVIhldIAQ7SWc0tXAK0vxMefaYAtyHiY20NZpxkfZCqUm0kZ9ZHsFSvFH9m/xTL0Sac8Kb/cse/qgPXutr/hE2jPtuXiraviN0wu/NwSh+V2HSNkTpCjk+OX4FVso8Mjv3wJhponi+OX4TbOPlGt0CqXAqewSft2YXzitaUTRKT3b4tinexTnfZgUdAI+uNkqI9hiocN8tCKjV/+TqBcF7cKBlUPRXm1vf4/1L9vb3eOX/cv+DZz+E7PbXynt+j6iPdOeEw00xwXaczW/Jzl+OX5zDNOGovw+0rakiVR5P8jxm3/80inUMIxnbwROoH79GRudViOjY8ZpMjBQcxKZVtkzVIHNlEE4MjKuRscmzCyANFQGdSor9Gp7R3usf9ne+gjq0vHL/mX/Fvkd0e7vI9oz7blIe4YsOITa9fuK9kx7LtKeOT/rW6MK7484fjl+Q8cvnUKhxDo1v3bATEwqtXTZMrVixUq1Zs0682MCK2rKXHI8reWv1w6h5U8+qfWuUGNjkzMrhIxTqKS7WbaX/VvCWKQ9c/yWYFZmDub8XFvhye+j4iyM81V3z1ewlHE9cfD3lQbB35PFTRz8/czfz8VZUySJ30ez//uIbx+LzLkDTuA/MV98rdUFxSentGdIn0xhdOqQKhIXEXLqxPLASf1PX59e4mv+q4lt+m9q5ZqWNm1je1O6j/3b3IicHEBGe3agJEU5fpPIeNOBi/MV56vIODg/RyjkZM4Dt6uBS3+olD4mhfn6wuZJF0tO37hk+bb49+vI+1+8l1JPXK7U2frThlBle6V5if27y2Kldt5XrT/+VZK18cjvo0YeTWL8PuL9UYOJ8PuoAUeWCJB12/1C37QOWRrPPMUSWLF+VDtR9CNW5j/9QxnPQyGOZ8B0MHFLpRu3LhnnCBw7MM5RvVJncnxCzZ07rIbqLj/0sPbX6H+sUkirR7GJYSvBiNRlx7UfCquFUPX584bMEXUxTTHmZSmw9UKpdSlrHaC3d9s7pft3vIf6l+3t7vHL/mX/6vnc/l5o4TsBXwn4XsDXaHu/j2jPrdrzvN+cp9Rl2iHEQAJpBI59hXYMvbKWw543kNLC3NH4e5Ljt9Xxm9ZluMb5uR33R7Rn2nNt8MnU2Ox+n06hZjNZSdeNU0h/g/XjV6wOeZ1Ck1gYpEVhH6EJvbXPoH4wUDacxmxsHDSRVTR+dzYzElNBzz+Y5OH8QRPMUcfxvCwWKWGlEtpW83HVFSOvJQflGxKsa2mnKNer7R3U/at9fj3Tv2yvNnZt8N06ftm/7F/Yd8P3gh1J+yJwruF7od3fR7Tn1u153r+c7PQooyTgJzD5lv9QYzsvbpw3kLWFucP+Pcnxqxny90aDGc3m+yPaM+059PcVHx/DF0kHBHwxtfB9FtUcgx+OEjhk4BCCdxQ3kngbGYzCfKLcMye4VESoOX/qbdA6B6b76+3xa/CnZq9Jr7YXjr5e6l+2V4+JLh6/7F/2rz3r5/1eEFnt+j6iPbdmz2aVkHQejyQQSCDvvCG/Jzl+NXj+3oisL69diSB+H1VzP8jxm3/8cqWQjNqKj/bjY1CNlUJ4dEweE5OjVMuNS7oc0yavPM4mkZ90DNZrF8hRMVuMW7ccYl1RsXiwXrtAjorZYtxK5RDriorFg/XaBXJUzBbjViqHWFdULB6s1y6Qo2K2GLdSOcS6omLxYL12gRwVs8W4lcoh1hUViwfrtQvkqJgtxq1UDrGuqFg8WK9dIEfFbDFupXKIdUXF4sF67QI5KmaLcSuVQ6wrKhYP1msXyFExW4xbqVbFDumCg60WdivBeNcSmNDGNy4GKEe0Noft2GJccDnEuqJi8WC9doEcFbPFuJXKIdYVFYsH67UL5KiYLcatVA6xrqhYPFivXSBHxWwxbqVyiHVFxeLBeu0COSpmi3ErlUOsKyoWD9ZrF8hRMVuMW6kcYo0orhRyiVYdlx6UY4v6cxZvUWsL38MFVbQgMcHtDtYbXMBfpYLE+IWnpAbrDS7gV16QGL/wlNRgvcEF/MoLEuMXnpIarDe4gF95QWL8wlNSg/UGF/ArL0iMX3hKarDe4AJ+5QWJ8QtPSQ3WG1zAr7wgMX7hKanBeoML+JUXJKZBOB1CDTgYSSAAO4mcQgUZYkFiEmqcnBysN7iAX3dBYvzCU1KD9QYX8CsvSIxfeEpqsN7gAn7lBYnxC09JDdYbXMCvvCAxfuEpqcF6gwv4lRckxiscDxcxkAAJkAAJkAAJkAAJkEDlBOTxisoVU+GsJEB7mZXdxkqTAAl0OAE6hTq8g1g9EiABEiABEiABEuhWAnpLRAYSIAESIAESIIE2EqBTqI3wqZoESIAESIAESIAESIAESCAbAToRs3FiLhIgARIIIUCnUAgt5iUBEiABEiABEiABEiABEiABEiABEiCBLiFAp1CXdCSbQQIkQAIkQAIkQAIk0B4Cq1evVk8+uaJB+ZR+T/LSpcsa0hghARIgARIggU4jwLePdVqPsD4kQAIkQAIkQAIkQAJtJXDWpz6jRkZHUuvwipe/TO22664mz2WXX6FWrlypXvfa1yg4iH59wf+q5zz7ePXBD39Efe0rX0qVw4skQAIkQAIk0E4CdAq1kz51kwAJkAAJkAAJkAAJdByBu5csUa97zavVnOE53rr9/Oe/UCuclUHr169Xq1atVnfffbf6k/7AKcRAAiRAAiRAAp1OgE6hTu8h1o8ESIAESIAESIAESKByAnAM3XjTzWq77bZV2267rbrtttvUfvvup+648w61fv2ISUelvvmt76g1a1aru/50txobG1MbbriRWrZsufr6N76pxsfH1ec+f46p+3777auOO/ZZlbeDCkmABEiABEggjQCdQml0eI0ESIAESIAESIAESKAnCbzglOerhQsXqosv+Y3ae6+91NDgkJqYGFdbbL6FeuELTlFbbbWV4XLf/fepPXbfXR16yCHq2uuuM46gl7/sVDU9PaXuvfc+ddihh5h8m2+xeU9yZKNJgARIgAQ6mwA3mu7s/mHtSIAESIAESIAESIAEKiaATaL/cO11xiG0/Xbbqccff1yN6lVAQ0Nz9KqgNepzZ5+jHxVbpUZHR9WKFSuN82hgoF+d8vyT1Y477GAeHTvk4IPVwMCAetrTDjcf2X+o4qZQHQmQAAmQAAmkEqBTKBUPL5IACZAACZAACZAACfQSATwChjAyMqIfF9tHbbnlFurRRx9Txz7rmer6G25QT3/609Tw8LDZWHpyclK99jWvivA878QTzCqiG268Uf3x1lsVruMcn+XLl0f5eEICJEACJEACnUKAj491Sk+wHiRAAiRAAiRAAiRAAskE7r9NKXxaCc9+deZS2DB6aGhIHXnkEeqssz6tVum3ie2++24KewztssvO6s677tJ7DG2jntQrhLbffnt1+GGHqV/88leR/IcfeUTdc8+95u1lWHH0u9/9wVxbuGChWrRoUZSPJyRAAiRAAiTQCQToFOqEXmAdSIAESIAESIAESIAE/ATgCLr0PO0QutN/PUvqpT9W6q2fUGrX/ZvmfuSRR9Xg4KD6/NlfUCv0a+axn9B999+vttl6a7XBBhuovfbaU/31r39VDzzwgNp/8X4xeSee8FyFz7Jly9QHPvQR9a53nh7LwwQSIAESIAES6BQCfHysU3oibz2mtQDfJ6/cTi3vayvSujWwvTX7Zv92BwHaM+25Oyy51grac/n2/NUP5XMIib3BsZQh3HzLLerpeh+gl5/6UtXf36822WQTc9xoo43Uar2f0MTEhJo/fwP9lrENM0hjlo4mwPFb/vhtpwGwf9m/7bS/onWXaM9cKVR0Z7VJXp9HL+ym/ODT4qtNsTXxafDVpFitkObT4qtNsZp9Gnw1KVYr21vj6aNfLGmfBvZvsYxr0nxUffSL1e3T4KtJsVohzafFV5tiNfs0+GpSrFa2t8bTR79Y0j4NpfbvJd8vrgFYaYRVR01WC9108y3qzW96o1kVdMJzn6vWrVtrnEIrVq5QDz30sDpKP1Z26623qYMPOjBWtzvuvFMtWXKPSV+7dq15E9nPfn6+ic+dO6yed+KJsTJMaB+Byu05aqpv1PhqExUo5MSnwVeTQpQ1CPFp8dWmoVDuiE+Drya5FcUE+LT4ahMrmCvBp8FXk1xKvIV9Wny18RZuOdGnwVeTlhUkFvRp8dUmUUBLF3wafDVpRfjgyMRkK+VYpsMIeA3CZzml17sapWyv7shqUDsWU41S9i/71zG8kqK05zLAcvxy/JZhV4XJbOIUwh5AW+tXze+55x7quutvUHPmDKnNNtte7bffvmrjjTbWK4TmqS99+atq3rx5au+994qqNXfuXPMmsqnJKbO5NC4g7YTnPieKT+prDJ1FgPOV7o9qvgqdjq9GKfuX/esYXknR2W/PfcvXjXrHS0nEKLZOoE//Bbevr898kCTnOErcnNT/kXQ7rTPObfOpZkC0t91sb3v5l62d/Vs24fbKZ/+2l3/Z2tm/ZRMuQ/6Q/ukwmPbzASuFsB9QUeG4lykVsOl0UWoppxgCE3qYj9tDvRixbZBiNyJtALShaqWoZHtLwdoxQtm/HdMVLVaEj4+1CI7FhEAvfJFJW3Fke20a3XfO/u2+PrVbxP61aXTfOfu3+/qULSKBbiXA+apbe7bWLvYv+3d2EaBTaHb1V3Jt4aDtpfmH7U22hW64wv7thl5MbgP7N5lNN1xh/3ZDLya3odP6d9d9/XXN86Yyv0SmdiOBTrPnshmzvWUTbq989m97+ZetvcT+pVOo7M6rSP604xAyURgOgnOtlljMv6JCpJWoSlSYI9urMQj8EqGLCoFfoipRwf7VBAxngV8idFEh8EtUJSrYv+zfBlsoMkJ7LpJmsqx2ff96ayQOoV0XN16+//bGOGMkkECgXfbM+SqhQwpOZv9qoGJsJf7IExXSfSWqEhXmyP4trn/pFGowrdkZkYEoRwxEnJc9IEWfHKm3HPsRvnIkZ3IugoDYkxxpV0VQjcsQvnIk5zijIlKErxzJuQiqcRnCV45VcY7XpJ5irwaCY2hnyzlkX0sUwAu9TEDsWI5V2bPokyP1lmOFwleO5EzORRAQe5Jjt9gVnUJFWEdeGbZVtSgL+1NP6hfJ9ffXPvrlGQrvuEA6jLXKMC3t0Urr+2Y3qpfrOSrG9rJ/G42qvBjt2WHL8esAaR7lfMX5qrmVFJOj1+ariJp51bx+3bz6UZTEkx4gwO+j4E7m9xG/j4KNpsUCvfZ9NNvbq10IDG0loL/Q4Bv5f/beA16Wosz7f+bkc7n3cgM5XkAuGckiQUCCggrqGhB1za7581/ja1jT+xpWN5rdVdcVMLsugoJgQkUBCZekRIlKvDmdfP7PUzPPnJru6p6u6eqeMzO/hrldXV31/Lq+9XR1z3Oqe3LER8zhiyP213pTf/FUAkSy2E5azdF/5WqqV1TN81zXjn9WglBiqtaYSi04FbNWK4/2xsikZqB/q8FOgQR/VleRE04+OZba+Yjzd86/GmhivGrAkXUD49WcP2G8Uq8JMF6pqaS1Pkr2dx/jXxc7N6lUpnz5WfpNmzYnfiYnJ+t2Vt10c/0n5yVz9eo19NBDf6nvR6IgAhifWwKL8Rnjc9xxAozPtfMR95Nz/tXAuQPGK8wUauixkjfEQfJGR/SQ2Y7MDtq0eYwmJyZodHSUFowOzkWb5HwPpaWavO7rJ9qylXU3baKBwX7adtEo9XOezFqSpc/WrJ0Q1T05/0V70b+2b+V0J60Of8b5q74g8bZgLobxCuNVMGeqe2jPXX/nWu5IaUBIgkH35n+f0COPPEo//+WVtOsuO8fE1q1fT8uXL6eTTjze7Lvttj/RgQccQGNj4/SjS35Chx58ED2xZg3tttuusbrICEQA43PrIHE9wvUI16PWz59azW78voCgUG63aN1A6HNyYnKWNmzcSONjY/wYWYVGhgfN42RJR1iRQBEv0Zd0VXOz/Ts5RTTB/2zmyNBAf4WGBwdpaHjABIMaAkJsDu3NxjSpFPoX/mz7Bs5fm0a2NMYrjM/qKbgeKYnW1u24HqUeqTw+JoGhgC+YnuUpFY88+hgNDQ3yH7v6aXx8nIaHh2n9+g20z957m8O5cdVNZv2TS39K++23r0k/+Je/8B/ottBNN99K22yzgJ60T7WsHv+F3/ouPfusZ9C2226rWfTbq37PfySs0PHHHVvPy5JYzcEnCWAvX77MFP/GBd8y6+ojQjO04w470BmnP90cfxZ7rjLf/f4P6QQ+rl0cATJX+TLycP7mo9yO8xfXX1x/1Wtx/iqJ1tZFnb8ICrXWH/OulswSkhuKkeERDs70c2BmhKfpVB8ukZNPAz+hT8RB9qD+/gFzwzHIM4WGhgZI8qZ4ppA8ThYNDIUCh/aif8WX4M/5ziicvxiv8nmQuzbGZ4zP4hmhx2e3t1m5gV8svWzZUtpl553plltvMzOGRkZG+NGw1bT3XivooAP3N8L3/Plesx4eGaarr/kD7b77brSV/0g2OzNNW7dupUEZZDMusy08DnznnXebR9dOOP6pdZVznnOWCTjJI27f+8H/0h133sUzmarHWy/kmWjl2Dwl2lYc4xXGK3G+0OMV7q9wf1XEoFbkeJX9alVEy3rcpkzU0UHITreKZXiIAzRLFvHNCK+5Z8W22nfZnE3d66oRz+Mn1Yj/EMbBKP4rlQSBOBA1xbOHzAuvWdx+n4LdRknnXdBe9K/tQ/Bnm0a2NM5fjFfqKRiflURra1yPir8etdYzrdWa4hsZmR100823mNk+8n6hickJTm9D9953H+3BwR8JGg0PDfPs7HE65qgj6Yqf/4JOe/rJJI+TyeNjxz7l6JbEH3jwITNzaFbu/nk54/RTafvttzMzj2659Va+v+rnVwSM0Mp9n0R33nU332fN0oP8DqNnnfmMBr1Bnrm9gF8lMD4+YQJWEqA68ojDOVg1Rj+86GI679wX0rV/uJ4ef+IJWsPHu3LlvrT3ihXcjl/yfdwUjXCg6+xnn2Vsrlp1C13566s4ADVFp5x8Eu226y70Y54dtW7tOv4D4AwHzXahp59yEj9CN0aX/OQympiYNMclDPbZe6+G4wqxgfEqH0WMV8WPV7i/wv2VnqWdMl4hKKQ91o61BE34I0uedwuJCTMjh71ugIMyMkPItdSk5nbFMuZ2ZUlJ9QHxINbVl1xLPW2LHRCSfIlByYmRdxFdtDdOMdadsYx4nbQcqY7+hT/XfYQdAudvnUbmhJxHGK/iuGLDUywjXictR6pjvOre8Sqt74vYN87f6IaHhszjYn38V7YpDoYs3GYhjfPsm+XLltNWDn4sXLiQTnraCXQxv0do0aJFdDQHhi67/Ge0YcNG825HSa/Ycw/af7+VXoe43XbL6XnnPMcEfv5w3Q1046qbzSNgt/KMpadzQEYe41rP7zWSx8/WrVtvgi/2TKGrfncNDfIjb2s5YCOPvEnw6PobbuRjqI7gsxzE0RdlT3A7JSD0/OeeY4Jf8mjbQQceQIc9+RDzwmyZHSWL2JMgkjwut4qPR4JCxx5ztHlsTV7K/Y0Lvsnvl9xqXrAts9al7CQ/LyT2C1n4hMf1yJ+sjJO4HsW5xS4/sYx4nbQcqY7rUfdej7q1fxEUSjurO2hfzvGr5ZZCt2V0XhXB2QtXy4XBuWV0XhXB2QtXy4XBuWV0XhXB2QuXf+F9DiX62Xf86+WosUUeAeOow8BAP03xDKEZfh5+ZGTGvDdxmh8Nk18Xk0eyFi9eVFfZcccdaJSDKH++9z4TGJIXTkvgyHeR2Te/u/oaGhocInln0PJl1fcFHX30kfSrX/+WZwpVaL+VK+nww5iLY9lzz93NjCaZJSQBpj79Kdpa2ZnIX+z23GMPExCSGUcSRDrwgP1MSX1PkWxoYGvp0qWkj8xJgGgdB8AGeUaV8NnC71FaseeeZvbSBd/8Ni3ZdgmdeMLcY201+Xm3wvlbTpeAMzgXQQB+FY5qwpyScAKwBAIgAAIgAAIgAAIgAAItEZCgkP66WEsGIpXOeFkkI74pQR95VEpmugzxjCFZy+exxx+nIw8/jPdVH+2yay7kR8tkFs/SJUtom4XVtB00sstG0zITZ4If85JFZgbttWIFnc3vBpKZRrqIbZmBc/ZznsWPkt1sHtWSX5rduHGTFjFrmcUj9XbYYft6QEjeebRhQ7Xc/fc9wAGvuePXoJHM8JHZUXfd/WdjZyP/qqwuss9eZKbSQ/xC7Rc872x6xhmn1nfNcMDszGecTi8771yeybSYZKaTPFK2dt06U2b16jXMcbIhr14ZCRAAARAAgbYRwEyhtqGHMAiAAAiAAAiAAAiAQFMCp53Hvyz2/qbFUgtIYEnsZFhkhs6LX/h8uvW2P9Kjjz5OG2gjbd68mWvOmnfwLOSgj71s2bqFy95nsuTn7GX7hhurv0x2xOFPtos60yuf9CR+F8+l9JNLL6cDeKbOb377Ow7O3GNmKsmMIVku++kV5pEseVxLZuHIo1378XuA/vSn2+n8C7/Ns3KOq9qOBHAkc38ud9HFPyF5PGwxP+pmnuevlm5IynuB5J1CN9y4ih8zqtDfPP8cLdWwXrx4sXlkTuz18/sD5H1FEjh68MG/0NXX/sE8djc+PkZPO/EE86JreVm3BIou/vGl5l1LMiNJ8xoMYwMEQAAEQKAtBCprtoyHeCy3LQffyaIVvrGQC6j+9UXT9rbdPs2385AGARAAARAAARAAgU4mMMiTUAYaJ6IkN+fyC5L3pe0xs43cj1tFq8n7dq6/YRVJMEcCFwsWLKh9Rvn9O2vp9tvvpBNPPI6W8aNUskgg5/jjj6W77ronaspsH3Xk4Q35rp+klwLy+Ja84FleEF1NT8d+vUyOTWb2yEuw7UVnNNl5rrS85yfLL6KJjhxHs8VVTo5djmd4eLhZ9Zb2T/G3lkl8c2mJHSqBAAiAQBIBBIWSyBScj6BQwYBhHgRAAARAAARAYN4T8AoKzfvWND/Aiy+5lH/B62n8vqHG2UbNa6KEEEBQCH4AAiAAAuEJICgUnmkmiwgKZcKEQiAAAiAAAiAAAl1MoNeCQl3claU0DUGhUjBDBARAoMcI4EXTPdbhaC4IgAAIgAAIgAAIgAAIgAAIgAAIgAAICAEEheAHIAACIAACIAACIAACIAACIAACIAACINCDBBAU6sFOR5NBAARAAARAAARAAARAAARAAARAAARAAEEh+AAIgAAIgAAIgAAIgEBbCEy3RRWiIAACIAACIAACSgBBISWBNQiAAAiAAAiAAAiAAAiAwLwlgCDivO0aHBgIgEAHE0BQqIM7D4cOAiAAAiAAAiAAAp1MYGa2k48ex142AfhL2cShBwIg0AsEEBTqhV5GG0EABEAABEAABEBgnhKQnxnHAgLNCMBPmhHCfhAAARBojQCCQq2ZDeGfAABAAElEQVRxQy0QAAEQAAEQAAEQAIEABCY5KDQTwA5MdDcB8RMsIAACIAAC4QkMhDcJi74E9BpX8a1ol1cjmpfBmFbJUFStuteehjyLp2vq3gyNCKIrep6GPItrixrXakRz0V4lUV8rogxo6nWcCU9DnsWdknWf0r0ZGhFEV/Q8DXkW1xY1rtWI5qK9SqK+VkQZ0NTrOBOehjyLOyXrPqV7MzQiiK7oeRryLK4talyrEc1Fe5VEfa2I0tDIF/7htAJ1a0j0IgHXLKEsftWUlRrRghl8UKtkKKpW3WtPQ57F0zV1b4ZGBNEVPU9DnsW1RY1rNaK5aK+SqK8VUQY09TrOhKchz+JOybpP6d4MjQiiK3qehjyLa4sa12pEcwO2F0EhhToP1tLPGfrWeaTRelGfcVaqZebSnbWUZivE/2deculGVKyjiOyJb+bSRXvjQBNycnGO2ET/RoBYm7k4w58tkunJXJwjpuHPESDWZi7O8GeLZHoyF+eI6VD+LO+K2cqfQb6PGPC4l4gcDja7jIDMIDMzyVIcTXa16jLReikyMbK5dDFexXgmZeTiHDGK/o0AsTZzcYY/WyTTk7k4R0yH9GcEhSJw27kZvTC1ciw+zqH28+lWaxtdT0OexfVwG9ZobwMO50Y+zuhfJ1RHZj7OVYPwZwfYSFY+zvDnCM7EzXycq2bhz4l46zvyce5Of7YfEerjJuI9B3V36ZmEPkrYLBikQPKdR1UrGK+UZvI6H+fuHK+a0TJ+5QnOs7jzEODPTiwNmfk4d58/IyjU4B7t2RC3yueY1nF7GPIoagkkJD2MeRRNELOyPYx5FLUEEpIexjyKJohZ2R7GPIpaAglJD2MeRRPErGwPYx5FLYGEpIcxj6IJYla2hzGPopZAQtLDmEfRBDEr28OYR1FLICHpYcyjaIKYle1hzKOoJZCQ9DDmUTRBzMr2MOZR1BJISHoY8yiaIGZlexjzKGoJJCQ9jHkUTRCzsj2MeRQ1AvXAkPXNplJL+8xIto625WQ7dD/3mc/QFz77WXrzW99Kb37b21o+9lYqtqO9cpyt6Pr6VSoPD2MeRVMlzU4PYx5FoRsl4AHPo2hUJb7tYcyjaFwnmuNhzKNoVCW+7WHMo2hcJ5rjYcyjaFQlvu1hzKNoXCea42Esa1EEhaKQO3Tbum8qtQXQLQc3OINzEQTgV0VQjdsE5ziTInLAuQiqcZvgHGdSVE47WLdDU/hBtygvarQLzo08itoC56LINtoF50YeebYQFMpDbz7VzRoGDH3M0A1N1G0PnN1cQueCc2iibnvg7OYSOhecQxN12wNnN5fQub3GOTS/rPZ6jTPam9Uz8pUD53z8stYG56yk8pXrQs4ICuVziflVOxouLcthVbcsPaWuurpdlr7qlqWn7VNd3S5LX3XL0tP2qa5ul6WvumXpaftUV7fL0lfdsvS0faqr22Xpq25Zeto+1dXtsvRVtyw9bZ/q6nZZ+qpblp62T3V1uyx91S1LT9unurpdlr7qlqWn7VNd3S5TX7TL1JM2tqu9qov2qqcVs1bOar0s3qpblp62T3V1uyx91S1LT9unurpdlr7qlqWn7VNd3S5LX3XL0tP2qa5uB9LH+/sUKNatEYg6ZmtWOqcW2ts5fdXKkaJ/W6HWOXXQv53TV60cKfq3FWqdU6fX+rdzeibMkfZa/6K9YfxmvlpB/87XnglzXF3YvwgKhXGN9lvhKKH8WoO8gFE+Js0OGyh4mNg+W9OcH0UL6pFoG3mN9iqU8Gv0b3imTovwZ5JfMy16+IA/O70vfCb8Gf4c3qsa7nF64X5DEZr7OtkoeoBUQZy/OH/VFwKucf0NCDPNFM5fnL9p/pGyD0GhFDil7ZK7G3OH05qiVJ3h0VbWFe5RSVdkUOAM+ciXrSIW26xomA8LGV3+J1FXKtqVPQ9OqvZqe/t6rH/R3u4+f9G/6F/P4T+xuH1Jadf1CP4Mf0500Bw74M/l3E/i/MX5m+M0baiK6xH7EhMp8/sgzt/85y+CQg2nceduSBCojz8T47M0Nj5hgib9/dUgkWmVPUIFbKaehGNjkzQ+MWVGAcmTg5FjKmrp1faO91j/or21M6hLz1/0L/o35DWi3dcj+DP8OaQ/iy0JCLXr/gr+DH8O6c8Yn/mrUYnfj3D+4vz1PX8RFPIlNl/LcwBmaproidWrad269bRp0xZzMyEzaoqccjzL9rdyQGjN2rWsu44mJqbnZgiZoFBB32bRXvRvAeci/BnnbwFuZcZge3ze2GPjM9pbiFfRfBmv0L/F9K9YneSBo933V+jfYvp3vpy/+L7Q3f3ba+cv/Ll1f8avj7XOLnxNiZ/kmF0j1adnODLEiRm52vCSalJ2ypJTU6YHTvM/lQpP8TX/Vc02/Tf14JrWNm1De1O6D/3b3IkiJQQZ/DkCJWkT528SGWe+4NLxatZE63tnfEZ7HS7RReMz+reY/hWr1XGjvfdX6N9i+lf6FvcbDrauLIGV87uKXn977ftRr52/vda/IduLoJBr8Ckzjwc6GedyjHX1o5XHxZZvtx1NT07RyMiweXyrnw073+1T05XKMta2ushUyNHRQW7AMvP42tDQgFnLhc65BNIV273Z3u25fyd7qH/R3u4+f9G/6F8ezANdF9p/PYI/w5/D+bPc5wwO9NPSZe26v4I/w5/D+TPG57K/H+H8xfnrd/4iKCRX3XYtciMcIhrExz/NE4QksjQ60k9TfBMxwMEayTP2ozrWDXjepk/zhKR+1lrAgSFpiujJH8FN5JI35D1H9SWkbo+2d8FIH00ODPdM/6K9fPZ08fmL/kX/2gGh+rWixUS7r0fwZ/hzSH+W00Duqdp1fwV/hj+H9GeMz+V+P8L5i/PX9/xFUEiuuvNg4e99uWYLcRyIH03g74/8kYCQREclICO/RiZOYT6OdsquEIsGf0wMiDX7Z/tq7XEruHOzH0mvtlcCbr3Uv2gvnxNdfP6if9G/9qif97qgttp1PYI/w5/VB2UNf7ZpZE/j/C3n/hnjVe0kTThRE7KzO3KtJPwZ/mw7TV6/0u+/RZy/CArZPVV2miMo6hwmmGL+8T8IqaZBIK1tZgjV8mO2OUN1tXwra7Grg53Wj0/VM+rV3aJrC1u7tH6WtVRDe6ukhIPBaLPktI05C1NXGTGJ/o2SsUALZxu0tStaK21bqsGfq4Tgz8xB/CrNYTLuE7/C+RuFZZ2kwtkGbe2K1krblmo4f6uEcP4yB/GrNIfx3Cf+pa7Z4K/Gju6pFmrYb+3ykZRq8OcqMfhzza98HCihrPgVrkdRONZJykmcv1E+zbcxXvH1oeZGIcYrBIWa+1yxJXRM0HWLajmrt6g6d7OS2UCgAw1kJvNha0FvXe8KqtS4DmSm0WiGLW9d7wrugwhkxm08Jddb17uCWzyQGbfxlFxvXe8KbvFAZtzGU3K9db0ruMUDmXEbT8n11vWu4BYPZMZtPCXXW9e7gls8kBm38ZRcb13vCm7xQGbcxlNyvXW9K7jFA5lxG8+Qm1k/c8F00UBm0kUce711vSs4RDkrkBm38ZRcb13vCm7xQGbcxlNyvXW9K7jFA5lxG0/J9db1ruAWD2TGbTwl11vXu4JbPJAZt/GUXG9d7wpu8UBmnMbl4SIsIAACIAACIAACIAACIAACIAACIAACIAACPUYAQaEe63A0FwRAAARAAARAAARAAARAAARAAARAAASEAIJC8AMQAAEQAAEQAAEQAAEQAAEQAAEQAAEQ6EECCAr1YKejySAAAiAAAiAAAiAAAiAAAiAAAiAAAiCAoBB8AARAAARAAARAAARAAARAAARAAARAAAR6kACCQj3Y6WgyCIAACIAACIAACIAACIAACIAACIAACCAoBB8AARAAARAAARAAARAAARAAARAAARAAgR4kgKBQD3Y6mgwCIAACIAACIAACIAACIAACIAACIAACCArBB0AABEAABEAABEAABEAABEAABEAABECgBwkgKNSDnY4mgwAIgAAIgAAIgAAIgAAIgAAIgAAIgACCQvABEAABEAABEAABEAABEAABEAABEAABEOhBAggK9WCno8kgAAIgAAIgAAIgAAIgAAIgAAIgAAIggKAQfAAEQAAEQAAEQAAEQAAEQAAEQAAEQAAEepDAQA+2uTubPJvQrEpCfqdno73VHkT/dronV48f/gx/7g5Phj/b/Yjx2abRuWmMz9W+gz93rg/bRw5/hj/b/tDpafhzMH9GUKjTT4ba8buu1UnnSdgmu1RcRxNW1aXgOpKwqmLNpeI6mrDKLgXXkYRVRXurPF30w5J2KaB/wzKuWnNRddEPq+1ScB1JWFWx5lJxHU1YZZeC60jCqqK9VZ4u+mFJuxTQv2EZz1kTsjZdF/250iFSLgX7CEJouG24VFxH467daq5LwXUkrdpPrudScR1NsoVW9rgUXEfSiu30Oi4V19GkW/Hd61JwHYmv3eblXSquo2luyaeES8F1JD42s5V1qbiOJpu1rKVcCq4jyWovezmXiutoslvMUtKl4DqSLLaiZRAUihLp0G2nQ7g8p/D2lSOK9nJHloM64jHliKJ/0b8RxytoE/5cBFicvzh/i/CruE2cv3Em+XNw/jLDclwr0lnliKJ/0b8RxytoE/5cBNgiz9/Kmi3jTvtFNAQ25whU+C8/lUrFfCRX07LWbZOo/aP5dt78SNvuU84A0N52o73t5V+0Ovq3aMLttY/+bS//otXRv0UT/txnPkNf+Oxni5aBfRDoKQJveutb6S1ve1uXtxnjc3d3MPq30/sXM4U6vQfbfvy9EAiyIaO9No3uS6N/u69P7Rahf20a3ZdG/3Zfn6JFIAAC3UEA43N39GNSK9C/SWQ6JR9BoU7pqWbHKQHaXjof0d5mHtHZ+9G/nd1/zY4e/duMUGfvR/92dv9lOPremNlQAwF/zuARHVykjf3blpl3bWxvW7wE7W0L9tJE0b/BUCMoFAxlew3NRgJCZlNOFFki+6qZYf5VCbVWoJRKmDXayxgUfoHQVULhFyilEuhfJmA4K/wCoauEwi9QSiXQv+jfBl8IuQF/DkmzuS3ljfGqOatWSihfrYvxWUmEXc+X+8mwrUq2Nl/aC39O7qM8e9C/TE8HzwKdTCW0rwqUUgmzLrJ/+xqUsNGRBNQxZW2ni26MrWWnoRuWgM3WTodViVuztex0vGTYHFvLTodViVuztex0vGTYHFvLTodViVuztex0vGTYHFvLTodViVuztex0vGTYHFvLTodViVuztex0vGTYHFvLTodViVuztex0vGTYHFvLTodViVuztex0vGQxOaJZpq6tZaeLad2cVVvLTs+VKCZla9npYtTmrNpadnquRDEpW8tOF6M2Z9XWstNzJYpJubQ0rxjFqlXVkLWdLlJTbNtadhq6YQnYbO10WJW4NVvLTsdLhs2xtex0WJW4NVvLTsdLhs2xtex0KBUEhUKRzGNHelZ7t0U78n7qmZlq5b5ar8pmNKLYonmvarPcFv04K6K9Tixpmehf9m8GBH9O85Iw+/TclbVzwfnrxJKWGT1/5S9KveTPaG+ad4TdV8b5K0es44Pcb6B/w/ZhmrUy+hfjFcbnNB8MuQ/+HKFZwP1Vr43PQrSX7q9CthdBocj5WPomDwBywsonzyIDa3+tN6flbOBFg0N681bNtf8NMPrUjn+WNWfEXK0xFT4W1bcVJfiF9jYQybSB/p3zJ/izugzOXyWReT1PxivpOR0fe8Gf0V6Xh3bu+Sut6avdtMj9Bvq3u/o3er+B/i22f8W6MNab47Lvn9G/Aj+6CBXTK9Ed2be5ugyT7f5+1Gv9Kx3US/dXIduLdwoJzXYtMmDUbqxyHwLbkZlCmzaP0eTEBI2OjtKC0cHqiCTGZVQIpWUdbF8/0ZatrLtpEw0M9tO2i0apn/Omp6uF9MbRbNUGSKt660m0F/0Lf279/KnVxPnbrvFqhM/fobkxuevHZ7S3q66/PH6Iy27cpPcb6N+u6t/Y/RX6t6j+nardK4+PT5rgQXvun9G/RfXv/Ph+1Gv9i++/rfozgkK5v1a1biD0d9qJyVnasHEjjY+NcZS0QiPDg/VoqesoK3JXx0ueR3Imp4gm+J/NPPIN9FdoeHCQhoYHzF8RGwJCrIP2Gtwt/4P+hT/bzoPz16aRLT1fxquKGZ+HemZ8Rnvj/tnp5+/09Nz9Bvq3+/rXvt9A/xbXv9O1qf0TE5M0NjbVlvtn9G9x/Tsfvh/1Wv/i+2/r/oygUJxdR+bILKEKTzsaGR7h4Ew/X1hGeP7c3AQhDfyEDswMsgf19w/wp58GeabQ0NAASZ789UMeJ4sGhkLBRXvRv+JL8Od8ZxTO3/aMV8M9Nj6jvdXztFvGK9Ma634D/dtd/Ru9v0L/Fte/ldpzLv38/od23T+jf4vr3/nw/ajX+hfff1v3ZwSFquza8q/9xICdbvVghvlphP4li6pTULln5QY07SZ0NnVvtqPgJ9VomwXEwahlJgIl17cpnj0kawkI2e/LsNso6bwL2ov+tX0I/mzTyJbG+YvxSj0F47OSaG3da9ejAX5MfAnuNxKdBdejRDSJO3rxejTEb3mQZXR0xNw34/65ygPXoyqHVv/ttesR2hvm+yCCQq2ecSHqSdCkFrXJ824hMWFm5PAoOsDBGJkh5FpqUnO7Yhlzu7KkpPqAeBDr6kuupZ62xQ4ISb7EoGSgz7uILtobpxjrzlhGvE5ajlRH/8Kf6z7CDoHzt04jc0LOI4xXcVyx4SmWEa+TliPVMV4VP17V+wD3G3UUkoi5byyjoXjTDfhzFVEv3E9KS+UaIW3thfbi+wLfS0Vvprjvo1lNBwlHARk3cL8RByNcGpZYRsPephtSvRvvNxAUatr1nVEgp3+33EjotozOqyI4e+FquTA4t4zOqyI4e+FquTA4t4zOq2KvcJ6ZnqLDDj2U/u71r6MjDjuUZnm7jx8fL2vpFc7KE+1VEsWu28VZzp9jjzmG+t/yZjr8sMNKO5/a1V7oFuvHah2clUSx627kXFmzZTxEcLJY8l1ovcIxYXkHkHxk0bS9bTdb8+08pEEABEAABEAABECgKAISCFrz2KO0cMECuv2OO2kz/9Lodddfz4+69NHTnnYi7bdyJT386GO018r9ijoE2AWBriEg59PU2Faa4efE+nmqwTSv5deCp/kne6f5ZU6yPcjvnOsfGe2aNqMhIAACnUEAQaE29ROCQm0CD1kQAAEQAAEQAIGmBP5y3720fOkS+s+vfJW++KUvJ5Z/K890eNUrX0GPPbGG9thnn8Ry2AECvUxgZnyMJjggNDIyYgJBSSy2bt3Kv0Q2huBQEiDkgwAIFEIAQaFCsDY3iqBQc0YoAQIgAAIgAAIgUD6B22+9ha77wx/o4x//RGbxCy84n7ZZtIhWHnhQ5jooCAK9QGCag0H9/LKXUQ4IZV02bNxoHs/ErKGsxFAOBEAgD4GEVxLnMYm6IAACIAACIAACIAACnUjgnttvp+uvu84rICTtfOnLXk4b1q+ju/74x05sNo4ZBAohIDOEfANCciCLOcAq7x2SgBIWEAABECiaAIJCRROGfRAAARAAARAAARDoAAJrH3+MVq26kT72sY+3dLR/+7ev5EdfttC6Natbqo9KINBNBKY5ICS/BuUzQ8hu/yIJDM1Mm+CQnY80CIAACIQmgKBQaKKwBwIgAAIgAAIgAAIdSGB0aJAeevDBhiPfaccd6ZKLL6ITTzwhln/xj/6Xjjj88Ib8T3/qn2g9gkINTLDRmwQmeZZP9FeK5KXSH+PHMjds2NAAZc2aNfSZz36uIU82JKAkL6fGAgIgAAJFEkBQqEi6sA0CIAACIAACIAACHUBgcusWuuhHF9OX/+M/G472kUcfNV9gv/zFL9AC/hUyXb79rQtp6ZIldMONN2qWWcuvk61ZvYa2bNrYkI8NEOglAhLIGeaAjrxY2l5mZ2fpK1/9Gr37Pe+1s2kjv0PoG+df0JAnGwP8K2XyC8QzU5OxfcgAARAAgVAEEBQKRRJ2QAAEQAAEQAAEQKBDCfz1r3+lRx55xHn0r3r1a2mGfzL7/G983ez/wPvfR7vtthu96NzznOX/9V//jTZvWO/ch0wQ6AUCfRzIkU/Scuddd9H5F1yYtLsh38wW4kfRsIAACIBAUQQQFCqKLOyCAAiAAAiAAAiAQIcQGOCXn1x//Q3Oox0fH6dXvuo1dPhhh9EnP/FxevWrXkkf+vBHSAJJScsE18ECAr1KYJpn9sgsn6TlS1/4HP3jpz5Nt952W1KRhvzk8FJDMWyAAAiAQEsEEBRqCRsqgQAIgAAIgAAIgED3EFi+bBnJo19Ji+z772+cTy9+0QvpNv6FsQu/+a2kosaO2MMCAr1KYHpqKjUotGLFCvrUJz9Bb37zW2PvF4oyk+CS2MMCAiAAAkURQFCoKLKwCwIgAAIgAAIgAAJdROAjH/2/pjWf+MQ/dlGr0BQQaA+Bs846k04+5WR67/s/0J4DgCoIgAAI1AggKARXAAEQAAEQAAEQAIEeJ7Caf/3oqCOPzERhbCz9/SZiR+xhAYFeJdDPs3umMszuee973k0P3P8Afe3r/52ISuyIPSwgAAIgUBQBjDBFkYVdEAABEAABEAABEOgQAvJLSaGWI488giYm8bhLKJ6w03kEZjMesvw62ec+++908tNPS6whQaG+fnxlSwSEHSAAArkJYKZQboT5DciFI+vFI1FNjeg6seDcDo+ic5VcKU9DnsVdilVgakjWGRYtnqFoehFPQ57F3dpqRNfuUg25HkUb6sU2PA15Fo/JmQw1omt3qYZcj6IN9WIbnoY8i8fkTIYa0bW7VEOuR9GGerENT0OexWNyJkON6NpdqiHXo2hDvdiGpyHP4jE5k6FGdO0u1ZDrUbShXmzD05Bn8ZicyVAjunaXasj1KNpQL7bhacizeEzOZKgRXbtLNeR6FG2oF9vwNJRWfNvl29Hb3/73MYlWMrbfYQfaaeed61XTdOuFsiQ8DXkWdx+BGtG1u1RDrkfRhnqxDU9DnsVjciZDjejaXaoh16NoQ73Yhqchz+IxOZOhRnTtLtWQm6XowMgobdm6taGevSE/M6/LnnvuSZ//7Gdo+fLlmtWwnuGfseffpTffFUQ716IHr+sMxjyKplvzNORZ3K2tRnTtLtWQ61G0oV5sw9OQZ/GYnMlQI7p2l2rI9SjaUC+24WnIs3hMzmSoEV27SzXkehRtqBfb8DTkWTwmZzLUiK7dpRpysxatrNkyLmWxlExAhna5IMhHOkDT+vOV9sVCDi26HT3cSqQXZ+euNdGi9W27Sobi9Xp2oiIXqvrCbclgqLFGvbJXAu1tjisM50Yr6N8490ZC8f1ZcuDPzSmF4dxoBf4c595IKL4/Sw78uTmlMJwbrYTw5/vvvpP+4QMfTH3hdLPW/d3rX0fyGdl2ab1o45HWs70SuN9ojisM50adEH7VaNG91Y39O7l5Iy0YHU194bSbxlyuPKq5lYNLcj6hf+e4ZE3hetScVBi/arRS3rjR2L7ydLuvvZgp1OhLbd3KEE9penziorabNq3ABfLpSm0T4soUELKPJ59u1RLaaxN1p/NxRv+6qcZz83Gu2oM/x7lGc/Jxhj9HeSZt5+NctQp/TqI7l5+Pc3h/XrBoMb3znW+fO8AWUk8/9ek0OeO+E5lv7fVpHvy5OS30byOjZrOFGku7tyb50bFBnnVkL/k4Vy3Bn22i7nQ+zlIb34/cZBtz83Gu2oI/NzJ1bTXjjKCQi1rJedVhI5CohzGPos0PrpmnWRaC62bUDq5rtSktGVwX7XXiDs7ZqRLPDK6L/o1D5pzgnJ0q8czguujfOGT0r5NJ5syMPiX2mvnz9jvuRNssXEzvf//7MsvbBb/xja/TyMgCWrS08efom+naNpqmA7a3qZZdwKMRHkVtBXca7XVz4dzgnDOyzqpb4fcA9Q8M0tYmL2ZPauDGjRup0tdP/cPV931l1U2y15DvYcyjaIOEc0OMZVyC62bUDq6L9joJBOeM/s3FGUEhJ77Oy2wlQhqildANQbG5DXBuzihECXAOQbG5DXBuzihECXAOQbG5jW7jvM/++9ORRx1F73vfe5s33ipx4QXn0+Jtl9C+Bx5o5YZLdhvnZmTQ3maEwuwvmnMfB3Smeeacb2BogwSEJKgUmSWUt9VFtzfp+KCbRCZsPjiH5ZlkrRs5IyiU1Nudlh803OrReOh6wMpRFJxzwPOoCs4esHIUBecc8DyqgrMHrBxFu5Dz/gcfQqeccgrdcN219MY3/F0qnLe+5c2m3PLttqeVBx6UWjbXzi7knMoD7U3FE2xnCZwlsCNPVK5du9a8Hyjt2OX9QVJOfm0sdEDI6JbQXmf7oOvEEjwTnIMjdRrsQs540bSzp4vPNE+Z1l40LWr6oml9obSu9Uii25rfsJawpb2Iw5axqG5Zetom1dXtsvRVtyw9bZ/q6nZZ+qpblp62T3V1uyx91S1LT9unurpdlr7qlqWn7VNd3S5LX3XL0tP2qa5ul6WvumXpaftUV7fL0lfdsvS0faqr22Xpq26BevfdfRfttP12dPsdd9JVV11F8vPYRx15JC1ctJD2W7mSNm7aTMt32qmcn8wuob3ahQ1r1dXMAnmrhFmrbll6Kq66ul2WvuqWpaftU13dLlB/emwrTY6P8WNlA+bxt8HBQRofH+fHxPpoWn56nvPlXUSF/gR9ie1VpGatugXybdDTDdXV7bL0VbcsPW2f6up2WfqqW5aetk91dbssfdUtS0/bp7q6HUgfQSEFWvK6a4JCtmMGcsrMXWFrS6Uy9G3NMvRsGLY22muTCZe2GaN/w3F1WbJZy/4yeNuaZejZ7ba10V6bTLi0zThg//563Xr6+P0PkKx7elm4Db16dIjk13y+unWMz1mebM4BoV5enrZkWzpxCb+DiX9SPPhSkD9nOk5bWyoEPJ8S9W3NMvT4QK68fYZe+qMZc0hr7rIPIPEog+3YZ69pesl+08be9+/sp0mWv+fe/mD2sxhatm+FXrOSYfP/HzmnYG0bb0n9W2dga0tmGfq2Zhl69cZywtZGe20y4dI24y7pXwSFwrmHl6XgQSF2yBm+rvHkI7PIL8VLso//sf3W6yAzFJbpsKopxU26SEE9JrQX/au+EHANf2aYOH8DelTNFMarjh2vPnb//fSx+x4M7xOw2FUE3r9i9+CBIVyP2EUKuh5pMKjsQNB8dvp3P7uPPlxgYAj+XJw/N/gV7jc69n6joR+TNgrsXwSFkqAXnN8QFDKBlQr/0Y0/tQiLrvUwotuaL2u5ZkoQSNb9HOifnuJgEP8BT4JEEhSSxQ7cVHPy/6u6Ylv0ZZE/HM7KH104Q47ZqVsra85aU8vvH9WVNdpbZefk7Ic1Vlo5o38ZDfx5zj9w/s6xyJDS8wjjVWdejxZc+dsMvYwiIEB02ZMPIZk5FGLRcQPXX6YZ+Pr7oYum6dOXVGcHheirbrNx6Tv66aT9w75yFv6M70fO7yniGLLUvqtWN7L/q34la3wfrHJzcs6INOxZn1EUxcITECeQANDE+CyNjU+YgJCcIBKkMYueeIGlNfg0NjZJ4xMcjWIdyZODyeOYzQ4T7a0OgOjfZp7itx/+jPPXz2OylcZ41ZnjlcwSwgIC7SKA61Ex1yMEhNI9Wh+nSy/lvxf+XIw/R3sC9xudeb8R7cek7SL7dyBJFPkdRoADQvx+Onpi9Wr+o8osLdxmG1q8eIH8gaUanCkoKCSzgrZunaR169dylLaPli1dSkNDteeS+ZjMAbQaAk7rArQX/ZvmHy3ugz/j/G35T1ZpPofxqiPHK3lPzIdX7EkDci3DAgIpBKb4HkveCRNyMdcj/oPbunU9dH9VcHtllhCWdALySJ1wCv2OIdxf9cD9VcHnr9Nz23l/1WXt1XkkTs7ILJlAzhsKqT49M82zhGb4py+rU2NTTcrO1ALN2y/VZzjyNM0PC8/wp/pf83qmRABttDeFNfo3BY57F/xZzuCMS+aCbntSHeevm43JFUABGGN8TmFs70pgjYCQDQnpJAIxPwl2/so42Uv3V8W2F7OEkjy4MT/GKZg/4/tCI+mErYTrUULpWLZUb8/9VbHnb6yhtQy0t8ntYsbzF+8USvKwgvPr7xTiWTTyR0jzziCeEybvFZIl+g6h6LYpVPvHjB1cTV7iNj4xTdOTUzQyMkyDtXlgZraQFKqartbibd2c1YRtNEPamOS6k/yHl60cLZVDXzA6aNZyLKYpIl5X4qStKxotaItFqYf2CghGKkwjmBs4t8DY2OV/ZJoi+rfqa/Bncba5U1bPQ/EVn0Xr4fytUsP5yxxsv5pH45Wc88MtHo/POYGy3UGAn9439yXz1Z+zUO7m8VleLn3mP2OmUBY/kDL1dwvN0/E5Szu62Z9d7Ud78f03z/fBAZqadPkV8rIQGBjMUiq5jAy0gW44p+U6x7ZGR/ppaqCfBngOmOQZ+1Ed2U4+Kq890zwhiZ8aM8EgsSl68oJrM1OJN8wXabUYUhftRf8W4VfwZ5y/RfgVxquOHK9qD0KrR2ANAs0JhLzPwfUo6PXoF3dw52DxIwB/9uNllcb3I3wfrLtDyPOowPtJvFOo3mPtTcilKk+ghuNAPFWQ/+DKHwkIyV+fJSBjXkQsxuXjWBKyHSXTszT4Y9rA+v2zfbX2uBXcueka9l60F/1r+4Om8/qV2oE/4/xVX5B1Xr/CeNXd45XtK0j3LgEJIvItWH3JO26oIVyPir0eKWddf5B/mv3p+1fopAP4ZtZzufJPM/Smi2boj/xenk5fJIh20n5zrQjVIvhzsf6M+43uvt8osn8HKO9sl7nxAilfAhxB0UHWBFPMP75GqsEkDQJpbZ2BZB5NkEzbtqWr5VtZi0kd3LW+6DUulrDo2vutXY110rekGtpbZYT+ZQ7iV+kuk2mv+BX8OYrKOkmFsw3a2hWtlbYt1XD+Vgnh/GUO4ldpDpNxn/hVO87fjIeHYr1CoMP9udfG56hbSkDoI89rfY6gBJJu48+HfjhNH+2Gn72HP0ddJNN2u65HvXb+or18CyUQeAlxP+kfBq9q499QBKQz9ZPDpppwrXOYbVrVpad5zsq6U9Y5FttMNJ3DbNOqUS1721m5aQFnrVimbSaajhUOmBHVsredMk0LOGvFMm0z0XSscMCMqJa97ZRpWsBZK5Zpm4mmY4UDZkS17G2nTNMCzlqxTNtMNB0rHDAjqmVvO2WaFnDWimXaZqLpWOGAGVEte9sp07SAs1Ys0zYTTccKB8yIatnbTpmmBZy1kAkCpRCw3TOadh6AXchZIFumbSaazmahtVJRLXvbabFpAWetxMwD963kCgjZhvMElmw73ZS2uyuadrbTLuQskC3TNhNNZ7PQWqmolr3ttNi0gLNWLNM2E03HCgfMiGrZ206ZpgWctWKZtploOlY4YEZUy952yjQt4KwVy7TNRNOxwp4ZCAp5AkNxEAABEAABEAABEAABEAABEEgiILOOsIAACIBApxDAO4U6padwnCAAAiAAAiAAAiBQI3DJj39CO++8Ex15xBHBmVz0o4vpkUceNXZlevouu+xCxxx9NO2ww/YtaZ1/wYV01pnPpOXLl7dUH5VAoGgCL9hP/u5e7vJ/zuyjFx/dGDx6eN0svZkfPfuPc/ro9C/wW2XHk4/ptSdW6Ni9KvTab9hvs2os/+t399PTvsl2HmrMxxYIgAAI2AQaRyJ7D9IgAAIgAAIgAAIgAALzjsDqNWvoB//zQ/rG+RfwuwRCvJWpsYnXXHst9fNPix504AG0995705/+dDu99/0foMcee7yxYMat3/z2Ktq4cWPG0igGAp1D4P4nWj//zjiwQntuR3TFbTP1z6/umKG9FxIdtBsHqZrEqQ7epUKHSLmU5fiVfXTa8vQyKdWxCwRAoEcIYKZQj3Q0mgkCIAACIAACINAdBC699DJ66rFPMcGaVatuosMPPyx4ww44YH86/rjjjN3TTn06vf2d76ZVq1bRGWecHlwLBkFgvhJ4yX9O0bevTg78/MOz+uijz2/95dQPPkH07h/EZ/rs8o6ppkj+v+/E6zWthAIgAAIg4CCAoJADCrJAAARAAARAAARAYD4SGB8fp1/+6kr6yIc+SCv23JN+dPElDUGhd77rPfSUpxxDv/vd72nzli10wvHH0ctf9lL+lZIKpe1r1taRkWEan5igX115Jd155130+te91lT52c9/QQ888CC9+lWvoLvvuYf+4z++QuvWr6fR0RF66Xnn8WNnR5lyMlvoX//9M7R16xidcsrJ9JIXv6iZJPaDQNsJ7Gtm2SQHhYo4wL32rtDt7x6g4TdM0qdf0EdnH95HC4aIdl1aoS0TREf88xTdec+s2XfmwX108Ien6DlHVOibrxmgBcNEUxxP+vBF0/SJS6tBow8+o49+/MY+GuBvfb/kWUmn/Ss/ToYFBEAABCwCCApZMJAEARAAARAAARAAgflM4FdX/pp23XVX2m23XWn77bej73zv+/Tggw/S7rvvbg577bp19Purr6H3/p/30JYtm+lT//QvtNNOO9EZp59Gafuibb7vvvtp0cJFNDY2RqtuuokeffQxfn/R4XQjzxbauHFTvfjmzZtpw8YNZvvCC79FJ5xwPJ39nGebR83Wrl1r8qenp+mOO+6kf/zEx2n16tX0gQ9+mM447VS8Y6hOEYleJXDwHhVa/e9zX8d+dtssfexXMzRYy1q6gGjlThV6wzem6MtXzdKfPjRA//PyfhMIkn1L+FEzWb7CeZfePEMv+vI0bb+C6FSuI4v8e/DuFRp+5yQdwY+aXf8uNrwb3jFk4OAfEACBOoG5UaiehQQIgAAIgAAIgAAIgEBWApetXU8XrV+XtXhDuS+u2LNhO21D3h8kL4F+7jln04YN1UDMwQcdaPLe8uY3mar9/f1mf/Wl0NvTcU89lm655VYTFErbF9W9metIIEheNL3zzjvThz/4AfPCaQkKJS0ruC2/5RlB22yzDR1y8MG0334r68d07rkvopGRERPQGh0dpUcfewxBoSSQyO8ZAg+tnqXXyIuga8vPePvQBY3vAFq7eZa+fGV1ttJPOPDzyhPir4S9+9FZOvPQPvr8ebP0gatm6o+8Sa13fZftcxz3httnaZKTr1hRof9+qNzZT9o+rEEABOYnAQSF5me/4KhAAARAAARAAATmOQEJBp15/wNEvG51+dK9D9Klhx1Cz1y6bVMTN9x4Iz9+tZX+96If0cWX/NiU38KPiM3MzJgg0eLFi03eoDwnUlv6OS0zdXRJ26dlZH32c55Vf6eQnS9zD0RPFzkeXV7xty+nm26+mW68cRV97/s/oOc/95z6O4gWcqBIFwlO2TY0H2sQ6DUC6zYT/eymSICmGkuto5BHxnQZ50fDJFAbXY7/5DS9+ZQZetmxffTYyYP037+drv8q2f3V+HG1CksNOOpH7WEbBECgtwjM3TX0VrvRWhAAARAAARAAARDIReDMVbfkqq+VJbA0u/QQ3UxcX3zxj80soHPOfk5DmY99/JP008uvoBe+4G9MAOiH/3sRHXLIwfzo1zhdffXVdNqpp5ryEhxK2tdgMGVDZiBd9tPLaXJykib4c8XPfm60pMqtt91mZgg9+dBDzSyg666/oR4USjGJXSAAAjkJvIZ/nv7zPJvo87+cpu+8nujMJ8tsorngbU7zqA4CINDlBBAU6vIORvNAAARAAARAAATCE3gjv3Mn2MIzjWTWUdpsoQcfeojuf+ABeuc7/j4m++xnn0Wf/8KX6G+e/zz+Kfl+2muvFebXwiRwI49xPeusM02dtH0xowkZhx5yCC1ftoze8Ka30IIFC2i/lSuprzZ1QV46/ZnPft68ZHp8fILe8uY3Oq309VW4TvwRGGdhZIJAFxNwhW3sPH5ilOSjiyR129737mf203+8omJeMt3Hp9Ybzp/79TItLzYkPW3ZU7tYgwAI9DaBypot4xga2uADFZo1vwQivwYii6z1o9tmR+0fLWfnIQ0CIAACIAACIFAMgUG+PKc9ZiFBIXn0K9Tyhr12J5/3CyXpvv4Nb6L3/Z930x577GFm8wwP888R1Za0fVom61peQC22o/cnU/zTR7Jv4cLaG3CzGuzwclN8Nz2JO+p524sf4l/j+vQldril8VA/+Ow++sjz4j8t3+pP0n/oh9P00RS9RvVAW3Kqy1Oaa/Lbe5fwOCfOI79lWAABEJiPBDBTaD72Co4JBEAABEAABEAABHIQ6OPpAnZAyDaVts8ul5aWl0a7lgF+h1GvBYRcHJDXHQS+9boB+tbrktty/xPzKBI4zscpHywgAAIg4EkAQSFPYCgOAiAAAiAAAiAAAt4E5OXPI/yn/E38ZtkCl49+5EO03fLlToW0fc4KyAQBEEglsOd2eGtzKiDsBAEQ6AgCCAp1RDdlOMikP1R067UK7a06Bfo3w8nRAUXgz/DnDnDTzIfYa/6cBIZ/TexNS6q/KPaFdevpzZz+E79n5xdSvsDA0E477ph0RJS2L7ESdvQWAZy/Qfr7+3ckgQxiHkayEkjqBtw/ZyU4v8uhf6v9E8Cf8Za/+e3qmY9OfCH6yVw5V0E5G6OfXAYzVY62NcC5kEk33tak0SijuYzF0N6MoHIXi/oy+jc3UocB+LMDSiFZ8OdCsGY0KgEhCQbJR36y/n5+6fNTFvAjV7zGAgLNCeD8bc4oXInS3/8T7tA7xBL8uYyOwv1VGZRFo/v8GUGhsnynYB2na5YXKbFaV44o2svIy0Ft9a0kyxFF/5aGGv0bIVDEJvy5u/3Z6TM8S8gsHAySgJAslzz0MH1i9Vp+58eE2cY/IOBHANdfP17+peXl0CEWsfPHu2Tkx5JMAP6czKb1PbjfYHbluFakk8oRLbJ/ERSKdGnHboovRj+lN6acE8I0K9rWEqXnsJYoivbOYS8thf4tDDX8uTC0yYbhz8lsytujj5OVpwil7iCA87eMfpTZQgd9coqu/FPyr5SlHYfUa8uvjqUd1LzcB38urFtwf1UY2mTD3eHPeKdQcg9jTyYCJZ4ImY6n6EJob9GE22sf/dte/kWro3+LJtxe+73Wv/lor169hmZmZmj77bej2dlZkp+S10V+nay/v/HnqKXs2Pg4bdy4kdav30Cb+L1Ihx92aP0n6Tdu2kR/eeivtP/+K42Z22+/k3bffTfaZpsFara+fvzxJ4xuPQMJB4Fe8+di2/v0/Sr8k/QOzJEsmeFz8j/JjKEws4Yi5nt4s9j+nX9g0d751ychj6j7+hdBoZD+0U5bMp+s+/wzmSjam8ymG/agf7uhF5PbgP5NZtMNe3qtfxP67DnyTiF9jCyhTLuyr7v+Rnr88cdp9Zo19KR99jGHceddd9Po6Ai/8miKli9bSs844zR68KG/0K+u/A0HfuQWo0IzszO02667miDSOD8GNz09TfIT9LLcc8+9tG79unpQ6Jo/XEd7773C7Iv+c/kVP6fzXvKiekApuh/bbSSA87eN8OePtATRumLpNX9Ge7vCbRMbUWD/4vGxROqdtWOWx27xE/2Yo2/YKKY9KqHrYlTiVtFeZlICdJXQdbwnislB/6J/i/As9WNdF6Hhsgl/7m5/dvW5vEfozPseML8+Jo+M6WNjX7j3AWfxsjMlyDMzM0vHHH0U3XX3PTQ8PESLFi2k/fdbSbvusnP9cLZdvJiOPOIwDt700cknn2jqHHrIwfT4E6tpxx13oC1btpqyl1/xC7r5llvpIQ4iXfjN79B99z9gZiF97/s/NNvf5bUsjz76GH3z29/j1ypN0AVc7qabbzX5cixS78JvfZfGeTbS175+vsn3/eeBBx+irVvHTDWZufRf/30BPcHHqsu69euNhm7P57WOU7ou61i7dbw6aX985fHxodC81I917XMsecp2qz8nMUF7mUwJTqYSuk7qj9D5RfYvRsjQvdUGe+KQstiOqXnVPcX8qxrQLYavWgXnqm8rj6LW4AzORfgW/Kq7/SrVZzgwJEEg/egLp1PreO585NFHU2tIECa6SABm9913p3Xr1pmZPosXLeJHxQbMTCApW5GIUW257PIrSAItO+6wPf32qqtNoOf6G1bRkm23pYcffoQu/9nPTcmxsTF6zrPOpJedd64YoN9ffS2dduop9NLzXkwvfMHzjY4U/NnPf0mHHHwgvfqVL6fnPfc5POOo+u6WLVu20BTPOnopzx4aHh6uqfuvruXZSY8/8US9ojwWd+lPr6CJic76xTeMG8WMG+96Nr721E+OlERoTvDnYvw52oXgDM5Rn/DZxuNjPrSKKqtn8dx9mLeS3MPx/RTxawDMhx/9J7nVkvwcZr2PQyrwPVh9Ef3Yovtd+2KF3RloL/rX7Rnhc+HPEaY4fyNAmm9ivOru8aq5B4QtIUGdO++8i26+9TbzuJcEY3508U9oZGSEHnv8MXMNPu6pT6F99t6Lrr3uejNz5tCDD6KVK/fl+4MKB0jGSYIni3kW0DXX/oG22247epADPxv4XUG333Fn/fExOeqddtzRPGImQaCdd9rRaMi7hp7gwMs421m2bFm9ces3bKAK25d3D+238kl07733mVlHk5OT/IjZ3PuJRoZHTJ2F22xDhz350Hp9OxhVz+SEPOp2Bx/XDA/G8njb2c8+y2hc8pPLTLBHAj/HPuVoup9nJ23cuImu/PVvzXuMTj/t6TQ0NEh7cADsMg4Mnf2cs2yzHZnG9SjSbZ7Xo4+c009fvWOW1uCXwSIgGzeFUxkL/DlC2dOfI7XNJu43uvt+o8j+RVDIdUaVmccDgMRGcsRHzNHKwNrPASEZT6Y5GiT2JEAk+fIRJ4ovUloW587qrmb/1mxLEEqmtImmLKInVu0B3+yQ8ibB+2rrVlZoL/o37jfqUeph8RJNc+DPBhHO35qnYLxqesq4CvTa+OxiUFTe1df8gf5cC7ac9czTaeHChUZKXgAtQZXzzn0xP8L1EP3iV1eaoJAEjDbxY1Qyu+eGVTfR3nutMAEUeSxMgjfyTiFJS2BldMEoPYUfJ/vrww/Tn/98r7Erj4g9wrONDth/P5JZQ6Ins26edsJx9Mfb76A999i93tTrWGNocMDYPerII+iX/C6i3/z2dySPmw3wTCRZTjn5afS7q6+h319zrZltdMzRR9JOHGx6YvVqE7CqG7MS++yzl3mhtQSjfnjRxXQPH5ukq+19oQliTfDjaBIE+94PfkhPOeZoDgTtRvL4mCwn8rF+/3/+lwNh13Ng7EmW5SKTuB550y3p+nvh2X105j/jJdJJ/eOeJQR/TuKVmF+SP0f1e+36i/aG+z5Y+wofdSlsl0JABoxQQmyI/3jIN0FjtGbNBtqydbIakBEB+eh4HkqvZqeP/5gwNk60Zu0m/ivjVpKZ4BIYkiCRBKcaFrS3AYfXBvoX/uzlMNkK4/zFeFX3FIzPdRRZE+dsuyRr0WDl7r7nHjP7Za8Ve9YDQmpcAh4yE2gPDtTIjbL8OpgsEsiR8jJrRurLIrOE5CXRElzZyo9+SfDngQceoIsu/jH97vfX8C+DbW/Krdz3STwz50wz40hsLl60mLZbvtwEhE44/qkmEGMK8j+ncsBHZvEMDg6aLAkcyTuGJOCjj4Ttwu8resHzn8uPmb2YnvSkvemn/MJpefRMZvdszzOWXMsDDzxkgkEyG2rt2nXmPUYr9tzT2Lzgm9+mn17+M/7ltOTHwyR49KyznmlmQcmvo3XKgvG5mPFZ3pWz5T8HyR386BTvCH+cy/at0KXv6KePnF3MLCH4czH+HPMEfF/A94WYU2TLwEyhbJwKKSWxmpDLxOSsmf49zjdYcmM4MjxoAjRGwyFW4Rs8WWSGT6sL/0gJTfA/m/llkwP9FRrmm8Gh4QFiefOx7eaQsc3U02gv+rfuDJyAP9s0sqXn7fnrOPyu7l+0tyPP32fKL4vJh98dFGL5Igdumi3yzh55Z851191AV3Hw5sAD9qcnH3qwqfbnP9/Hj23tSw8/Un3P0MKF25gXOf/xT7fzrJzFdNLTTqgHXh548EFasece/LjZ4+bFztvyfnmv0CknnWhmFO28805mRtAt/Ija7TwjaAH/rPzo6Cjtu+8+/MjZdeaxsAW8bS8yW0kCPLPyVyFeJOD0knNfaF5kLY99yWykP/Bxy/FKkEg0ZbbS0NCQebTr4ksurZuTQI48diYBplU33UzPOvMZ/JjbcvrWd75vyszMTNOZzzjdaMhsJLEr7zASuxv4MbboIsd66tNP4gDSz01wTPZv2LCR+niK9UAtMLZ0yRJavXoNv3B7Ub1M1E7WbYxXWUnNlSv7emQ/IvUVfqRsbQ8+UrZkn1kz4+5CDgSddEDyPIGu9mfHl5Oubu/cKVdPob11FJkTZY9X9oGlfv+1C9bSWfsXQSEHvE7MknswuYmSZ/XlBmdIntnn8V3iPjLe1eI/4WYm1SDxTHFzIyk3f4ODrDs0QJI3xTNzZeaSBIeKWNBe9K/4VWj3gj/Pk/O31rE9079ob5DLRDvO30s5sHLm2lvyHT8HlsRO1kVm1Jz5zDN4xswWE8DRelvHttL5F36bZwBN8SNUR5nsjfyeoHPOfhZFAzjyS2NLl1ZnOsmMHwmsyLYESbby9N/r+T0+xx33FBP8kWCMBEtuve2P5ufp5XovwZcHHnjQzDDSWUAy20feHSRBFVnW8ous5R0/t99+J/80/V4mKCSPeckvkWnAR2YT9fH04sGB6uwiU5H/2ZN5fPu7P6BT+BfP5PGxn1x2uQkQ8W2Oudd58MG/0NX8PiTRHh8fo6edeIKpegi/O0naUg0kPVPNmfWuu+xiHmW7g9/HJMuvf3MV3ysNmZdoS/BLAm4X//hS83id/Apbu5d2+LO0uen9VReNVx/md+fIvep7+Q+ccq7IjDPx39HRQXN/YV+DGtIybY6XWXHIFhapLbPqN/JkvrVr1/Bjl/20fNm27OPV+2exat8/65c6lWr1j7miK+2VL7SN7e3D9wWFG2iN8xf3k4FcqcFMkeNzZc2W8erI1iCJjaIJVHj4rfB/fXpB4bW8oFECO7LoWo8juq35stZBXi4wEoyRR7jk8X2xFL1cNWxrzzdk2pbT01J9ii8sci8nL7mWA5FjkGulrOWCVrtuVg1xvkpJ3fpGdW/mf6WuCTihvTGEytfANJA51ZCZGbPxK/Qv/LnuMTh/6yh8EhivOvd6NMhj50DG8fON993v4xb1svIImplxVM9pLSGBlqceewztwjN8JMiSds+gCr+96ve0A/+qmLxTSH4a/mSeJST1fvHLKzm4w7OG+HGwiy6+xBTfeaed6En77G1m68hPvN9z7730l7/8la/zffTcc55NMhtprxUrzIug1b78OtnNt9zGM4IW0dFHHWlm9eg++fn58/iXxvQ4N2/eYt4H9IqXn1fPq76gmn8VjY9JHnWTtbRNF5l5JEEmDUrZ+VN88dLH2DS/6PUUn+w8Ybu66Dqj/0SPTarj+ovrb90v2CHUlYxr6Ua9QLaE1MX9c5VlFGHDtoHMsBoyszGWUlId5y/O37rHsEOoKxnX0o16gWwJqVvk+YugULZ+CF7KBIX4BkdviGStHxHTfBWObmu+ro2T6UbCukUfTLBWzU7TLUJPDyZNV8sUoZ+mW4SetiVNV8sUoZ+mW4SetiVNV8sUoZ+mW4SetiVNV8sUoZ+mW4SetiVNV8sUoZ+mW4SetiVNV8sUoZ+mW4SetiVNV8sUoZ+m24qeT1BI29WutbxXR37JS94N1AmL/FKZBKPs5VKeDbR23Xp6Pv9UvfySWqctDUGhAAcf2p+zHlKartpo5XzSuknrNN0i9PQ40nS1TBH6abpF6Glb0nS1TBH6abpF6Glb0nS1TBH6phD02QAAQABJREFUabpF6Glb0nS1TBH6abpF6Glb0nS1TBH6abpF6Glb0nS1TKv6CAopwZLXoYNCJR8+5EAABEAABECgqwl0UlCoqzuiQxoXOijUIc3GYYIACIAACHQBgbl5uF3QGDQBBEAABEAABEAABEAABEAABEAABEAABEAgGwEEhbJxQikQAAEQAAEQAAEQAAEQAAEQAAEQAAEQ6CoCCAp1VXeiMSAAAiAAAiAAAiAAAiAAAiAAAiAAAiCQjQCCQtk4oRQIgAAIgAAIgEAPEZAf1cQCAiAAAiAAAiAAAt1OAEGhbu9htA8EQAAEQAAEQAAEQKBQAggiFooXxkEABEAABAokgKBQgXBhGgRAAARAAARAoDMJzGT57dfObBqOugAC8JcCoMIkCIAACIBAKQQQFCoFM0RAAARAAARAAAQ6jYD8zDgWEGhGAH7SjBD2gwAIgAAIzGcCCArN597BsYEACIAACIAACLSNwCQHhWbapg7hTiEgfoIFBEAABEAABDqVAIJCndpzOG4QAAEQAAEQAIHCCeALf+GIO1oAs4Q6uvtw8CAAAiAAAkwAQSG4AQiAAAiAAAiAAAgkEJB3xWzl6UL48p8AqEezZQbZOPsGgoY96gBoNgiAAAh0EYGBLmoLmgICIAACIAACIAAChRCwv/z3VfBXtUIgz3Oj+iih+AJeLD3POwuHBwIgAAIgkJkAgkKZUaEgCIAACIAACIBALxOoB4Z69B0yn/vMZ+gLn/0svemtb6W3vO1tvewKaDsIgAAIgAAIdA0BPD7WNV2JhoAACIAACIAACIAACIAACIAACIAACIBAdgKYKZSdVWEl9Q+OPBu99UWNqIUMxrRKhqJq1b32NORZPF1T92ZoRBBd0fM05FlcW9S4ViOai/YqifpaEWVAU6/jTHga8izulKz7lO7N0IgguqLnacizuLaoca1GNBftVRL1tSLKgKZex5nwNORZ3ClZ9yndm6ERQXRFz9OQZ3FtUeNajWhut7dX26nt7vb2aju13WivkqivFVEGNPU6zoSnIc/iTsn6mKF7MzQiiK7oeRryLK4talyrEc1Fe5VEfa2IMqCp13EmPA15FndK1n1K92ZoRBBd0fM05FlcW9S4ViOai/YqifpaETVDg6BQHVn7E9JpzTos6Sij9dQBksrb+bl0Zy2l2Qrx/5mXXLoRFesoInvim7l00d440IScXJwjNtG/ESDWZi7O8GeLZHoyF+eIafhzBIi1mYsz/NkimZ7Mw1ksy6VeL/fw52TWeThX4M/JYCN7cnF22IpkJW7m0kX/JnKN7sjFOWJMbGVdcumif7NiNrEkvZ5krlQrGK2H/k0m2MyfERRKZlf6nqhjt3IAPieD2s+nW61tdD0NeRbXw21Yo70NOJwb+Tijf51QHZn5OFcNwp8dYCNZ+TjDnyM4Ezfzca6ahT8n4q3vyMcZ/lwH2SSRj3PVOPy5CWTenY8z/Lk54WqJfJyrNuDPzWnn4wx/bk4Y/pyVUbRcEecvgkJRym3YlmEj38BjHbSHIY+ilkBC0sOYR9EEMSvbw5hHUUsgIelhzKNogpiV7WHMo6glkJD0MOZRNEHMyvYw5lHUEkhIehjzKJogZmV7GPMoagkkJD2MeRRNELOyPYx5FLUEEpIexjyKJohZ2R7GPIpaAglJD2MeRRPErGwPYx5FLYGEpIcxj6IJYla2hzGPopZAQtLDmEfRBDEr28OYR1FLICHpYcyjaIKYle1hzKOoJZCQ9DDmUTRBzMr2MOZR1BJISHoY8yiaIGZlexjzKGoJJCQ9jHkUTRCzsj2MeRS1BBKSHsY8iiaIWdkexjyKWgIJSQ9jHkUTxKxsD2MeRS2BhKSHMY+iCWJWtocxj6KWQELSw5hH0QQxK9vDWNaiCApZfDs52UrEMER7oRuCYnMb4NycUYgS4ByCYnMb4NycUYgS4ByCYnMbvcZZiLSjze3QbFdboSsEylngV+BcBAH4VRFU4zbBOc6k1RwEhVolN9/qZQ0Dhj5u6IYm6rYHzm4uoXPBOTRRtz1wdnMJnQvOoYm67fUaZzeF4nN7jTPaW7xPiQI4g3MRBOBXRVCN2wTnOJMWcxAUahHcvKwWDZeWdaKobll6Cl91dbssfdUtS0/bp7q6XZa+6palp+1TXd0uS191y9LT9qmubpelr7pl6Wn7VFe3y9JX3bL0tH2qq9tl6atuWXraPtXV7bL0VbcsPW2f6up2WfqqW5aetk/Wqi3psvRVsyw9aZssqlvdQnuVQ+i1ckb/hibbaE85a25ZvFW3LD1tn+rqdln6qluWnrZPdXW7LH3VLUtP26e6ul2WvuqWpaftU13dDqTfp/awBoGWCEQdsyUjHVQJ7e2gzmrhUNG/LUDroCro3w7qrBYOFf3bArQOqoL+7aDOauFQ0b8tQOugKujfDuqsFg4V/dsCtPlVBUGh+dUfrR8NRwlnuLb8JLx8TJpP0EDBw8TjsjXNeFC0oB6JtpHXaK9CCb9G/4Zn6rQIfyb59daihw/4s9P7wmfCn7vbn9lj5HqP+43wp45tEeOVTaPANMar7h6v0L/o3wKGj24cn2OPj1179e/pumuvTcVX6eujV73mtTQyOppaDjszEjDRFC7b4jcic3PG3ilr7hqanqquZ8Rja0ulRdta37XWw5Z98oXOLKxj0vxPhUWdulbZWi2vlVSfRXsJ/evlNk0Lq1tKQfgzzt+6w6hjtDiGYrzC9ch5Haw7WGsJdUupXeZ4ZR9tBfcbBkc39S/GK4xX8Gd7lGst3a7xGecvzt88528sKPSrX/yCPvn/Ptr0LHj22efQ7nvs0bQcCpRDQJxAvrNMjM/S5NQkjQwPUX9/VVsCKCZi1OKXmrQWmCDUNNH4+CRV+iqsO2ACUzP8J8QC5OqHgvaif4twMPgzzt/6IBMwgfEK41U3jVdyauB+ozpA4P4q3ECJ6y+uv+G8ac4Srr+4/nbT9bdIfx6Yrc3omDt9qqmnnXwynfvSl0ez69vLli2rp5GYBwT4Dm2KZwg9sXo1/9VwlhZusw0tXrzA/AVRHCj2ksRAhyw3RFu3TtK69Ws5CNVHy5YupaGhWjTK6ErcWhKBF7QX/RvYpcQc/BnnL8arACcWxufyxucxvv6uK/n6yy4yw5d23G/waGHucwKcMw4TMhu4l+6v0N7uvv6if7u7f3H/3Pn9O/CLn11Bp55+RuxydMCBB3FQ6GWxfGQUSCBn/ESqT8/wtB1OzJg/XzWZICQVZMkRsxETMxyEmuY7xEpllqXlv4yLFMypjfamINSOyMkY/Qt/dhLA+evEkpQpuDBeYbyq+0ew8Vn8CtffOtekRAeOV9KUXrr+or3dff+M/u3u/pUhtpfGq25s78B3vnmhMygkJy+WEgiwV8l39hzf2+sHKY+LLd9uO5qenKKRkWHzF6x+Nlx/30C9JCdqupIljt3qItN9RxcM8UOcy4ifHuNZQjz9ldfyV0TnEkhXbKO9zAD9W3WzQH4Ff8b52zBuBfIrjFe4HhXhV2a8Gh3kG4jyr79yncf9RrH3V/LOpl66v0J7u/v6i/7t7v7F/XPn9+/Alb/4ecO9CjZKJCBfOPjGKsQyzROEJLI0OtJPUwP9NMA3E5KnU5sbdKwvOnm1p3l6Mz81Rgv4xlSaIjoyRdTMVOINuXGsLyF10V70rzpWSL+CP+P8LcKvMF5hvCrCr9o0XklTeNjF/Ybc38j1p6D7HLmX6qX7K7S3u++f0b/d3b/4Ptj5/Tvw+OOPm+fRlyxZKtf52PLIww/TqhtvoIGBATrqmGMoqVysIjK8CMgNln1f4VWZC3MciKeQ8/0JfyQgJLODJCAjkXlz9yYCjiUh21EyPUuDP6YNrNk/21drj1vBnZuuYe9Fe9G/tj9oOq9fqR34M85f9QVZ5/UrjFcYr2x/0nRev1I7ZY9XoivXetxvCITah1fRpVP7F+MVxquoL8s2/NlFpXle2eMzzl+cvy6vzHL+ml8f27B+QyzYc/9999Epxx1LN626scH2Ucc8hb5+4bdol113bcjHRgsE+K5KO8kEU8w//nbMzRkb0oFHLOhfriQ4FLPNGarrrzZXQ+zamrIn/qiaUa9WEl1b2NpVLZDtX6mmQS+tgfYqCV4LZ2uz1aRwRv9G6VlOK5xt0NauaK20bakGf64SEg4Go82S0zbmNJZp+8Qk/DlKyAItnG3Q1q5orbRtqQZ/rhLqRn/Wvpd+VhfB9VepVKHYp5G1xyspbDFeRZGpx3E+JzFeRfk03xaCGJ+rnLpxfEb/8tBQGybQv+znMk42HxbqJUxQaOPGDfUMTVz2kx+b5FOPP8HMEHrs0UdJ3j903bXX0DlnPYN+csUvaPsddtDiWLdKoOa89burFu2omRart1zNW9e7gvvQAplxG0/J9db1ruAWD2TGbTwl11vXu4JbPJAZt/GUXG9d7wpu8UBm3MZTcr11vSu4xQOZcRtPyfXW9a7gFg9kxm08Jddb17uCWzyQGbfxlFxvXe8KbvFAZtzGU3K9db0rpIjzrsDm0sVa0Qt0gIHMNG1ftIC3rneFqGJ1O5AZt/GUXG9d7wpu8UBm3MZTcr11vSu4xQOZcRtPyfXW9a7gFg9kxm08Jddb17uCWzyQGbfxlFxvXe8KbvFAZtzGU3K9db0ruMUDmXEal4eLaHhoOLZz++23p99cex39+Iqf00c+9gn64le+Rtfd8keS/Hvuuov+7Z8/HauDDBAAARAAARAAARAAARAAARAAARAAARAAgc4gYIJCi7fdtn60pz/zmfRvn/8CXfbLX9NBBx9Sz5fE3vvsQ//3k58yeb/7zW8a9mEDBEAABEAABEAABEAABEAABEAABEAABECgcwiYx8eWLJ17yfThRxxJ8klajj3ueLNL3jW0dcsW/rnMBUlFkQ8CIAACIAACIAACIAACIAACIAACIAACIDBPCfTJO4OGhoYyH97U1FS97KBHvXolJEAABEAABEAABEAABEAABEAABEAABEAABNpOoO/0Zzyz4SBuvmkV3XP33Q159sbll11qNs945pnmZ+rtfUiDAAiAAAiAAAiAAAiAAAiAAAiAAAiAAAh0BoG+V772tQ1H+p63/z0dfehB9P8+/EGSXxyzl4v+5wf0vne9w2SdFgkm2eWQBgEQAAEQAAEQAAEQAAEQAAEQAAEQAAEQmN8E+pYsmXuf0MzMDO27337miP/lU/9I+++1B+2x43Z05qmn0H577kavetl5Zt/r3/gmevXrXj+/W4ajAwEQAAEQAAEQAAEQAAEQAAEQAAEQAAEQSCRgfn1M9/b19dFnvvAluujSy+kFLz7XZG/auJGu+f3v6PHHHyd5/9DHPvVP9Il/+heSslhAAARAAARAAARAAARAAARAAARAAARAAAQ6k4D59bHooZ940kkkny999b/oCQ4GbeTA0G67707Dw8PRotgGARAAARAAARAAARAAARAAARAAARAAARDoQALOoJC2Q2YD7bDjjuajeViDAAiAAAiAAAiAAAiAAAiAAAiAAAiAAAh0PgE8A9b5fYgWgAAIgAAIgAAIgAAIgAAIgAAIgAAIgIA3AQSFvJGhAgiAAAiAAAiAAAiAAAiAAAiAAAiAAAh0PgEEhTq/D9ECEAABEAABEAABEAABEAABEAABEAABEPAmkPpOIW9rqNA+ArMJ0pWE/E7PRnurPYj+7XRPrh4//Bn+3B2eDH+2+7Fbx2dtY3Tc6tb2Rtup7Ud7lURnr9G/1f6DP3e2H+vRw5/hz+oLnmsEhTyBzdfirrE8aVwI2waXiutowqq6FFxHElZVrLlUXEcTVtml4DqSsKpob5Wni35Y0i4F9G9YxlVrLqou+mG1XQquIwmrKtZcKq6jCavsUnAdSVhVtLfK00U/PGlRsZXQv+EZ4/wVpraXFcHYrQB/LoK1iyr6NzRpF1EX+dC6GK+EqIt+WNIuhVD9i6BQ2L5qmzWnQ7g8p/AjLEcU7eWOLAd1xGPKEUX/on8jjlfQJvy5CLA4f7v7/BWfkT5u6OdyTiWRtpZyRBvaqerlSKtabV2OKNrLuMtBjf6NEChiE/4Mfy7Cr+I2yxk0ivRnBIXivdqZOeX4YhM2JR5EiVLJjS7xIEqUQnuVQInQS5TS1sXXJR5EiVLxdmpOiQdRopS2Lr4u8SBKlIq3U3NKPIgSpbR18XUbDqINknPtLlG8RKm59kVTJR5EiVLRVs5tl3gQJUrNtS+aKvEgSpSKtnJuu8SDKFFqrn3RVIkHUaJUtJVz2yUeRIlSc+2Lpko8iAKlEBSK9iu2PQkU6J2eR1JOcbS3HM7tUkH/tot8Obro33I4t0sF/dsu8uXoon/L4dwuFfRvu8iXo4v+LYdzu1TQv+0iH0oXvz4WimS77Tjnk7X7oArUR3sLhDsPTKN/50EnFHgI6N8C4c4D0+jfedAJOIRgBODPwVDOS0Po33nZLcEOCv0bDOW8NIT+DdYtmCkUDGV7Dc1GArRmU0+UyL6QR6oSarNAKZUwa7SXMSj8AqGrhMIvUEol0L9MwHBW+AVCVwmFX6CUSqB/0b8NvhByA/4ckmZzW8ob41VzVq2UUL5aF+Ozkgi7xv0k81RnK9DJVEJ7r0AplTBr9C/6t8EhAm10oz9jplAg52inGXVMWdvpoo/J1rLT0A1LwGZrp8OqxK3ZWnY6XjJsjq1lp8OqxK3ZWnY6XjJsjq1lp8OqxK3ZWnY6XjJsjq1lp8OqxK3ZWnY6XjJsjq1lp8OqxK3ZWnY6XjJsjq1lp8OqxK3ZWnY6XjJsjq1lp8OqxK3ZWnY6XrKYHNEsU9fWstPFtG7Oqq1lp+dKFJOytex0MWpzVm0tOz1XopiUrWWni1Gbs2pr2em5EsWkbC07XYzanFVby07PlSgmZWvZ6WLU5qzaWnZ6rkQxKVvLThejNmfV1rLTcyWKSdladroYtTmrtpadnitRTMrWstPFqM1ZtbXs9FyJfCkEhfLxC1NbelZ7t0WLFQ65z8xUK/fVelU2oxHyFs17VZvltujHWRHtdWJJy0T/sn8zIPhzmpeE2afnrqydC85fJ5a0TJy/OH/T/CPkvjLOXzleHR9wvxGy95rbKqN/MV5hvGruiWFKwJ8jHHF/FQHSfBPjVbjxCkGh5v5WbAkeAGQKZd5plDKw9td6czoSHNKbt3hDAow+teOfZc0ZMVdrTIWPRW8WG3Rr5dHeBipNN9C/c/4Ef1Z3wfmrJDKvMV6ZMRrjc81jcD3KfOpEC/bVLuK434iS0W2Mz0oi8xrjM8Zn21kwPts0MqfxfQHfF+LOku16hHcKxcmVlyMDXt7oiB4t25GZQps2j9HkxASNjo7SgtHBapBGyog/hNJSTV739RNt2cq6mzbRwGA/bbtolPo5b3q6WkhvHM1WbYC3qreeRHvRv/Dn1s+fWk2cvxiv6k6E8bmOwjvRa9cjBiS3FBs34X7D+Arur7xPGVcFXI9wPar7Ba5HdRTeiV67HqG9wb4PIijkfbaFqxD6O+3E5Cxt2LiRxsfGeJZOhUaGB+dm6zjEKnIjw0ueR3Imp4gm+J/NHBka6K/Q8OAgDQ0PkASDGgJCrOM4BKPf6j9oL/rX9h34s00jW3renr+Ow+/q/kV7qav713Hx6/T2Tk/jfqM+G7oL+xf3V7i/si9LnT5ewZ/hz/Dn5t/3ERSyvaSD0zJLqMLTjkaGRzg408+BmRGOysxNEKrFf4IHZgbZg/r7B/jTT4M8U2hoaIAkb4pnCsnjZNHAUCjEaC/6V3zJcS+ey8Xgz/Pk/K11bM/0L9qb67zVyjh/yzl/DW/cb9QnYOP+Ss/AfGucv+Wcv7h/xv2znKk9c39VG5bQ3ubjM4JCzRkVVkJuJNRJ7XSrgsNDHKBZsojk/T4cpzG21b7L5mxd3bU3Wx4/qUbbLCAORi0zESj5y9kUzx6StQSE7Pe/2G3Um6hsKu5SaO+c/7gIoX9dVNLz4M84f9VDMF4pidbWGJ+7e3we4MfEl+B+I/HkwPU3EU3iDlx/cf1V58D1V0m0tsb1t7uvv0X1L4JCrZ1vYWpJ0KQWtcnzbiExYWbk8Cg6wMEYmSHkWmpSc7tiGXO7sqSk+oB4EOvqS66lnrbFDghJvsSgZKDPu4gu2hunGOvOWEa8TlqOVEf/wp/rPsIOgfO3TiNzQs4jjFdxXLHhKZYRr5OWI9UxXhU/XtX7APcbdRSSiLlvLKOheNMN+HMVEe4na67CDoHrb9PTJlZAziNcf2NYMF5hfI47BecgKOTE0nmZOf275QZDt2V0XhXB2QtXy4XBuWV0XhXB2QtXy4XBuWV0XhV7jbPCKbvdZeu1q53QVQLlrOFX4FwEAfhVEVTjNsE5zqTVnIQ5Ja2aQz0QAAEQAAEQAAEQAAEQAAEQAAEQAAEQAIFOIICgUCf0Eo4RBEAABEAABEAABEAABEAABEAABEAABAITQFAoMFCYAwEQAAEQAAEQAAEQAAEQAAEQAAEQAIFOIICgUCf0Eo4RBEAABEAABEAABEAABEAABEAABEAABAITQFAoMFCYAwEQAAEQAAEQAAEQAAEQAAEQAAEQAIFOIICgUCf0Eo4RBEAABEAABEAABEAABEAABEAABEAABAITQFAoMFCYAwEQAAEQAAEQAAEQAAEQAAEQAAEQAIFOIICgUCf0Eo4RBEAABEAABEAABEAABEAABEAABEAABAITGKCpycAme8jcwGAPNRZNBQEQAAEQAAEQAAEQAAEQAAEQAAEQ6CYCmCnUTb2JtoAACIAACIAACIAACIAACIAACIAACIBARgIDhNkuGVGhGAiAAAiAAAiAAAiAAAiAAAiAAAiAAAh0DwHMFOqevkRLQAAEQAAEQAAEQAAEQAAEQAAEQAAEQCAzAQSFMqNCQRAAARAAARAAARAAARAAARAAARAAARDoHgID3dOUzm3JbO3QK3maoEbURgZjWiVDUbXqXnsa8iyerql7MzQiiK7oeRryLK4talyrEc1Fe5VEfa2IMqCp13EmPA15FndK1n1K92ZoRBBd0fM05FlcW9S4ViOai/YqifpaEWVAU6/jTHga8izulKz7lO7N0IgguqLnacizuLaoca1GNLfb26vt1HZ3e3u1ndputFdJ1NeKKAOaeh1nwtOQZ3GnZH3M0L0ZGhFEV/Q8DXkW1xY1rtWI5qK9SqK+VkQZ0NTrOBOehjyLOyXrPqV7MzQiiK7oeRryLK4talyrEc1Fe5VEfa2ImqFBUKiOrP0J6bRmHZZ0lNF66gBJ5e38XLqzltJshfj/zEsu3YiKdRSRPfHNXLpobxxoQk4uzhGb6N8IEGszF2f4s0UyPZmLc8Q0/DkCxNrMxRn+bJFMT+bhLJblUq+Xe/hzMus8nCvw52SwkT25ODtsRbISN3Ppon8TuUZ35OIcMSa2si65dNG/WTGbWJJeTzJXqhWM1kP/JhNs5s+VNVvGffglK2GPFwEOn1ClUjEf00mc7qttiyHZZy/RbXufpCu1Xqx3ZmP1aHGzrWUzFHXWl8wG3YyGguuaA0k8xPqO4Lpob52tnQjOWYxnYB1cN4OmHFpwXbRXCMSW4JzRvzHGkhGcsxjNwDq4bgbNrO0d+vMt1P+zbxHxGgsINBDY+xCivQ6mraef15A9n/254UAdGw33dbI/w7mE9jpANslq4JyBsZgLzlmMZtAOrptBE+0VAv5Lg19J9Qys0b85OWdgLArBOYvRDNpZdTFTSIC2eZH+zNCn2Y7Sw5BH0ebaHsY8ikI3SsADnkfRqEp828OYR9G4TjTHw5hH0ahKfNvDmEfRuE40x8OYR9GoSnzbw5hH0bhONMfDmEfRqEp828OYR9G4TjTHw5hH0ahKfNvDmEfRuE40x8OYR9GoSnzbw1izoqNXfJPo5xwQwgICLgISKOTPKO+zA0PN/MplKjHPw5hH0US5+g4PYx5F6+YTEx7GPIomytV3eBjzKFo3n5jwMOZRNFGuvsPDmEfRuvnEhIcxj6KJcvUdHsY8itbNJyY8jHkUTZSr7/Aw5lG0bj4x4WHMo2iiXH2HhzGPonXziQkPYx5FE+XqOzyMZS2KF03X6XZ2QqKAGgkssyXQLYc2OINzEQTgV0VQjdsE5ziTInIK4YyAUBFd1X022U9kRlnIpRB/znCA0M0AKUARcA4AMYMJcM4AKUARcA4AMYOJIjljplCGDuiIIlnDgKEbA93QRN32wNnNJXQuOIcm6rYHzm4uoXPBORdRM0solwVUBoEcBHD+5oDnURWcPWDlKArOOeB5VAVnD1g5inYhZ7xTKIc/5Klqv1NI7Oj7hfTdQbpWjei25jesJXxoL2U5rOqWpadtVF3dLktfdcvS0/aprm6Xpa+6Zelp+1RXt8vSV92y9LR9qqvbZemrbll62j7V1e2y9FW3LD1tn+rqdln6qluWnrZPdXW7LH3VDaQ3yHYGAtlSFFh3H4Ep9rtJ9b2QzVObZfug6mpbytJX3bL0tH2qq9tl6atuWXraPtXV7bL0VbcsPW2f6up2WfqqW5aetk91dbssfdUtS0/bp7q6XZa+6palp+1TXd0OpI/HxxQo1q0RiDpma1Y6pxba2zl91cqRon9bodY5ddC/ndNXrRxpAf2LgFArHdF7dQrxkwL8eV73DNo7r7sn98Ghf3MjnNcG0L/zunuyHByCQlkodUIZjhLO8HHKT8LLx6T5BA0UPEwkYGua8aBoQT0SbSOv0V6FEn6N/g3P1GkR/kzy661FDx/wZ6f3hc/sEn/uK9ohw5OHxTYSCO0vGK9K6swuGa8y00J7cb+R2VmyF8R4lZ1VrpIFnr8ICuXqmUCVJZpiIiqt2ZOqM3w2yrrCPSpp+UX7Gc6Qj3zZKmKxzYqG+bCQ0eV/EnWlol3Z8+CkKtqL/vV0m6bFbZeEP+P8rTsMxqs6iiyJbhqf+7M0GGVAoAACuB5VbxNxPxlxLlyPIkDSN7vpepTe0upetBfff7P4SVIZBIWSyHRYvgSB5K9UE+OzNDY+YYIm/XxHK0Eis9h3GAHb1lcLQo2NTdL4xJS5ikueHIwcU1EL2kuE/g3vXfBnPnVx/gZ3LIxX3T1eBXcYGOxIAqGDiLge4XpUxImA61F3X4/Qv+jfVseN/ve8/x8+3Gpl1GudgMRL9OXSYkXT+kJpXatCdFvz62s2ODVN9MQTq2lsbEws0vDwYHWKJO8z8RnzT71GmAQHm7ZsnaS169bSxMQ4DQ0Nc7CiGomSgan6t54E4YTsTAfGddFe9G8mX/EpBH/G+Zv0EBvGq+xnUpvGZ5nhtzXg9aif2xH6kaDsEFGy0wjI4xPyCbWE9ufMx9Ul5y/am0AA/VvK9yOcv/g+WPv2HT8R+RxseSnw/MVP0rfcKwVUlNk8ORxFqk/PcGSIEzOz1VuTVJOyU5acmjM88k3zHN9KhR85Mf9VzTb9N/XgmtY2T6ChvSndh/5t7kSREoIM/hyBkrSJ8zeJjDNfcGG8Kna8EvDtOn+dnY7M3iUQ4Por8Nrlz+0Yr9BeuYPOuEjBnPfuZV+P0L/o30Tv7kB/lkPutvEZP0mf6KHF7qj/JD2P6jKum5lAPLWmUvuzZHRmUHTbPjpzEWEj8uz1+MQ0TU9O0cjIMA3WQn4SreZ4TeMFRPJqRuRFza0sxiTXneQ41FZ+fEwOfcHooFnLsZimiHhdiZO2roi2oC0WpR7aKyAYqTCNYG7g3AJjY5f/kdle6N+qr8GfxdnmTlk9D8VXfBath/O3Sg3nL3Ow/SrHeCXXBZlBGup6hJ+j9zmzUbb+s/Tz1J+z9FA7x+fQ5y/aGyeA/i3v+xH8Gd8H5+6Y+Vy0rwtyarZwr1P0+YugUHzMLCXHBIXYI/qqz1jlDgpNy8QgdjB5z8wUv9pnoPauH2Oevch8oVUHtBxTGpsnKCRf7ETDrNmWPAMvk5RkppK0zeiq50d1RVyPSdIZFzbDf3Hnf9Bew14GGvTvnPPAn+dYpKXkPML5i/GqPghjfK6j0PNmPgaF/nDddXTDDav0EM16aGiQXvXKVzTkYaN8AiYoxPcm9m0NrkfZ+gHXI9w/4/vC3Lki50PDQDK3KzUl9fD9iO9tZRyWgZiB4PvRnMs0ux7h8bE5Vm1NyYls30j4HswAB4NkIJCAjASE5K/PciKYF02Lcfk4loRsR8n0rOpgXmsD6/fP9tXa41Zw56Zr2HvRXvSv7Q+azutXagf+jPNXfUHWef0K41V3j1e2rxSdvuuuu+nhhx+mU089pS7V1xf6FcdEGzZsoH/513+nD3/oH+o6SPgRyDtuqBquR7geqS/IOq9f4XrU3dcj9C/61x4vNJ1l3EBQSGm1Y81BG+0kExAy//gfiFTTIJDWNhHSWn7MNmeorpZvZS129WZF68txNC5GvZoluvZ+a1djnfQtqYb2VhkJB4PRZslpG3M6zeS9YhL9G+VjgRbONmhrV7RW2rZUgz9XCcGfmYP4VZrDZNwnfoXzNwrLOkmFsw3a2hWtNd+2d99jdzrxhBMKPayxsXG6/4EHCtXoSuPiVwEaJu6I8zcK0jpJhbMN2toVrZW2LdVw/a0SwvWXOYhfpTlMxn3iVzh/o7Csk1Q426CtXdFaadtSDedvlVCI8xdBoTRvK2Ofngi6blEzZ/UWVWsBCZ/agQ40kBmfIzdlvXW9K7gPKZAZt/GUXG9d7wpu8UBm3MZTcr11vSu4xQOZcRtPyfXW9a7gFg9kxm08Jddb17uCWzyQGbfxlFxvXe8KbvFAZtzGU3K9db0rpIi3edett91GX//6N+hT//gJfoybp+vy8sUvfZn22GMPOuP00+grX/0a3XLrbTTILxt87jnn0Cknn0S//s1v6YYbbzS/WCozkJYuWULvePvf04aNG+if/+XfjI03veVttNNOO9IHP/B+s41/yiPg7Z7eFdxtCWTGbTwl11vXu4JbPJAZt/GUXG9d7wpu8UBm3MZTcr11vSu4xQOZcRtPyfXW9a7gFg9kxm08Jddb17uCWzyQGbfxlFxvXe8KbvFAZpzGERRyYkEmCIAACIAACIAACMw/Atdccy3dc8899QM7YP/96aXnvYQ2bd5M1113PR1zzNG0du1auvYP19G5L34RfeVr/8XvD5v9/9l7E0BLiur+/9y3v1kYZmMdwjIwwy4wYHBBFgkKokbjSoy7giLmZ4wYxSWaKEZjjIAoMclfWd1iZBEUEMSIKPvOMIAwbLLNvrz9vX+duu/0q+6u7tt1u7rv9m14r6urq8636lOnl3emupvO/uY36Lnnnqcv/NM/07Jle+lg0F133U1/97G/pf323Ze+de536Kc/+xmd+qFT6J+/+AX65Kc+Teeec1aggwQIgAAIgAAIgEB7EkBQqD3HFb0CARAAARAAARAoi8AjdxPxTz3Lce9wqrXvvvvQm974xqDO4OCAnh10/KtfRVf94pc6KPTLq6+hFx14IM2fP59uvvkWnfeLX/5S15lUb+F88MFVOr1kyc50wP776/SLDjyArr3u+sAuEiAAAiAAAiAAAp1BAEGhzhhn9BIEQAAEQAAEQMA3AQ4EXXuxCgjdV7/la39IdPKXiJYemMnG3LlziYM50eWVxxxNP7v0Mnr88Sfouut/TZ88/e+DIttvtx0tXryd3n7/+95Lu+26K9151100a9asoEy3ekPpFH+twlim1Ayjiryk0MhHEgRAAARAAARAoH0IVB88b5/+oCcgAAIgAAIgAAIgUA6B89S7dvIEhKSVHFjKucyZM4decvif0z9/+UxatGghLd1jD21x//32o2efe44OO3QFvfiwQ2mgv594dlHasmDBfD37aOWDD6YVwz4QAAEQAAEQAIE2IICZQm0wiOgCCIAACIAACIBAyQSuvtCfIAeWeNZRhtlCv/3tjcQ/svT29tJ/fOdcvfma15xAN/3+D/S6154ou+mUUz5I//7vZ9HJHzpVB3rmzZtHH/vb0/QMoOgsoEql+m+FPT092sa/fv0b2g6/W6hfBZOwgAAIgAAIgAAItB+BytqtI+ZH4dqvh03ao4r66CHfjMkNmaTNbbPpkm/mIQ0CIAACIAACIFAMgV71mY+etE99cFCIH/3ytRz7ViLH9wu5SI+Pj9PExIRTcIfLj42N0cBA+swil3a0a9lxdTc9hjvqdh1e9AsEQAAE2poAZgq19fCicyAAAiAAAiAAAiCgAlxq9g//uCzd3d3EP1hAAARAAARAAATalwDeKdS+Y4uegQAIgAAIgAAIgAAIgAAIgAAIgAAIgEAiAQSFEtFgBwiAAAiAAAiAAAjkIHDc29R7gvar/uQwg6ogAAIgAAIgAAIgUBQBBIWKIgu7IAACIAACIAACIMAvkV56ADiAAAiAAAiAAAiAQFMSQFCoKYcFjQIBEAABEAABEGgLAjxb6JF72qIr6AQIgAAIgAAIgED7EUBQqP3GFD0CARAAARAAARBoNAEOBsnCM4X4MTIsIAACIAACIAACINBkBBAUarIBQXNAAARAAARAAARanIAEhHZXwaCrf0DE6wICQ7ffcVcqqAdWPhjsf+bZZ2njxk3BNhIgAAIgAAIgAAIgwATcvk0KZs1LYCqhaZWE/FbPRn+rI4jxbXVPrrYf/gx/bg9P7kx/Tho7DgYdN73zUfX4mN7mR8nUO4bqXK6+5jrasnVLUHvduvW0+vHHg+3BwUF69XHH6u2HHnqEVj64iiYnJmnDpo00MjxCO+ywPW2zzfKgfCclhoeHqa+vn7q62vXC6Wk0cT2qgmxXN8H4Ynw9nSqawgz82Zs/IyjUFB6dvxG2a1fScZJfzbRgU7G1xqyTP21TsLUkv1LUgk3F1ppovXzbNgVbS/Kp2GrbVGytsdWtP8+mYGtJ/QpJNW0qttYk1a8v36Zga0l91tNq2VRsrUmz4b7PpmBribvlWjVsKrbW1LLjtt+mYGuJm9UspW0qttZksZW9jE3B1pLsFrOWtKnYWpPVXo5y/A6h6LuEott1mD/6qFfQ7XfcoQJDQ7r2+vUbaN68eTrd39dHLz5sRWD11tvvoCNe/lK65557aXx8goaGh1S9rWq20EZavHgx7bH7bkFZTlx0yY/oxBNeFdgzdz773HP08yt/Sa9/7Wto4cIF5q660ps2b6Yf/+R/qbe3l6ampvTPfvvuTYeuOMTJ3o+UjZe/9HDaaacdE+utXLmKbr71NqooV5iYmKAdd9iRXnXcKxPLN8+Oxviz7YixtcQ/J5uKrTV+lW0Ktpb4VWVrNhVba/wq2xRsLfGriv5Wedro+yVtU8D4+mVctWajaqPvV9umYGtJPaoICtVDrQnrWB3C5jmFt70cUfRXDWQ5qCMeU44oxhfjG3G8gjbhz0WA7bTj18qQZwOZM4J4lpCHpbe3hx56+BHad599dJCDJwnN37YaFLrn3vvpZSpAwssfbrmVhoaGaJEK4Dz/whraf7996ZE//pF6enpUIKaPerq7nVpzy62309y5c+iW224PZiI5GbAU7lZt+Ju/rr53aYMKVP3PTy+lffbem2bPnmUpnZylQkqJOzkIdNMfbqbXvfYEWrhggQ4KcZCoNRecr4oYN6v3lIM60p1yRNFfhb0c1BjfCIEiNuHP/vwZQaEiPLQRNhtygot2tMRGlCgV7eXMdomNKFFqpn/RVImNKFEq2suZ7RIbUaLUTP+iqRIbUaJUtJcz2yU2okSpmf5FUyU2okSpaC9ntpuiETPN8Zg6+KAXET8KpSbY6J/JyUlt/eCDDtTrrSoY9MADD+rHpP70zLO0155L6ZCDX0QbNmzQj4/ts7fb42M8q2fNmrX09re+iS754U9oq5ptNGtWNXBzwUU/oEWLFtLzz7+gHs3qpeNffRzN22YbSspPwjB3zhzd3pHREbr62l/RSw5/Me2w/fY6APboY6vpuGOPobvuvpfuufdeVa6bBgcH6A2vf602d+ed99ANv7lRBXzG6eijjqQlO+8UyFTU9CCeIcTvUuKgEAei9ttvH72f+/Sr63+tZ1ENDPSrWVLH6z4ElZsqUaI/lyiVjLjERpQohf4KgRKhlyglvYuvS2xEiVLxfkpOiY0oUUp6F1+X2IgCpRAUio8scpwIFOidTu0oqzD6WxbpxuhgfBvDvSxVjG9ZpBuj0/7jOzIyQn989LEQ3qf/9IzefkHNCOKAzyz1XqHXv+416nGvX9DAwAANqzrX3/B/9Myzz9G69ev1miscecTLVICl9vdGbr3tDtpz6R4qYNJHu+22K912+536sTS2MTY2RjvtuCMd/6q/oN/eeBNdf/1v6C9ff2JiPteRhYNZ1/7qeuL1c88/rx9bWzB/Po2MjOr3IHE5tj86Oqqr3HvvfXSMCvrwo2Ic4JKlVwWjTnrbm+mOO++iO++8OxQU4v4d+Yoj6A8336oCR7/VAatDDz2EdlmyM/3yml/RK454qSq/s277LeoRM5lpJbYbu25/fw7zRX/DPNptC+PbbiMa7g/GN8yj9bYQFGq9MbO3mOfPddLxiP7a/aBdcjG+7TKS9n5gfO1c2iW3U8Z3qZqZc+0PSxu18fFxukIFesyF38cjQRNO/+yyK/R7f+Zvu60uNkvNqNlRvVyal/UqIMSzeGSbZ9HUWjgo86gKQm2n3kHEAZyt6l1GL6xZo2fy8KNovCxftqde77XXUnr0scd0mn8l5UsBlt9TzWLi5TD1LiRps+zntepSsHCZX6vADr8oevmyZSQzo/ZevkyXma8CSo/88dGgvCR2V4Es/uFHyTig9qvrfq1mPb1Zz7a65bY71SNxd6qXcA/pmUlSp6PXnXL8yiCjv0KiPdcY3/YcV+kVxldI5F4jKJQbYXMYmIrc2+lNPlB4ieyrZvr5LRJirUApkdBr9FdhEPgFQhcJgV+glEhgfBUBzVngFwhdJAR+gVIigfHF+IZ8wedG6f7MQaGl+4XfHZSnQ8e9I7U2B2F4Rs699z0QlNu06QE162WJ3t60aaUKCJ2o3hk0c2vHL6GWF1H/Sc0o4q+PSRAlMJKSuPOue9SjYoO0//77BqV+d9Mf1GNc96mgzIt0Hj/exTOUHlPr2bNnB+WS8qVApdJFu+36Z7IZrPkxNH7HEM8Iemz16iCft0/aa0/ix+N+9OP/UZrVYFBacIuDWg8/8kfdZ350bIftt9MvtZ6YnCB+MfehhxykZw1xwIhnYfF6zdp1Kgi2SD8yN3fuXDWTiV/SPWwNWgWNKyBRuj9P9wH3VwqEwC/woigS4joFSomEXmN8Mb4hh/C0AX/2BLKGmSKP35k7hxqNwO7mJSAHoqz5wsLpoi8woidr6BbjI8JX1uAMzj4IiD/JGn7lg2rchvCVNTjHGfnIEb6yLoszHXuSCgqdka8LHFhiOxkW/lrX9iqwwYt+l5CKD8n28y+8oGfRZDCTucgDKx/UgajFKkgiCwdTrr3u+iAotHLVw3SregE1z+p5zfGvkmKUlB8USEgcsP9+dOPvblKPg91Nff39NNDfp0v+4pfXqMfJxnW/t523rX40LsFEkD06OkbcB358rLu7Swd9Djxgf/2I3SuPOUrPGqqoR8z4fUSHrVhB2++wHV3x86v042iXq/Xhf36YDhZxEOwdJ70tsFt0QvxY1mX5s+jJGrrFjLTwlTU4g7MPAuJPsoZf+aAatyF8Zd0unCtrt45In+K9Rk5hBCoqbFN9AaJyJTUCOq2mRMu/eMlaGhDdlnxe8wDyNGz1xVl1Q0ik7nvUTZPK13aLCw6J48iaDwq9SIbasM5Ol/1Bhel6GVdcHf3F+GZ0l8zFxC1lHbinZEz7Xcyg7A8qxEqkZnB1+DP8OdVJ6tgpbinrwD0lY9rvYqZlf1AhViI1g6u3iz/3KgY9WTlcfWEql8SderZR9QXRiWUsO+67fyXdd/8DtFi95Jk/U29brrzqajrh+OOCXfwuIP6cvG12DhdK+yR9YCSS+O/vXUDvffff6Hf/cMBKlqR82V9rPTnJn6mf1C+GNsvyzB9+TxDP+nFZ2N7Y2Cj1qyBTdGGbZtuj+7NujyvnH5PjJ2ulhHJiRtaBG0qGqof7KwVBeASAEoAmZHP1djlfJXQxlI3+4u+jkEN42pDDUNbB4SgZSgfnKwVBeASA3AaAqxd5vsJMIbfx8F9ajTD7Rp3+EbSHA0AcDGKHmVABIbbHASLOl+BQUDhIcGlecqgrE+ygOgil1qypLao0W2Xt0MLlpzOiu0LlamygvxjfuIuIR4mHxUvUzGH/VNXhzzh+ta/gfFXzkLEV6LTzs2ZQ49EvG6c8efvtuzfxT9piBoS43Ar1qFTaso16VKq72+22kB8t4yUaVEnKT9M39/F7g9RdjZml01GdWIGEDLZnCwhx8XptJkhNZ+N6lM7HshfXXw2F70HY+3H/jL8XLEdJzaxOu/6iv/7+HsRMoZqHVzEF9Ewhddrv4rO/WvRMoBwzhfgKwn/Ibt4yTGPqSx2D6usjswbVv9rpK4ta8f1JVUrrVX/lu2nh2hwEUu+dpM3qk7U9vd00b+6guqlUgSk1a4kXfV9XTaorXLgJ0ecipVittW41+ovxhT9PHyoxELUOIb0fxy/OVzg/zxwqtuuR00yhGVNIdSiB8EwhfaeiSOD8nMUdcD3C9QjXo5kjxXY9mtmbnMLfR/j7N8/f+27/JJTsh9hTB4H6bhWShUbVvOWNmzapr2gMq2BNRT2H3xvM3LHdl2jHUebqPflwS9Tj/TSqfm1RkaGebvUvcWr6eF9/jw4GhU7wqiz6y8TqXzC+8GfTe3D8mjSypXG+wvlZPMX39UjsYg0CTADnZ3c/wPkZ52fxGt/nZ9w/4/5ZfIvXOD+bNGbSCArNsGjpFM8S4tlGA/0DKjjTrQIzA2qajp6co4Mx+f7NKhkNf+SEp5vz8/29aqZQX18PcR6/30g9wh+eKZRsxnkP+ovxZafxfeMAf8bx63wyylAB56v2Pl9lcAEUAQFnArge4Xrk7DQZKuB61N7XI4wvxpdPA/X8fYTHxzKcQIsoEn18jF9kUlFTa+SF0rIW7ei25POaAz46AKOCQByMUe9mJH4tADtE1ClC2zkjRVx9XM0U6lFPqenHxTgIxIGo6TXPFAo9E63yRZ/rBhucdli4LvqL8WWXEX/S7qOdKpqp92T6xdXhzzh+A2dRDiH+pV1LNoIC2RJcF+er1jxf4fGxbD6OUlUCocfH9ElD5ec4b+B6hOtRcGzhehSgcEng+ou/B8VfQqdinJ8FS2iNoFAIR3kboa+PKVkO+sgPtyIaBIpuR1sq/h3NN7dDB4S5I0c6TbcIPWlqmq6UKUI/TbcIPelLmq6UKUI/TbcIPelLmq6UKUI/TbcIPelLmq6UKUI/TbcIPelLmq6UKUI/TbcIPelLmq6UKUI/TbcIPelLmq6UKUI/TbcePf6Hjf56Kkonse4oAqGgkIee+/bnrE1K0xUbRRwWabpF6Elf0nSlTBH6abpF6Elf0nSlTBH6abpF6Elf0nSlTBH6abpF6Elf0nSlTBH6abpF6Elf0nSlTBH6abpF6Elf0nSlTL36eHxMCLb4ul4HyNtt6OYlmK0+OGfjlLcUOOclmK0+OGfjlLcUOOcliPogkJ3A9Pc1sleoURLHbw1AnnaDsyeQNcyAcw1AnnaDsyeQNcy0I2f1sA8WEAABEAABEAABEAABkwA/9ocFBLISgL9kJYVyIAACIAACzUYAQaFmGxG0BwRAAARAAARAoCkI8CNBWECgFgH4SS1C2A8CIAACINDMBBAUaubRQdtAAARAAARAAAQaRmBMBYXUtxuwgEAqAfYTLCAAAiAAAiDQqgQQFGrVkUO7QQAEQAAEQAAECieAP/gLR9zSApgl1NLDh8aDAAiAAAgoAggKwQ1AAARAAARAAARAIIEAvytmSE0Xwh//CYA6NJtnkI0o30DQsEMdAN0GARAAgTYigK+PtdFgoisgAAIgAAIgAALFEDD/+OfP1eNf1Yrh3MxW5VFC9gW8WLqZRwptAwEQAAEQcCGAoJALLZQFARAAARAAARDoWAJBYKhD3yFzzlln0blnn00fPu00+shHP9qxfoCOgwAIgAAIgEA7EcA/dLXTaKIvIAACIAACIAACIAACIAACIAACIAACIJCRAIJCGUGhGAiAAAiAAAiAAAiAAAiAAAiAAAiAAAi0EwEEhdppNNEXEAABEAABEAABEAABEAABEAABEAABEMhIAEGhjKBQDARAAARAAARAAARAAARAAARAAARAAATaiQCCQu00mugLCIAACIAACIAACIAACIAACIAACIAACGQkgKBQRlAoBgIgAAIgAAIgAAIgAAIgAAIgAAIgAALtRACfpG+C0ZQv21bytEWMiI0MxqRKhqJi1b52NORYPF1T9mbohBdd1nM05FhcehReixHJRX+FRLAWRBnQBHWsCUdDjsWtkoFPyd4MnfCiy3qOhhyLS4/CazEiueivkAjWgigDmqCONeFoyLG4VTLwKdmboRNedFnP0ZBjcelReC1GJLfd+yv9lH63e3+ln9Jv9FdIBGtBlAFNUMeacDTkWNwqGZwzZG+GTnjRZT1HQ47FpUfhtRiRXPRXSARrQZQBTVDHmnA05FjcKhn4lOzN0AkvuqznaMixuPQovBYjkov+ColgLYhqoUFQKEDW+AQPWq0BS2pltJ44QFJ5Mz+X7pShNFUh9X/mJZduRMVoRWRPfDOXLvobB5qQk4tzxCbGNwLE2MzFGf5skExP5uIcMQ1/jgAxNnNxhj8bJNOTeTizZb7Uy+Ue/pzMOg/nCvw5GWxkTy7OFluRrMTNXLoY30Su0R25OEeMsa2sSy5djG9WzDqWJNeTzJWmC0brYXyTCdbyZwSFktmVvifq2PU0wOVgEPv5dKu1ta6jIcfi0tzQGv0N4bBu5OOM8bVCtWTm41w1CH+2gI1k5eMMf47gTNzMx7lqFv6ciDfYkY8z/DkAWSORj3PVOPy5BmS1Ox9n+HNtwtUS+ThXbcCfa9POxxn+XJsw/Dkro2i5Io5fBIWilBuwzaeNfCceo9EOhhyKGgIJSQdjDkUTxIxsB2MORQ2BhKSDMYeiCWJGtoMxh6KGQELSwZhD0QQxI9vBmENRQyAh6WDMoWiCmJHtYMyhqCGQkHQw5lA0QczIdjDmUNQQSEg6GHMomiBmZDsYcyhqCCQkHYw5FE0QM7IdjDkUNQQSkg7GHIomiBnZDsYcihoCCUkHYw5FE8SMbAdjDkUNgYSkgzGHogliRraDMYeihkBC0sGYQ9EEMSPbwZhDUUMgIelgzKFogpiR7WDMoaghkJB0MOZQNEHMyHYw5lDUEEhIOhhzKJogZmQ7GHMoaggkJB2MORRNEDOyHYw5FDUEEpIOxhyKJogZ2Q7GHIoaAglJB2MORRPEjGwHY1mLIihk8G3lZD0RQx/9ha4PirVtgHNtRj5KgLMPirVtgHNtRj5KgLMPirVtdBpnJtKIPjdCs1F9hS4TKGeBX4FzEQTgV0VQjdsE5ziTenMQFKqXXLPVyxoG9N1u6PomarcHznYuvnPB2TdRuz1wtnPxnQvOvona7XUaZzuF4nM7jTP6W7xPsQI4g3MRBOBXRVCN2wTnOJM6cxAUqhNcU1aLhkvLOlBEtyw9gS+6sl2WvuiWpSf9E13ZLktfdMvSk/6JrmyXpS+6ZelJ/0RXtsvSF92y9KR/oivbZemLbll60j/Rle2y9EW3LD3pn+jKdln6oluWnvRPdGW7LH3RLUtP+sdr0eZ0WfqiWZYe940X0a1uob/CwfdaOGN8fZMN2xPOklsWb9EtS0/6J7qyXZa+6JalJ/0TXdkuS190y9KT/omubJelL7pl6Un/RFe2Pel3iT2sQaAuAlHHrMtIC1VCf1tosOpoKsa3DmgtVAXj20KDVUdTMb51QGuhKhjfFhqsOpqK8a0DWgtVwfi20GDV0VSMbx3QmreKRsYAAEAASURBVKsKgkLNNR71t0ZFCSdVbf4kPP/otDpAPQUPE9tlaurzQdGC0hLpo1qjvwLF/xrj65+p1SL8mfjrrUWfPuDPVu/znwl/bm9/Vh7D13vcb/g/dEyLOF+ZNApM43zV3ucrjC/Gt4DTRzuenxEUKsBRnE3quyvnWkEFrj6pvJPXFTWinK7wSVBl8A//sVXEYpplDf2jhLSu+pWoyxXNyo6N46roL8bX0W1qFjddEv6M4zdwGJyvAhRZEjg/t/f11/QB3G/g/sr0hzxpXH+rt8W4f454Ea6/ESDpm7j+tvf1t+jxRVAo/fhqmb0cBOpSP6MjUzQ8MqqDJt3d1SCR7oR5xfXYq67pINTw8BiNjI7rqxrncWO4TUUt6C8Rxte/d8Gf1aGL49e7Y+F8hfOVd6dSBht1vuK+8OUd9xtMQi24v6pyyPm7Uf6M8zPOzzld11od/oz7Satj5Mws8nyFoFDOwWma6uoObXyC6IU1a2j9+g20efNWPVOHZ9QU+UzGlLI/NDRGa9etU7rraXR0YmaGkA4KFXS3hP5ifAs4+Ph46SR/Rn/b+3yF8cX4FnCa1CZ5RkPZ9xvwZ/hzIf7coPtJ+DP8Gf7sgQCOX29/D+LrYx780ZsJjp/oQEp9Frn6xKSKDKnEJEdr1JJqknfyklNzUj1rM6HuECsV9ciJ/q9qtubv1MbVrK37hv6mDB/Gt7YTWUp0kj9z99FfixPYslrwfIXx5StSxgXjmxFUtRjjKvv6y8o4X1X51/wNf66JyCwAfy7+7wXmjePX9LqUNI7fFDjxXTh+/Ry/CArFfavcHOXJHJPJEZcJ2suPEy1ctIgmxsZpYKBfP77VrQxb3+0zrcuV+WCqd+HpkYOz+tQcwQX68bW+vh695n9FtC6edNk2+qsYYHyrbubJr/gdGZ3kz+hve5+vML4Y39B12NN5km3y4+pl32/An+HPRflzI+4n4c/wZ/hzlUDSn4whPikbOH79/D2IoFCKkxW+i2/QfESDVEMn1AQhjiwNDnTTeE839ag/bjlP24/qGDeGefs4oSYkdSutWYO91eCWagNPidUzlZQ43zgGi09d9BfjK47l0a/YdzvJn9Hf9j5fYXwxvnKa5H/9MS/HQX6dCWWu9PsN+DP8OXBXj/7cqPtn+DP8Gf4cEKg7gePX39/7CArV7YZ+K/INVp4bNhUHUlO51awf9cMBIZ4dxAEZ/pcIPRWIBSxLQralZHqWBH90H5Rm91TXdH/sCvbcdA1zL/qL8TX9QdJ5/UrswJ9x/Iov8DqvX+F8hfOV6U+SzutXYqfs8xXr8rUe9xsMYfpHraJLq44vzlc4X0V9mbfhzzYqtfPKPj/j+MXxa/PKLMcvgkI2cmXlqbsqGSQdTNG/3MX1zZkyJCcetiAzkDg4FLOtMkTXXW2mBts1NXlP/FE1rV6txLqmsLGrWiDbb64mQS+pgf4KCbVmzsZmvUnmjPGN0jOcljmboI1d0Vpp21wN/lwlxBw0RpOlSpuY01im7WOT8OcoIQM0czZBG7uitdK2uRr8uUqoHf1Zxp7HWVwE11+hUoViHkbGHqcks8X5KopMPE7lqyTOV1E+tbeZIM7PVU7teH7G+KpTw/RpAuOr/JzPk7VPC0EJBIUCFA1KTDtvcHdVZzPETJ3V667mrOtcwd40T2bsxlNynXWdK9jFPZmxG0/JddZ1rmAX92TGbjwl11nXuYJd3JMZu/GUXGdd5wp2cU9m7MZTcp11nSvYxT2ZsRtPyXXWda5gF/dkxm48JddZ17mCXdyTGbvxlFxnXecKKeJql2dz6WL16HlqoCczNfsXLeCs61whqljd9mTGbjwl11nXuYJd3JMZu/GUXGdd5wp2cU9m7MZTcp11nSvYxT2ZsRtPyXXWda5gF/dkxm48JddZ17mCXdyTGbvxlFxnXecKdnFPZqzG+eEiLCAAAiAAAiAAAiAAAiAAAiAAAiAAAiAAAh1GAEGhDhtwdBcEQAAEQAAEQAAEQAAEQAAEQAAEQAAEmACCQvADEAABEAABEAABEAABEAABEAABEAABEOhAAggKdeCgo8sgAAIgAAIgAAIgAAIgAAIgAAIgAAIggKAQfAAEQAAEQAAEQAAEQAAEQAAEQAAEQAAEOpAAgkIdOOjoMgiAAAiAAAiAAAiAAAiAAAiAAAiAAAhU1m4dcfmEPYh5IlChKapUKvqHTUqa17KtE9O/JN/MQxoEQAAEQAAEQIDonLPOonPPPhsoQAAEPBL48Gmn0Uc++lGPFmEKBEAABECgGQlgplAzjgraBAIgAAIgAAIgAAIgAAIgAAIgAAIgAAIFE+gp2D7MgwAIgAAIgAAIgEApBDCzoRTMEGlzAph51+YDjO6BAAiAQIQAZgpFgGATBEAABEAABEAABEAABEAABEAABEAABDqBAIJCnTDK6CMIgAAIgAAIgAAIgAAIgAAIgAAIgAAIRAggKBQBgk0QAAEQAAEQAAEQAAEQAAEQAAEQAAEQ6AQCCAp1wiijjyAAAiAAAiAAAiAAAiAAAiAAAiAAAiAQIYAXTUeAtOzmVELLq1+4T9jZwtnob3XwML4t7MRG0+HP8GfDHVo+CX+GP7e8Exsd6HR/lv7jfsNwihZOynhGu4DxjRJpzW2Mb3Xc4M/O/ougkDOy5qxg8/2k84LfHthUbK3xq2pTsLXErypbs6nYWuNX2aZga4lfVfS3ytNG3y9pmwLG1y/jqjUbVRt9v9o2BVtL/KqyNZuKrTV+lW0Ktpb4VRVrrGSq2VojZf2sbQpmC/yo2KzYVGytsdWtP8+mYGtJ/QpJNW0qttYk1a8v36Zga0l91tNq2VRsrUmz4b6PFURF0raWuFuuVcOmIi2pVbf+/TYFW0vqV0iqaVOxtSapfn35NgVbS+qznlbLpmJrTZoN9302BVtL3C3XqmFTsbWmlh23/TYFW0vcrGYpbVOxtSaLrexlbAq2lmS3mLWkTcXWmqz2spWzKdhaks1auBSCQmEeLbtldQib5xTew3JE0V81kOWgjnhMOaIYX4xvxPEK2oQ/FwEWxy+O3yL8Km4Tx2+cSf4cPn7lGA7S5aCONL4cUelrSLwc6ZBkWTd16K/CjvGN+F4Rm+VAhj/782cEhYo4Dhphs5xjr0bPSmxEiVLJnS6xESVKob9CoEToJUpJ7+LrEhtRolS8n5JTYiNKlJLexdclNqJEqXg/JafERpQoJb2Lr0tsRIlS8X5KTomNKFFKehdfl9iIqFR0O964AnJKFC1RKhlUiY0oUQr9FQIlQi9RSnoXX5fYiBKl4v2UnBIbUaAUgkIynljXSaBA76yzRcVWQ3+L5dto6xjfRo9AsfoY32L5NoN1HuNOGedO6af4FforJNpzjfFtz3GVXmF8hUR7rjG+rT6uCAq1+ghK+3n+XCcdj+ivjHx7rjG+7Tmu0iuMr5Boz3XJ4zs5MU4HHXggnfzBD9AhBx1IvN3VXeLtTcn9bbjToL8NH4IiGzA5Pk6Hv/jF1P2RU+nggw4q/3gqsnM22/BnG5X2ycP4ts9Y2nqC8bVRqSuvsnbjZsaJpR4CPb311NJ1KuqJ7Uqlon84Q9K8lm2dmP4l+WaemY4OorYimQUGi0RC2lKglEjotVVXMgtshEhIYwqUEgn0VxHQnAV+gdBFQuAXKCUSGF+Mb8gXfG60sz9z4Gftc8/SnFmzaOWDq2jL5s106223UVdXF73iFUfQ8mXL6E/PPke7L1vuE6nVlpWzZBZ4EhEJaVSBUiKh11ZdySywESIhjSlQSiQ6pr98PI0PDxEHhLp7emhCrQcHB2liYoImJif1dm//AHUPDIbY+NzA+PqkmWzLylkyCzyoREJaVqCUSOi1VVcyC2yESEhjCpQSCfRXEdCcBX6B0EVC4BcoJRKFjy+CQiHUjhtNEhQSx5S1OGYlmuHYvVrFxbysA91aFXPuFz1ZB7rRjJw60epiXtaBbrSg523Rk3WgG80oS9ezTtScdEvW6G+UkJ9t4SvrgLMf84lWRE/WgW40I9FCfTvEvKwD3frMZa4lerIOdKMZmS1mKyjmZR3oZqtedynRk3WgG82oW4HoqccepYXzt6Xv/ud/0be/c16ipdPUTIf3vPtd9NwLa+nPli5NLJdnh3RL1kX019Y+0ZN1oGsr7DFP9GQd6EYzPGqyKTEv60DXs07UnOjJOtCNZkQr5twW87IOdHPatVWfHBmmURUQGhgY0IEgWxnOGxoaouHhYSoiOCT9lHWR/TX7J3qyDnSjGWYlD2kxL+tA14PtNBOiJ+tAN5qRZqSOfWJe1oFuHbZcqoierAPdaIaL0QxlxbysA90MdfMUET1ZB7rRjDwilrpiXtaBrqWszyzRk3WgG83wKapsiXlZB7qedaLmRE/WgW40I1ox43Zl7dYRMZWxCor5IBCaKaRGQM8U6grPHDJ10mYK8QDyBKPxCVL/SkrUrX7UP+zQlLY7HTU1jXlKi+PIWpwzOFqm2xWTi1WIlUjN4OroL8Y31Unq2CluKWv4c/U4i6GMAYqVSM3A8Yvzc6qD1Ni58t576NZbbqEvf/nMGiVndl904QU0a+5cWr7vfjOZkoI/C4lMaxy/7XX8TqhgULe69xxUAaGsy8ZNm/TjmT5nDclhKGtcf3H91f4Yc4isXloth/NVe52voqOP8fU7vggKRT2spO0gKKQmuvHFTwd9cgSFpNnm+ZMDJxwY4iDN9FNpUmx6bZaO7MqwqWvzL6XDQShec1BK9LhfWl+tg4XbMr0xJYlgZ7aEtJpLS5pNob9Rfiad6L7a27o2/1JwMb5Vv4U/4/itfeSES8hRyLmSxvkqzKi6ZdKx7Sd6ZOVK+v3vb6IvfenL9gIpueef/z2aN28+7bXvvjOllKRchnA9msGSlpJR4jKShj/biJl0bPvT83Rt/lXg9ZdnCKnbTqeAkLR6kwoMVdR7u2YCQ83fX2m7uZZWc56k4c8mIUmbdCQv+1rX5l8F+rOtNdJq3idpjG8aKabjvmB82+PvX/4THkujCKijqL7Dz9JgPtEqe5s2D9PatRtp69BYNSCjz36qvJwNLVXzZHV1Ew2PEK1dt5k2bhqiKRUc4sAQBxEmOFBkLuivScMtjfGFP7t5TKbSOH5xvgocpcnPz+uef47uvPOOugJC3Md3vvPd6tGXrbR+7Zpql5u8v8G4pCRw/OL4DdzD0Z8ncgSEWHOumnk3NTlBU+pdRL4W+DP8OfAlR38O6tkSuH/G/bPNL3LmteP5CkGhnE6RpzrHa3wuo2NTKjCzidZv2EAj6oKvZ3eoE6teLGL8zqHgvUN1NmRM3Q+Mql9btg6pF31uUTfd48R5vPC/QJlLZNPcVVca/VXYML6B78CfAxSZEzh+cb4SZ2n28/NgXy89+cQT0ly93mH77emKyy+lI454eSz/8st+RoccfHAo/2tf/VfaMB0Uavb+hhqesIHjF8evuIarP4+px8aidfil0l9Sj2Vu3LhRzOr12rVr6ayzzwnl8QY/csYvp+YF11+NwekXjl8cv+Iw0WNR8utd4+8jRQ5/HwXuk/X8jKBQgKy1ExwA4kfQBtTXIWbPnk19ak1qdOWY4LWkffa0V331t5unEHd3U29vL/X19RDnsRbPXCpqQX8xvkW4F/wZx28R5yycr/Kdr8aGttKll11O5/3Hd0PD88yzz+o/YM/79rk0S32FTJYfXHIRzd92W7r9jjskS6/562Rr16ylrZs3hfLzbmB8841vVv44P/s5P3Mgp18FdPjF0uYypZ6P/s//+m86/ZOfMrOJHxU7/4ILQ3m80aO+Usb3nZPjY7F99WRgfP2Mby32OF/hfIX751pHSe397Xi+wjuFao97ISX0O4XUv9N0yct+1LqS451CHIDhx7b4ZdP8CJeK0+h/BYpGn0PbclYIZWbvLldXXy0l/gib+gcmHQniNvB7V3jNM4VC72BR+SKlpWUju6QuyXXRX4wvO0PIhbRTRTO5VLaFq8OfcfwG3qIcQvxLu5ZsBAWyJbguzlf5zlerH3mYfvbTn8aCQjwC/f39dNstf6AHV62iv3rTW+gzZ3ya3v2ud9IrjjqGnn766dggHbpiBX393/6VFu+4BOMbo1M7A/7c+vdX/C6hbnU+iwaFxtUFcK/l+9Duu++uv9r3N+/4a+0Qq1evpr9681vp1pt/H3MQrrNFfZWsb9bc6r4c50lcf3H9DRwM198AhUsC5+fWPz+njXfR46tCB1gaRkBdPOXllhIbqqctfA3Wj2opb+lRwRieIWRbYtfqWIatVnIeV1f/UKQ6oQ5CQ1P6EgoIsRlVgR0678K66G+cYmw4YxnxOmk5XB3jq9x2miP8Gcdv2vGStI/dB+erOJ3Y6SmWMVOnRwG87bbbZzKM1MjICL37Pe+jH/3wEvrKmV+mt7z5TfTZz33eGhCSaqOqDq5HQsNtDX+284q5byzDXi8pl6sXdf2dUDN7+gcHk6TpO+eeQ29UAdaDDz6I9t/P8sW+SE3d1Sbub6S5oU1uNs7PISR6IzacsYx4nbQcrl6UP9fSxfjGCcWGM5YRr5OWg/Gt0mn1vxcQFErz8hbal/N4rrun0K0bnVNFcHbCVXdhcK4bnVNFcHbCVXfhduG8cMEC4ke/khbe9/3zL9AzhO697z666OJLkopqO2zP59IunLMyQX+zkspXrijOE2pKDj/6lbTstttu9NWvnEmnnnoa8bu50ha2w/bUhPHcS1H9rdUw6NYi5Gc/OPvhWMsKONci5Gd/O3I25nf4gQQrIAACIAACIAACIFAmgS988Z+03Jln/kuZstACgbYkcMIJx9NRRx9FnzrjM23ZP3QKBEAABEAgTABBoTAPbIEACIAACIAACDQRgTXq60f8LqAsy/DwcGoxtsP2sIBApxLoVrN7+F1AtZZPffJ0enz14/Tf3/t+YlG2w/awgAAIgAAItDYBnMlbe/zQehAAARAAARBoawL8pSRfy4oVh9AofwsaCwh0KIGs73bkF1Gfc/Y36ahjjk0kxUGhLv6yCRYQAAEQAIGWJoCZQi09fGg8CIAACIAACLQ3gXkLF9Hf/d3HvHRy8Xbb0Q477ujFFoyAQCsS6BkYpK3qi2FJC39mXpZdd92VvnX2WbRw4ULJCq0n+QsMRvnQTmyAAAiAAAi0DAF8kr5BQ6U/Sa8upHLx5bX8cJMkX5oX3ZZ8rEEABEAABECg3QmsfngVffYzn0t94XQtBid/8APEPwPz5tcqiv0g0NYExrZsolnqC2RpL5yuBYAf1RxSwSUcT7VIYT8IgAAIND8BzBRq/jFCC0EABEAABECgownMmrsN/f3f/10uBse88hgam8z68EwuKVQGgaYmUGu2UJbGj/FXx9SsIywgAAIgAAKtTwBBodYfQ/QABEAABEAABNqawOLtd6DZc7ahM874dF39PP/879HAwCyaO9/v5+jragwqgUCDCVTUe4C6e3ppqMaL2ZOauWnTJqp0dVN3v7/3fSVpIR8EQAAEQKB4AggKFc8YCiAAAiAAAiAAAjkJLN17b1px6KH06U9/ysnSRRdeQNvM25b22ndfp3ooDALtTKBLBXQm1Mw518DQRg4IcVAJs4Ta2T3QNxAAgQ4jgKBQhw04ugsCIAACIAACrUpg7/0PoKOPPppuv/Vm+tApJ6d247SPnKrLLVy0mJbtu19qWewEgU4kwIEdfqJy3bp1+v1AaQz4/UFcjr82hoBQGinsAwEQAIHWI4AXTTdozPCi6QaBhywIgAAIgEBbEHjs4Ydoh8WLaOWDq+jGG28k/jz2oStW0Jy5c2j5smW0acsWWqgeO8Mns9tiuNGJgglMDA/R2Miweqysh/j7Y729vTQyMqIeE+uiCf70vMrndxHheCp4IGAeBEAABBpAAEGhBkBnSQSFGgQesiAAAiDQJgT6/ngPdV97CZFad/Sy63IaXbJcI+h74kG+wBKtVutOXvY4gGj3/WnoL07qZAot2/cbVk7SX182qdu/9qFyX46+dPcJevvyCa39k1XdNKbkH3m0u1SWC/aq0PuW84FM9IXXl6tdakchBgIgAAJNQgBBoQYNBIJCDQIPWRAAARBoAwKD11xM9CsVEMICAmkEXvl2BIbS+DTZPgkGlR0IajIMoeZ84sQuBIZCRLABAiAAAv4J4J1C/pnCIgiAAAiAAAgUSwABoWL5tot15Sc8owxL8xP4/KUTdPzXJwgBofBYfe2KSZr1gTHigBkWEAABEACBYgggKFQMVyerPDE49+RgMSLrDC1wKJpuzdGQY3G7thiRtb1UKNehaKhebMPRkGPxmJzOECOytpcK5ToUDdWLbTgaciwek9MZYkTW9lKhXIeioXqxDUdDjsVjcjpDjMjaXiqU61A0VC+24WjIsXhMTmeIEVnbS4VyHYqG6sU2HA05Fo/J6QwxImt7qVBuWlE9SyhUGhsgkI1Aml9ls6BKiRFZZ6joUDTdmqMhx+J2bTEia3upUK5D0aAeBz+wJBOQx+nMEvVwNuvrtBiRdaxAPMOhaLyymeNoyLG4qTSTFiOyntmTmHIommhD73A05Fjcri1GZG0vFcp1KBqqF9twNORYPCanM8SIrO2lQrkORUP1YhuOhhyLx+R0hhiRtb1UKNehaKhebMPRkGPxmJzOECOytpcK5WYtisfHQtjK2zAfH+PBqlQq+qdLrXnhbXOJbpv7OF1hI8YyFa5u7JlJmlUyFJ+paKQqU2Er5ekajVDJ8nTR3zD5+FaYUHx/lhz4c21KfjiHrZR3HIX7V55u+/S3V520e+o9cYfxY6uNCYwrl+d3wshiJPWrlyTfZY3zc21arpx5lhCCQrW5Rh8lc+VsU4A/26iE8/xwDlsp77of6UuG62a4peH6Wbfw91FtUn44h3XK86tw68vTLa6/CAqF2Za2ZQsKcUBIgj+ylgZFtyVf1nJRC1zU4aSXoajIxNYh3YyGpI0Zi8c0OSOkqzOsxUKZ3nUzdsC7LvobGlfZ8M4Z4ytoQ2vvnNl6BtbedTNoctO863rq7yDm+TJJLBkIDBkTUJrVnzN0I3zdb/HjN9pffjwKSzYCW7/bGxSEPwcoMidw/1wblXe/arPzlY1gyK/QXxuipr2flMbitlJINHDNx07G46d2Kx2MORTNplu7lC7hXTcjPO+66K+VgHfOGN9yOFtV4pkY3ziTzDkO8NKKdmU8JjK3CwXbmoDpL2l+5QzBwZhD0drNcPB/77oZtV108a6c2kNuljB5uXA2bVjTDsYcilqlQplsLOPiXTejtndd9NdKwDtnjG85nK0q8cxmH9+eeJOR04oEJKpddtuhWw5xcAbnIgjAr4qgGrfpmzM+0BxnjJzyCPj256wtb1fd6x5sVM+ykm/vco2iD91y/AqcwbkIAu3oVwgKFeEpjbCZMRrsvWnQ9Y7UahCcrVi8Z4Kzd6RWg+BsxYJMECiCAAcRjSfI8kvg+M3PsA4Ln1OfZj9m7woduY/7JP8bHpikD186Sfc/1Kg/ZerocEIVDqIduXfCznqy4c/1UHOvA87uzOqpAc71UHOv04acERRyd4PmrRG91pflsKJblp6MgOjKdln6oluWnvRPdGW7LH3RLUtP+ie6sl2WvuiWpSf9E13ZLktfdMvSk/6JrmyXpS+6ZelJ/0RXtsvWF12sQcAHgUb5s+iWffyIrrArWZ8DQl94Q/1zBDmQdJ/6+fz/TtAX8ZUzGcWZdaPGV3RL9qfg5SZCoCx99FeIF7sWzqKC8RUSftfCuSy+0nrRlW1P+u7/3CANwBoEmEDUMdudCvrb3iOM8cX4tjcB9A4EWpdAp52fp0dq370quQJC5oDnCSyZdpD2QKDT/Bn99eA0TWwC49vEg5OtaQgKZePU/KVUlJCnh/Mn8fhHp9UB6il4mNh/U1OfD4oWlJZIH9Ua/RUo/tcYX/9MrRbhzzSF85XVNZAJAk1HAOerUs5XRY07zzrCYhCAP5fiz7ifNHyuyCT8Gf5cp3/hylAnOK/VOJqiIyr1WeWqk+psy+uKGlFOq6/b06TK4B/+Y6uIxTTLGvpHCWld9StRlyualR0bx1XRX4yvo9vULG66JPwZx2/gMC16vgra34DEFT+/km67/fbcyvfedx9dffU12s6vrruO7rn33tw2O95Ai/pzp52fTT9903J1Q1fy8g/Hd9Edn+sJ/Vz50W7afY8KXfMx9Rhbf3qD3n9Ehf7znel/YvzmdGVnSbqdmnvhzzURmQUYF+6fcf9s+oSPdKedn9u1v+lnbB+eAhulEOAgEH92dnRkioZHRvVJv1tdbzlIpBfTgz22qGs6CDU8PEYjo+M62MN53BhuU1EL+kuE8fXvXfBndeji+PXuWI06X3nvSAaDa9aupf/56f/S+RdcqP5hIHzh+ca/f5OeeOKJwMqll11Ov/m/3wbb0cQLL6yhJ596Wmffddc9tHr149EiNbdradQ0gAIxAo3y5047P8fAO2asfiF8/LlUP27fCu26iOia+yaDn18/OEl7zCHab4m6uatxf7f/ThU6gMulLC9b1kXHLkwvk1Ld2y74M+4nvTmTYajTzlfob+vfP+NF08YB3NJJdV0dVzGZF9as0Tfic2bPpm22maVn6/AFL8/MnDQu/C8OQ0NjtH7DOhWk6KIF8+dTX5+KRvGidfmmpICLPvqL8dVO5vcX/BnHbzudr/weHdmsXXXVL+glh/85PfDASrrzzrvo4IMPCio+9PAjtHVoKNjmANHExESwbSYm1cF41JGv0D9mvms6TcPVFspPE8D1t5Trby1/e/t3x+kHv08O/Hz2NV30xTdO34/VMmbZ/8QLRKf/Dz/0E152+ri62ayx/L8fxuvVqNK43fDnUvwZ91e4v2qn+6t29GcEhRp3GYor54yfcPWJSXWDrRKTU9ULcqpJ3slLzpjNpPrX4An1uFiloh450f9Vzdb8ndq4mrV1nAv9TRk+jG9tJ7KUgD9boNiycPzaqCTmMa5GnK8SG1TAjpGREbr+1zfQFz7/Odpt113pssuv0EEhDvyc9rcfU/+AMERf/7d/p56eHtplyRJa9dBDdIcKHF37q+voA+97L1108SV06KEr6Nc3/IZe/arjaMGCBfqRsVM/dIpu7erHH6fPfPbz9KdnnqG99tqTTjv1wzRb/QPId877D9pnn33oyFccocud861zte6NN95ED6xcGdLYeeed6bzvflfNWHqS5qt/xPjA+99Ley5dWgCNJjeJ49dpgJrx+N1Lz7LhlpW38ONjK0/vof5Txuhrb+qi1x3cRbP6iHaeX6Gto0SHfH2cVj0ypfcdv38X7f+P4/TaQyp08ft6aJZ65Iz/8fIfL52gM6+q3qN+7lVd9PMPdalzAtH1albSsd+wB4lr9hD+XBORWaBR/oz7K3MUUtLw5xQ48V3w5+rcj8Q/5xkQL4kFqrsRFKpyaNxvNVA8RjXGKVP7+HGihYsW0cTYOA0M9OvHt7qV4cgM/qqtaV3eEF/JJBIpxI+nDfIdQdcC/fhaX1+PXvN7hayLJ122jf4qBhjfqpt58iv4M47f0HnLk1816nwV6ksJGxzM4aDLkiU70+LFi+iHP/6Jflxsl112oXPPOYs+/JGP0t9+9CO0fNky3RoO3uy00070xjf8ZXX73G/TrbfeRp/9zKdpZ5V/9TXX0saNG4OW875PffJ0bfvcb5+ngkHfpY//3f9TM1U30PDwcFBu3fr1anuETv/ExymqwcGpN/zl6+noo46k2++4g776ta/Ted/+lrpe+rgKB01ozkSL+3OnnZ8b7UT7/1mF1nxz5s+Ea++boi/9epJ6p7PmzyJatkOFTjl/nM67cYoe+HwP/fRvunUgiPdtqx414+U/Vd5Vd0/SW86boMW7Eb1S1eGFf++/S4X6/36MDlGPmt32CWV4iQoKPal31/4Ff67NKKEE7p9x/xy4hqfjqNPOz+3Y35mzfeAdSJRGgA9ET/ehega+sjU40E3jPd3Uo4I1nCePjoV0jBNA3r7y9Dn11BjNGuytBrdUGzhPz1RSovyeo2DxqCv9naX6O4b+hv3II2eML/wZx29AoO5Eo85XusGP3E3EP/Usx70jcy1+fxC/v+cvX/+6IJCz/3776ryPqBk9WZZu9ZfK29/+Vh0QspV/8WGH0rJle+ldJxz/avq2miHksjz9pz/R5s2b1YylrXTlVVfpfzAZGxuj559/nrbbbjsXU61X1uN1oVH+3GnXo0Y72ZNrpuh9F8/M3LlWbR84y7ypI1q3ZYrOu0E5l1quVIGfd79c3RBGloefnaLjD+yib500RZ+5cTJ45I1rfeJHyv5mottXTtGYSr5rtwp9/8mqvYiZ8GYB/txp98/or3Ip9iPTpT36VaPPVxhfjK/27/CZM3ULQaFUPOXt5EugeV5yVVZxEfVogjq/qR8OCPHsIA7IcCRTTwViAcuSkG0pmZ4lwR/dB6XZPdU13R+7gj03XcPcK/3lky76q8gkAE3INlFmSmN84c+mo+T1Kxy/JZyfORB07cUqIHSfOXRu6Wt/SHTyl4iWHlizHs+64cfDfnbpZXT5FT/X5bdu3ar+kWBSB4m22WYbnRd9+fRkZFrptttum6jFQSNZetR0BfN9RFPTj0zz/hE1S8hcRGNczaLlZfHimQDQh045mebOnWsWb/s0jl+3IW70+cqttf5Kr9+iTiF3RbylOskvEOFHxmQZUYdX6A/s6R0v+8oEnXr0JL3j8C567qhe+v5vJ+j956ubN7WsnpkIqO9jeuq4EY60cFo1+0rGt9Pun9Ff5SPsPAkOlJCd3bGmSzbq/hnji/E1nTWLP8dD+qYFpIsloC5+ofNRHRdDbiBXC4JA0y3WF2a2L15g2ub86Z88kSg2qQNP023gba0nmrotnDu9sKZKBruNXVIky1p0RJvroL8GOeY8/YPxNbjUSLJfiU9xmn/gz0xhelFJHL8CI/ta/Eh8i2uWcb6i887IFxCSLnJgKcNy+eU/17OE+DGxs7/5Df3zX989T7+v55fTn5XnR8Luvff+wBo/VvbAygdCwZ1gpyVx0+//QM+o9wnxo2JXX30t7bln9V1A26tZPisfXKVr8HuHnnr66aC2qbHLLkuot7dX1+dZR4euOERrDw4OBuXbNoHjt66hbdjxW1drm7PS+9Tn6b+lZhO95MwJ+umtk3T8izz86QF/rmuwG+XPrCvXQE5LO2b+IODucO70opK43xAY2dfCVVhzzTLuN1hXNDkt7cD48gioRQFpBX/2cGau9he/6yQgRw+vcyymmWg6h9maVaNa5ra1cs0C1lqxTNNMNB0r7DEjqmVuW2VqFrDWimWaZqLpWGGPGVEtc9sqU7OAtVYs0zQTTccKe8yIapnbVpmaBay1YpmmmWg6VthjRlTL3LbK1CxgrRXLNM1E07HCHjOiWua2VaZmAWutWKZpJpqOFfaRcfWFPqxUbfBMoxqPnz3x5JPEwZhXHnN0TPfEE0+ga679lZ4xxOkbfvMbet8HTqa7776HXv6yl+rZRR885cN0yQ9/pOua7/bhtGzzje2LDjyQvnTmv9CHTj2Nnn32WTrlgx/QdV79qlfRqlUPEdv51re+TTvuuENQz9T4wY9+TGd8+h/0bCYue8qHP0K/+91NxI+QdcRiOl+ODptmoukcZmtWjWqZ29bKNQtYa8UyTTPRdKxwG2VU5/KEO2Tm8T+aBP/wqIrpP3r4F6eNfae/upsm/qOXRr7TS288tIs+97OZR9JC9VWdien6VSs1fpuDUaNo2m7TTDSdVi/vvqiWuW21XbOAtVYs0zQTTccKe8yIapnbVpmaBay1YpmmmWg6VthjRlTL3LbK1CxgrRXLNM1E07HCHjOiWua2VaZmAWutWKZpJpqOFfaYEdUyt60yNQtYa8UyTTPRdKywY0Zl7dYRl1Owo3kUTyJQUZfP8A1v9eZ35gaYh3pmkfyZHKRAAARAAAQ6kUCvujykPmbBQSF+9MvXcuxbiRzeL1RLdsuWLfqrYVKOHzPj2TpZr3P8mJptdk9SPutENfhLafwVNPORNGlPu63H1V3eGO70mnZYP6++xvW1K8xwS7ipnzuxi77whplHJ2VvvZ+k//z/TtAXU/TEvte1+vIYzVY/a/Nb/QTzeH2cR37LsAACIAACnUsA7xTq3LFHz0EABEAABECgdAL8GXlzmTVLfarIYbEFhLh6Uj7vi2r09/NfqVhAoHUJXPKBHrqkOlnO2onVLzRRJJBf8xV+1Ze1zcgEARAAARBoDAE8PtYY7lAFARAAARAAARAAARAAgUII7LooPOO8EBEYBQEQAAEQaAsCmCnUFsOIToAACIAACIBARgJL97MXzPOlMrtF5IIACDQZgZ882EQziJqMDZoDAiAAAp1KADOFOnXk0W8QAAEQAIHOIyABoaUHqE/NGz+dRwI9BoGWIFD6+39aggoaCQIgAAIg4JMAgkI+acIWCIAACIAACDQzAf01Mf6i2D3VVu6uAkP8wwEiLCAAAk1JgF8O7WNhO/c/hJlCPljCBgiAAAi0EwE8PtZOo4m+gAAIgAAIgEAWAhIcoh9kKY0yIAACDSTAs4X4sa9zX99FR+7j/u+5NzwwSdetnCr/q2MNZAZpEAABEACB7AQQFMrOCiVBAARAAARAoH0I8KNkHBw6+UtEj6qZQ1fXHyCanJxUn30fSmTT399Hvb29ev+dd91NB+y/X/A5+DVr1hJ/Tn7Jkp0T62MHCLQrgWOWV9Qn6Wv3jmf4HPWvPGPIz6yh2oooAQIgAAIg0CkEEBTqlJFGP0EABEAABEBACMi7hY57WzUgJPl1rp955ln61fU30M477RizsH7DBlq4cCEdecTL9L777nuA9t1nHxoeHqHLrriSDlQBohfWrkVQKEYOGSAAAlECHETDAgIgAAIg4JcAgkJ+ecIaCIAACIAACDQ/AZ4hpGcKTb9byEOLp6am6Jlnn6O+vl49C2hkZIT6+/tpw4aNtHSPPbTCHXfepddXXvVLWr58L51+4qmnaPOWrXTX3ffS7NmzaM+l1bLSpIsu+RGdeMKraN68eZLVUuurfnENPfvcs8HMKG78SW97S2i7pTqExnolcOTe/DgYZv9khVrllbU0yoEACIAACGQhgKBQFkooAwIgAAIgAALtRoADQx6XBQvm00477kj33HufnjE0MDBAa9asoT12343223dvrfTIHx/V6/6Bfvr9H26hXXZZQkPqsbOpyQn9CFlvb3velqw45BD1yNy+HmnDVDsR+MSJXeoRssl26lIhfWFOWEAABEAABPwTaM+7L/+cYBEEQAAEQAAEQCCBwPj4uJ75ctfd9+jZPps3b6HRsVGVnk2PPvYY/ZkK/nDQqL+vn0bUY2MvPnQFXfOr6+jYY44ifpyMHx87/M8PS7Aez/7Tn56h62/4P72jUqnQa45/Fd3/wEr13qIeWnHIwSrANEz/e+nlakbOm+nmW26j5194Qc9YGhsbo2V77UkvOfzFifls+6Y/3EwjI6M0a3CQTjj+OOLZPpu3bNF6f3Hs0bR40SK6+trr6PnnnidS+rvt+mf0spcermc73XPvvdTV1U2DgwP0hte/Nt746ZzLf34VkfoQ1Lr16/X7lvbfbx8VULufuI2vPOYoWrLzTnTrbXfQgw+uokk1C4vtve7EE9RMrL5Em9jRmgS+8Ppu+i/1Ium1+DJY6gAyJywgAAIgAAL+CSAo5J8pLIIACIAACIBARxEYGR1VAZ8+/bhYV3cPjU+M05zZc2hEBTgWLlhIQ8PDNGfOHDryFS+ny9V7hObOnUuHqcDQL66+ljZu3ERjqj6nObiy9/JlNdndd/8DagbSriqQ9GLatHkzzZ41i0aVDR1l4d9Tkzq4woY4n19m/ba3/JVq1wT96Mf/Q0vVI2pJ+WMqwLV+/QZ6jXpkbfvttqPr1LuSFi5cQK977Qn0+BNP0q9VMIqDM0899TS98x1v18GwDeq9Sbzcq2ZJHXPUkbSTereS5HH+bbffoQJGd3NSB8o4WMSP1y2YP59ee+LxdNnlV6qg1oM6iHXLrbersvfooNDSpbvTwQcdqDU4yMUzrfbZe7m2g1/tReCi13XR8V/HY2RJo4pZQklkkA8CIAAC+QkgKJSfYXNYUP/aaF3a9X186G91uDG+VrdvuUz4M/zZp9MuPZDo2h/6tFjTFn95TE1moZ6ebhpXM4QmJ6doYGCS+tUXxybUo2FPPvmUern03rTNNnMDW9tvvx0NqkfM/vjoYzowxC+c5sBRluWgFx2oZgr9RgVJfkQ77rhD8BJrqcsza8yFy/AMG55jw+8mev55NcNHLbZ8DljNUkEmDgjx8tTTf1L9maTnXlhDFWV3bGxcB794xtElP/yx6ueAnvnEdg87bAX9+je/VTOFKrR82TId0GEbPHvJ9vjYHnvszrtp/vxtaWFX9dEYDkA98eSTOv/xx5+khx5+mPp6+2jduvWpX3jTFcr4FUY7o4jr0QyLOlL8rpyt3+2iz186gUfJDH4L9qoQB8wKe5cQ/LlKG8ev4XUtnIQ/w5/rdF8EheoE12zVbOfypPOC37bbVGyt8atqU7C1xK8qW7Op2FrjV9mmYGuJX1X0t8rTRt8vaZsCxtcv46o1G1Ubfb/aNgVbS7ypclBIPjfvw+hx76hphYM+/OgWz77hgArP/uE0r4879hj9WFXUyBz1aBn/cLBjQgVdeHZN1mVQPdb15r96A02omT8//dllegYNv6dow/qN2sTqxx7Xs4XEHn8djctOTEzqGTwLFyzQurb8UTW7qWs6QMP1d9hhex28evnLXqLNcZ846HXwwS/Sj4w9tvpx+r/f/o7++qS36j6cpIJFW4eG9IykffZOn/XUpR49k8XUlLw777pbPxq3aNFCFYD6ic7mfqxZu462W7xI8+3q7qKe7m49G2v+tttK1cLWMy2ekSjUnwMZm4qtNUEFLwmbgq0lXsSUEfMRqU59pIwDQbwUGgzSCurpz+m1uSpyfGd0bCq21szU8JGyKdha4kMrbMOmYmtNuFbeLZuCrSV5deL1bSq21sRr5smxKdhakkfDXtemYmuNvXa9uTYFW0vqtZ9cz6Zia02yhXr22BRsLanHNoJC9VBrwjpWh7B5TuFtL0cU/VUDWQ7qiMeUI4rxxfhGHK+gzTb252NPInrkjHzcOLDEdjIsa9Q7gd765jfSvffdT88++zxtpE20Rb+DZ0q/z2fOnNkhK1uHtqqyj+k8Dszw9u13VL9MdogKttRa+HGsJ9SjXN09PTrYwwGl7bdbTJeqx7D4a2XbqNk+5kmyv7+PLv7Bj1XZcfV+o110oOfhR/6oZvzE8/kRMXN5+UtfQldceRVddPEP1T8LTKmXaO9EhxxyEF1xxVXUq760xo+BLdur+iW1X/zyGj2TiGcWbTtvWz2LiG3ddvvtdOdd1f7xNn99LMvCj49d+Yur9TuHOH7E70/auGkTXaHeR8TvS/rN/91IfaoP3Hd+wfc7TnpbFrO5yuD8rPAVfOqoBoam6AuhkSpYVLRsA1yKdFS4FFHrP/UVPb6COrxGf8M8/GxFvUpbLQd1pAPliKK/Cns5qNtufCtrt45Y/SfSU2x6JlBRlyG+ueMfXiRtbpuSkm/mNUfadJ+GHIUlY0B/SwZeshzGt2TgJcu1x/j2qlNtT9bT7dUX1sdYzzZSM44yLPxi5Ntuv5M4mMOBCZ4pVP0ZpLVqRsvKlavoiCNeqt+fw+auvOpqetnLDqeHHnrEav3QFQeH8pM+Sc+Bl/HxCfVYWG+oPD/eZX7F7Lc33qRvEl/2ksP1Y2DdalYNL0n5IWPGBr9Mm2fzmDN6OCDUqx7t4sfFZGEeXEZ0JL/eNc8M4nsAU9fF1rhy+zHT9V0qN1VZsxMzvJuqiV4bg/56xdl0xjC+TTckXhuE8fWKs+mMtd/4IijUICdrn6BQgwBCFgRAAAQ6lIBTUKgNGF2uZuQcfdQr1PuGwrONsnaNH8HiqNBBLzogVCUpP1SoDTbaJyjUBoOBLoAACIAACIBAExJAUKhBg+I9KMQBy074hzMZL/RXSLTnGuPbnuMqvcL4Com61p0WFKoLEioFBLwHhXD8BmzbMoHxbcthDTqF8Q1QtGUC49uWwxp0qsDxxTuFAsqtnZiKBIT0JjsOL5F91Uw/v0VCrBUoJRJ6jf4qDAK/QOgiIfALlBIJjK8ioDkL/AKhi4TAL1BKJDC+JY5vCDo2QMATAVx/FUg5eRZ40hQJGbYCpURCrzG+GN+QQ3jagD97AlnDDI5fBUicrcCTpkjIcBQoJRJ6XeT4Vr9/GpLDRqsREMfktZkuuh+mlpmGrl8CJlsz7Vclbs3UMtPxkn5zTC0z7Vclbs3UMtPxkn5zTC0z7Vclbs3UMtPxkn5zTC0z7Vclbs3UMtPxkn5zTC0z7VcF1kCgHAKmD5vpotVNLTMNXb8ETLZm2q9K3JqpZabjJf3mmFpm2q9K3JqpZabjJf3mmFpm2q9K3JqpZabjJf3mmFpm2q9K3JqpZabjJf3mmFpm2q9K3JqpZabjJf3mmFpm2q9K3JqpZabjJf3mmFpm2pcKgkK+SOaxwyMro1unHX5ftXrnpl7kS7q8GY0o1mneqdqU6ov8WCuiv1YsaZkYX+XfClCn+DP/i0Mn9Zd9H/1lClhAoGACuP46A8b1F+dnZ6eps4LcO/PauuD4tWJJy8Txi+M3zT987mv14xfvFPLpDQ62gncKqQdF+A9A/XUx9fUS+cqYrMVkdFvyeW1eOyRdtVkNznABPinGF7N0fG+tHF2bfynbOiCl1jogNa3HkrELG++bNlzvH/haV2xMr9km91HrTetP7zJWUlNaYOzKkNS1+Zeqjv5WxxHjC3/OcOiEishRyJmSxvEbQjS9YdIJ7+cPXfXXdxoLG8JWRxAI3imkXErcBtffbEMvRyGXljTOVzZ2Jh3b/vQ8XZt/Kbi4v8L9lfYW5Q84X6UfN9G9chRyvqRxvopSitKx7U/P02z5V5udr7o/ecZn/zG969hbBAF9kCpv6pqO1uigj0pL8EfWoh3dlvxgzY6pHHTzlmHasnmryu6i3h712V0WUktl2nmrW9Hf04Wi2Rm2u5TE0DDRho2baUx9GrhffRqYv/bLF3UOGISCUbxt2gxtmDsypFVd9Bfja/eU+h2refy5guM3cRgTd9jdwchtnvHNd37m82rmT9Ib/UeyMwmMqW7r67HZ/foPI30hx/UX11/TnWbS9TtWu5yfZ1ikp9Bf/L0QeAj+PgpQOCfUKQfXIz/XI7xo2tn7/FWo/9Jpb8Po2BRt3LSJRoaH1YydCg3091Zn7tiLVwNFal+9/2LIZsfGiUbVry1bh6inu0L9vb3U19+jgl0qLBXpYGQzoVXZs9FfjK/pLTrwqTLawZ8r+vjtw/FrDHA7jW/e8zPfAIUj7AYoJEEgQoD9BdffCBTHTdxv4H7DdJm2vh5ZThborzn62dJN+/cRxre9//7NMb4ICmU7tpu+FM/M4dlEA/0DKjjTrQIzAzxZSE8fZP+QP5QtvpKrb73Kg7q7e9RPN/X2Kt2+HjXDgUhNGtKR22hgKJeYURn9xfiyO7SrP/fj+NVHe7uOr4/zMz8ShNlCxkUBSSsB9hPfC66/uP6yT+H8nO/Iatr75+ludcz4or/5HHm6Nvy5Sf7+zeHPeKeQl0PB3Yh+p5C6pMrjY/ycFc8OkMfEZC2Wo9uSz2u+5+N/CeT3+XAwZkoFiFScRl+woyf10LbcLIYyTcvpaa4+rmYK9fQSTShdbgi3gaep85oDQqF3zqh8keK6wQanHRaui/5ifNllxJ+0+2inimbqPZl+cXX4M47fwFmUQ4h/adeSjaBAtgTXLep81c/n2WzNQKkOJTDEb3DnpQX8udpQ+28+jnB+xvk58A74c4DCJVHk9SitHTh+8fcR/h6sHiF8LAQ3l2kHjWVf0ccvgkIW6GVkBS+ann7pDgd95If1o0Gg6Ha0jdrJopmR7Tr/polYCW+m6RahJ+ppulKmCP003SL0pC9pulKmCP003SL0pC9pulKmCP003SL0pC9pulKmCP003SL0pC9pulKmCP003SL0pC9pulKmHn0OvOOF00IQ6yiB4AXT0R05t4vy51rNStOt5/ippSf703SlTBH6abpF6Elf0nSlTBH6abpF6Elf0nSlTBH6abpF6Elf0nSlTBH6abpF6Elf0nSlTBH6abpF6Elf0nSlTBH6abpF6Elf0nSlTBH6abpF6Elf0nSlTL36eHxMCLb4ul4HyNtt6OYlmK0+OGfjlLcUOOclmK0+OGfjVKsUz0AaUj+9CigeJatFq3P28+Qg9YpBPUOtiF7j+C2CatwmOMeZFJEDzkVQjdsE5ziTInLAuQiqcZvtyBlBofg4IwcEQAAEQAAEWoYABwBk4dlDeKRMaHTOWp4SKzIY1Dk00VMQAAEQAAEQ6CwCCAp11nijtyAAAiAAAm1IIAgMGQGiNuxmYpfOOessOvfss+nDp51GH/noRxPLYQcIgAAIgAAIgAAIgECYAP5BMcwDWyAAAiAAAiAAAiAAAiAAAiAAAiAAAiDQEQQQFOqIYUYnQQAEQAAEQAAEQAAEQAAEQAAEQAAEQCBMAEGhMA9sgQAIgAAIgAAIgAAIgAAIgAAIgAAIgEBHEEBQqCOGGZ0EARAAARAAARAAARAAARAAARAAARAAgTABBIXCPLAFAiAAAiAAAiAAAiAAAiAAAiAAAiAAAh1BAEGhjhhmdBIEQAAEQAAEQAAEQAAEQAAEQAAEQAAEwgQQFArzwBYIgAAIgAAIgAAIgAAIgAAIgAAIgAAIdAQBBIU6YpjRSRAAARAAARAAARAAARAAARAAARAAARAIE0BQKMwDWyAAAiAAAiAAAiAAAiAAAiAAAiAAAiDQEQQQFOqIYUYnQQAEQAAEQAAEQAAEQAAEQAAEQAAEQCBMAEGhMA9sgQAIgAAIgAAIgAAIgAAIgAAIgAAIgEBHEOjpiF42eSenpttXydNOMSI2MhiTKhmKilX72tGQY/F0TdmboRNedFnP0ZBjcelReC1GJBf9FRLBWhBlQBPUsSYcDTkWt0oGPiV7M3TCiy7rORpyLC49Cq/FiOSiv0IiWAuiDGiCOtaEoyHH4lbJwKdkb4ZOeNEVPTaWQZOLe9EVI6KfQVuqZCgqVu1rR0OOxdM1ZW+GTnjRZT1HQ47FpUfhtRiRXPRXSARrQZQBTVDHmnA05FjcKhn4lOzN0AkvuqznaMixuPQovBYjkov+ColgLYgyoAnqWBOOhhyLWyUDn5K9GTrhRZf1HA05FpcehddiRHLRXyERrAVRLTQICgXIGp/gQas1YEmtjNYTB0gqb+bn0p0ylKYqpP7PvOTSjagYrYjsiW/m0kV/40ATcnJxjtjE+EaAGJu5OMOfDZLpyVycI6bhzxEgxmYezmxGXYX0D1+McD0ywEaSeThHL/Pw5whcYzMXZ5yfDZLpyVycI6bhzxEgxmYuzvBng2R6MhfniGn4cwSIsZmLcxv6M4JChnM0Ohm90aqnPS4Hv9jPp1utrXUdDTkWl+aG1uhvCId1Ix9njK8VqiUzH+eqQfizBWwkKx9n+HMEZ+JmPs5Vs+X7M+tWw0Ku/8LSmv2FPyc6cGQHxjcCJMNm+ccv/DnDsOgi8OespGbKwZ9nWCSl8vkVjt8krtH8fJyr1orwZwSFoiPVgG12Dh8OopvuYMihaG0qDsYcikI3SsABnkPRqEp828GYQ9G4TjTHwZhD0ahKfNvBmEPRuE40x8GYQ9GoSnzbwZhD0bhONMfBmEPRqEp828GYQ9G4TjTHwZhD0ahKfNvBmEPRuE40x8GYQ9GoSnzbwZhD0bhONMfBmEPRqEp828GYQ9G4TjTHwZhD0ahKfNvBmEPRuE40x8GYQ9GoSnzbwZgPxkyGAABAAElEQVRD0bhONMfBmEPRqEp828GYQ9G4TjTHwZhD0ahKfNvBmEPRuE40x8GYQ9GoSnzbwZhD0bhONMfBmEPRqEp828GYQ9G4TjTHwZhD0ahKfNvBmEPRuE40x8GYQ9GoSnzbwZhD0bhONMfBWNaiCApFIbfodj0RQx9dha4PirVtgHNtRj5KgLMPirVtgHNtRj5KdBpnZtaIPjdCs1F9hS4TKGeBX4FzEQTgV0VQjdsE5ziTInLA2R9VBIX8sWyspaxhQN+thK5vonZ74Gzn4jsXnH0TtdsDZzsX37mdxtk3v6z2Oo0z+pvVM/KVA+d8/LLWBuespPKVA+d8/LLWBuespPKVa0POCArlc4nmqh0Nl5blsKJblp5QF13ZLktfdMvSk/6JrmyXpS+6ZelJ/0RXtsvSF92y9KR/oivbZemLbll60j/Rle2y9EW3LD3pn+jKdln6oluWnvRPdGW7TH3WLlOP+9io/oou+iueVsxaOIv1sniLbll60j/Rle2y9EW3LD3pn+jKdln6oluWnvRPdGW7LH3RLUtP+ie6sl2WvuiWpSf9E13ZLktfdMvSk/6JrmyXpS+6ZelJ/0RXtj3pd4k9rEGgLgJRx6zLSAtVQn9baLDqaCrGtw5oLVQF49tCg4Wm1iQAf66JqKULYHxbevhqNh7jWxNRSxfA+Lb08NVsfBuOL4JCNUe9RQqoKOGkaip/gpd/dFo5rKfgYSIEU1MfH0ULSkukj2qN/goU/2uMr3+mVovwZ+KvexZ9+oA/W73Pf2aD/Fk6oq+DvFG0Q4lgg/oLf5YBKHiN8cX5uQAXw/FbAFSbSRy/OH5tfpEzrx2PXwSFcjqFl+ocTdERlfqscdVJ5Z28rqgR5XSFT4Iqg3/4j60iFtMsa+gfJaR11a9EXa5oVnZsHFeV/nahv8mcHblGi5tDhPGFPwf+geM3QJEl0cnnqzKvR+ZYNOp8VWZ/m+H8jP629/0Vxhfja55X86Rxvqr+2VPm30c4fnH8uh6zCAq5EmvS8hwE6lI/oyNTNDwyqoMm3d3VIJFusnlG9tgHCcoMD4/RyOi4PutxHjeG21TUIv0dQX+riDG+XlwN/qwOXRy/XnzJNNKp56uyr0fMnANCjboeld3fRp+v0N/po7xNr78YX4zvNAEvK5yvyr2/wvGL49f1wEVQyJVYs5ZXAZjxCaIX1qyh9es30ObNW/XNMc+oKXIK/ZSyP6QCQmvXrVO662l0dGJm5ooOChV0t4T+YnwLOBbhzzh+C3ArfQ7G+bk6w7PI6xGP3ZgCjeuRAtGu19+hDrvf6KD+8v3qEPpbvQS14fGL8W3v+yuMb+uPL74+Vj39Nsdvjp/oC0F9zeHqE5MqMqQSk/zXrVpSTfJOXnJq8nTICfWrUlGP2Oj/qmZr/k5tXM3aum/ob8rwYXxrO1GkBCODP0egJG3i+E0iY81nXDhfFXu+YvBVzrgeWZ3QzGzZ43eqw+43Oqe/7J6Taqpfp9xPor/8F0PGpQXPVxhfjG+idzepPyMolDhiJe1QjsExmRxxmaCh/LjYwkWLaGJsnAYG+vXjW93KME+njy3Tupxv2x0rn5DB00EHB3tVBxbox9f6+nr0mv+wti6edNl2tb+LVX/H0N8obE+cMb7w55BrefIrHL+dcn4u93rEftXb003zFzTqelRufxt/fm5Af2f1qWcwOmh8O6i//A6UQfRX/8NU6LorG96vv+Uevxjfsu8nMb5F/v3bjv6MoJCcbBux5hO8j2iQavuEmiDEkaXBgW4aVzfFPeriynnaflTHuLDk7faEmpDUrbRmqcAQd4X1eAqhnqmkNvg9R8HiU3e6v7MGumispx/9LYozxhf+LAcwjl8h4byW83Onna/Kvh7xwPA1qFHXo7L72+jrL/qrHK6N76/KHl++d2zk/ST6W6w/Y3zL/fsI/gx/1tcnhSHrgqBQVlIFl1P3FblmC6k4kJpyq+5P1A8HhDg6ygEZjmTqqUAsYFkSsi0l07Mk+KNjE0qze6pruj92BXtuuoa5V/rLFxn0V5FJAJqQbaLMlMb4wp9NR8nrVzh+O+P83GnXI/R3+lqUcIJIyDZPLZnSjboeYXwxvqaDwp9NGtnTOH7LuZ/E+QrnK/OozHK+QlDIJFZ2WkVQZJB0MEX/cm8EV5MgkNTWM4Sm82O2VYboSvl61mxXTu5SPz5VT6tXd7OuKWzskvpZ1lwN/a2SYg4ao8lSpU3MWZjayrBJjG+UjAGaOZugjV3RWmnbXA3+XCUEf1Yc2K/SHCbjPvarTjp+BQv3m394CR2fOkf2qA2VDO03dumiGX9xNRy/VVg4fhUH9quMvpNWjP2qk45f9DdyPtLOwVSmF/Yr07GMXVIky5qr4XxVJYXzleLAfpXFcWqUYb/C+SoKyThImbMJ2tgVrZW2zdWKPH4RFEqjX8Y+cQxZ16mZs3qdqjM335kNeGqoJzOZmy0FnXWdK4hSeO3JTNhohi1nXecK9kZ4MmM3npLrrOtcwS7uyYzdeEqus65zBbu4JzN24ym5zrrOFezinszYjafkOus6V7CLezJjN54hN7N+5oLpop7MpItY9jrrOlewiKosT2bsxlNynXWdK9jFPZmxG0/JddZ1rmAX92TGbjwl11nXuYJd3JMZu/GUXGdd5wp2cU9m7MZTcp11nSvYxT2ZsRtPyXXWda5gF/dkxm48JddZ17mCXdyTGbvxlFxnXecKdnFPZqzGe2h8zLoDmRkI9KgXLGMBARAAARAAARAAARAAARAAARAAARAAgRYkUNm0ZYs5oakFu9C4Jvf09dctPqy+EFZRz3jxDy+SNrdN45Jv5iENAiAAAiDQ3ATOOessOvfss5u7kWgdCLQYgQ+fdhp95KMfbbFWo7kgAAIgAAIg0JwEeubMmtWcLWvzVnFQCAsIgAAIgAAIgAAIgAAIgAAIgAAIgAAINIoA3inUKPLQBQEQAAEQ6BgCmNnQMUONjhZIADPvCoQL0yAAAiAAAh1LgD9YjgUEQAAEQAAEQAAEQAAEQAAEQAAEQAAEQKDDCCAo1GEDju6CAAiAAAiAAAiAAAiAAAiAAAiAAAiAABNAUAh+AAIgAAIgAAIgAAIgAAIgAAIgAAIgAAIdSABBoQ4cdHQZBEAABEAABEAABEAABEAABEAABEAABBAUgg+AAAiAAAiAAAiAAAiAAAiAAAiAAAiAQAcSQFCoAwcdXQYBEAABEAABEAABEAABEAABEAABEAABBIXgAyAAAiAAAiAAAiAAAiAAAiAAAiAAAiDQgQQQFOrAQUeXQQAEQAAEQAAEQAAEQAAEQAAEQAAEQABBIfgACIAACIAACIAACIAACIAACIAACIAACHQgge5/VEsH9rvhXR4en6BKpaJ/uDGS5rVs68T0L8k380LpqdDWzEbV3Mx2u6TQ3+pIYnzbw6Phz23pz5MT4zQ1MUE7bL8dHXboCtp55yXqXG/8WwyOXxy/rUigQecrPp5oaop2VMfToSvU8bREHU9dxvFUFMsG9beo7tS0i/5WEeH8XNNVWqIA/Bn+3BKOmrGRBfpzT8YmoFiTE7Bdu5L8xm9XbCq21vhVtSnYWuJXla3ZVGyt8atsU7C1xK8q+lvlaaPvl7RNAePrl3HVmo2qjX792mOjI7T+hedp7uzZ9OCqVTShtnm5/bbbVN4s2nPPPempPz1DS5fvU79I5prF99fWFBtRW0tsdfPl2VRsrcmnEq1tU7C1JFov/7ZNxdaa/EqmBZuCrSVmnXrTHAgaHx6iyfFx6u7poQP2WU6HHnSgig1N0YTKH1X5vf0D1D0wWK9EzXpl9jfcGBtVW2vCtfJu2RRsLcmrE69vU7G1Jl4zT45NwdaSPBr2ujYVW2vstevNtSnYWlKv/eR6NhVba5It1LPHpmBrST220+vYVGytSbfiutemYGuJq93a5W0qttbUtuRSwqZga4mLzWxlbSq21mSzlrWUTcHWkqz2zHIVdWH1Zcu0i3QNAuuHRoLZQVy0kJlCNs+p0S733VH3KUW0UbEZhQf9dfeROmpEMbOJUlwrKlyKaNyt0N86nCZLlWLH9+nHV9OCedvQef/xXf2T1KIPnXIyfeD976M169bTzrvtnlTMQ36x/U1sYFSWC5ZyKEWFSxHF8VvQ+HIwaHxkmAYHB2lgYCDR3YaGhmh4eJj6VGCoSwWIvC9Rtyqov/F2R4Xhz3FGHnKimDG+HqDaTERBw59tlHLnRTGzwVJQR4VLEcX11+P4IiiU++irz4D3oFB9zfBQyzwJlHQC8NDq+k2gv/Wza4WaGN9WGKX621jc+K68526644476J/+6Z8zN+/iiy6kgVmzaO/9D8hcx61gcf11a0dZpdHfskgXrcOzgLq7KjSYEgyKtmHjpk3U1d1T6KyhqGax2/DnYvk22jrGt9EjUKw+xrdYvo223n7jW8LD2I0eNOgXS4ADQfJTrFJzWJe+dkIAjImjv83hd0W1AuPrg+yjqx6kW26+2SkgxLon/fU7aMvGDfTIypU+mmGxgfG1QGmjrPYc30k1O8g1IMSDus3cueodXuPE9dtjac/xTR4b9DeZTTvswfi2wygm9wHjm8ymNfYgKNQa41S7lWbAsnbp1i+B/rb+GKb1AOObRqf197XR+K559hm688476Myv/Etd4/I373oPDQ1toeeVnbZZ2mh8M40J+psJU5ZCEyqgU1GPabvMEDLtzlWBoeoL3tVLqX0tGF9fJJvTDsa3OcfFV6swvr5INqcdjK+3cUFQyBvKxhqaUgFaPi7kR7cmtFFM+0RC1sWoxK2iv4pJCdBFQtbxkSgmB+OL8S3Cs8SPZe1DY/ZAPz2++vGQqR22356uuPxSOuKIl8fyL7/sZ3TIwQeH8r/6L1+jrZs2hvJ8bEg/Ze3DZhYbOH4VpRKgi4Sss4yNjzJFju+Yemysa/orrNLWCfUFvy99+UzauDF8jKxdu5bOOvscKRasOaDE7yPytRTZ37Q2yrjKOq2sz33or6JZAnSRkLXPMUyzhfHF+Kb5R737xI9lXa8d13rwZ0XME3QEhVy9rwnLsy/wYvqE5FX3FPNbNKBbDF+xCs5V3xYeRa3BGZxdfWtIBXIu//mVsZdKP/Pss/oP2PO+fS7NUu8MkuUHl1xE87fdlm5X7x4yl1vVl8nWrV1HG9atNbNzpeHP8OdcDpRQuUi/4llCA5aXSvP3UP7zv/6bTv/kp0Kt2qTeIXT+BReG8nijR32ljJfJ8TG9zvOryP6mtQu6OH7T/KPeffAr+FW9vpNWD37VHn6FoFCal5e1j48mOaLq1OR/WJucrFbumh5V3uQIatkLf89Ofqza6K8VS1omxlf5twIEf07zEj/75NjltXXB8RtgeeH55+npp54Kts3Ee977fnVOnqQLzv+ezv7MGZ+mJUuW0FvedpJZLEj/2799g3iWRNELxjdCGP4cAVJ7s7DrkXLOtFuWVQ89RBdceFHtBqoSs1Rwib9cFvrXskw144UK629cqmYOjt8IIhy/ESC1N+HPuJ+s7SV+SuB8FeHY5OcrBIUi41X6pnIQvglKuxHK0iY+8LqnR3MiEhziffbFg3dOt39KaU6yuenOVFRbJDgV0p4uj/6GqNTcwPjO+BP8WdwFx6+QyLz2fL5SH0ei22673So/MjJC737P++jggw6ir5z5ZXrve95Nn//HL9DTTz9tLc+Zw+rT2jMLxneGRcaU5/HNqKr/EQTX3yqtPOdnfheQzPKxsf/OuefQv3z1a3TvfffZdsfypm9HcH8VI5OegfsN3G/EPQTXoziTGjm4Hum/CfH34LSfTPtDM//9i6BQjWO60N3TDuJFQ3kZB2U2bR6mtWs30tahMX2jKkGavDORktrY1a3+kBkhWrtuM23cNEQcHOJgEM9akuBUUBf9DVA4JzC+8Gdnp6ldAcdvvvPVwgULiB/9Slp43/fPv4De+pY30333308XXXxJUlFtZ9HChYn769mB8c03vpmZ4/zs5fw8MZ4eFNptt93oq185k0499bTY+4WiY8XBJbbnZcH4ehnfWmOB8xXOV4GP4O+FAIVzAucrnK+cnaZaofrgdZ2VUS0fAXXcel1Gx6ZUYGYTjQwPq8BMhQb6e+2zdaZVK+qky0ueR3LG1D3XqPq1ZesQ9XRXqL+3l/r6e9SLItXFLdLByGZVPMdv9Bfja7oP/NmkkS2N47f489UXvvhP9O53vZPOPNPt62Tw52w+bJZqWn+2XPzaenwL6i+P9QknHE9/uOUW+tQZn6HT//7j5vAXmk693yiov/Dn4s/P4jQYX+N+Ev5MOD/LkZF9jfNV65+vMFMou783dUmemVNRDwoP9A/Q7NmzVWBmQEVlqo/Tc8Pl7ey+O9Grword3T3qp5t6OSDU10Ocx/Em/TiZb8Fpe+gvxnc6punVw+DPOH5dHGqN+vrRoStWZKoyrIL1aQvbeWHNmrQizvvgz03iz2rkOup8VWd/u9XsnvEMs3s+9cnT9Rf//vt73088JtgO2/Ox1LzfqLO/tdrWtMcv+ltr6DLtx/ji/JzJURwL4XwV+ftI8cP1N5sT+bliZtNCqQgBdlIJyJvpSLHMm/19KkCz7Vz9CJeK0wRPjiUZSH+lY1KtcP7oKNFs9XGdgf4F+qjjR8f4no7XPFPIfL+A2UcfByj6O+M/4VGpbmF8bVTS8+DPOH7FQ7KcrwaML4tJvXrXK1YcQhPGiRHHrztJHL8tfvzyG3AzLAPqk/PnnP1NOuqYYxNLV4NCvXq/cVgllq+1A/cbuN8wfQTnZ5NGtjTOzy1+fq4xzBjf1h9fzBSq4eSF7uagyfRPEB2qQ5Bvo/SjWurOp0eNKP/rAw9s9PYqul0zalSjLWxP/0Oc0uWXbKrJQmq2UjUgxFXNgJA2pfahv5qE0y/mjPGFP7MfhBbOiGWGSqRucFUcv/nOV4Oz59DHP/6xVM5Zd+6www600HynEMY3KzpdDv7c+tff7r5+9T5E82XrYRfg2dCy7LrrrvSts88KHzOyU60n1Q0IB4P04/Ez1YwS2ZJcFdff+KUmhpQzYpnZGHMprorrUb7rURbazBn+HHfVmOtyRiwzC+FqGa4Kf4Y/Bx6jHKIV/v6tTKklaDQSpRFYPzSiH/eSmxxeyw83QvKlQdFtyccaBEAABECgcQRWP7yKPvuZz6W+cLpW607+4AeIfwbmza9VFPtBoK0JjG3ZpD8nn/YVsloA+FHNIRVcwvFUixT2gwAIgAAIgECVAGYKwRNAAARAAARAoE4CvQOD9InT/77O2tVqrzz2lTQ0OpbLBiqDQDsQ6FbvQxyq8f6tWv0cU8+w83GJBQRAAARAAARAIBsBBIWycUIpEAABEAABEIgR2GnJLjRnzlz61D98MrYvS8YF3///aHBwNs1fvF2W4igDAm1NoKtHfQVJvRSx3sDQJvUFVq7PwSUsIAACIAACIAAC2QggKJSNE0qBAAiAAAiAgJXA7suW02EvfjF99rOfse5Pyrz4ogtp9jbzaOneeycVQT4IdByBLhXQmVCfL3UNDG1UAaGKCghxfSwgAAIgAAIgAALZCSAolJ0VSoIACIAACICAlcDeBxxIRx51FN1+6836/UDWQtOZHzrlZF1u8Xbb0d77H5BWFPtAoCMJdKvHv8ZVYGjdunXE7whKW/j9QVyuW80y4npYQAAEQAAEQAAE3AjgRdNuvLyVxoumvaGEIRAAARBoGgLjExP0xCMP047bb0cPrlpFv/vdTTSqvtV66IoVtM28bWivPfekjZs306IddtSPuTRNw9EQEGhSAhPDQzQ2MqyCPj00NTmpvnTaTWNjY3p7Qr0/qEvl96hgED82hgUEQAAEQAAEQMCdAIJC7sy81EBQyAtGGAEBEGhCAr9Zv4G+vPpx4nVHL3Nm07vmztIIvr9paxXF5i0djeQV286jI7bdhs5QnxTH0noEbvj/2zsTaFuK8t5/e5997rn3AgKXawQEZJBJBgdEUVEGBb0qEox5RtRoFpgYfXHlLQMxz0TAFVdM0JcVjcQp6z004jxgUFCJguKIcUBUEIhewTjdkTvfc/Y5r77q/fWp7q7u3bW7qvb0b7inq6urvn99v/qquk+d7r3vWqQXf3pRN3zTPXG/vPaYo7r0gmO6+qvmP37fjG7DfT9N9rFIrjm2RZccn3xX9VUXxtWO5SN0QAAEQAAEpo8AFoWG1OdYFBoSeMiCAAgEJfCm9evpTT+7P6gGjI8/gdcfeTgWhsaoG2UxKPZC0Cgjuuy5bcLC0Cj3ENoGAiAAAiBQlwAWheqS8lwOi0KegcIcCIDASBBYfettI9EONGL0Cdz06FOInxzCNtoErri+S1ffkDwdNNotHU7rbnztDJ11Aj6iczj0oQoCIAACIOCDAK5iPijCBgiAAAiAAPFTQthAAAQmiwAWhKr7U16nqy6FsyAAAiAAAiAwugTwpNCQ+gZPCg0JPGRBAASCEphVH7fRST5yI6gOjI83gQX1cTTzcT+SZryBDan1eEqoHni8SlaPE0qBAAiAAAiMJgEsCg2pX7AoNCTwkAUBEAhKYBWePw3Kd5KM78IbSSPfnatfMT/ybRyVBu58z+yoNAXtAAEQAAEQAAEnArh9d8KFwiAAAiAAAmUE2nhCqAwN8i0EEC8WKCOUxR8uja0+AfCqzwolQQAEQAAERosAFoVGqz/QGhAAARAYWwL4guax7To0HAQKBL54N97vK0BBBgiAAAiAAAhMIIHOBPo0fi61WsS3Xo3+yJ6/d6thTKrUKFrN1NGQY3G7thiRszWckCo1iopV+97RkGPxak05W8MJL7qs52jIsbh4lN2LEcmFv0Ii3QuiGmjSOtaEoyHH4lZJZIIAE+BFRHkWxVtcORpyLG7vODEiZ2sMSqlSo6hYte8dDTkWt2vmct+gvpr93BNadNaJ7n9nvPXHi/Sq6xfpR/dIy3LGx+iQF9HOOiFpsHgzlv0rjRf2NZyQKjWKilX73tGQY/FqTTlbwwkvuqznaMixuHiU3YsRyYW/QiLdC6IaaNI61oSjIcfiVsk0puRsDSe86LKeoyHH4uJRdi9GJBf+Col0L4j6oXG/gqcSSPgmIJ02iF3uaPOfi41GuktLSrf3z9GQY/GMS6av/YI8U1EdNNKFv3mcpceNOCurZh+XilhONNJF/1qI2rOacLZbRC4IYH52iQH1oZBDuf6abeQFoasuUl/JPsCCENvhej98XYfYziRuTebJYfWvee3F/VV1VKJ/q/mYZxHPJo3qdKO4UqbNMVytlD3bSHdI1yPTV8xX2f7MH/Xr38m8CucpjMlxWTC31JNEdTfu8H6dnrdV33q+Jh9z7d6ykKMhx+I2ce0r/LWiSTObcUb/piD7JJpxToxP2/jtgxSnp5BAs3GE+apuyDTjnKg86tiWXhCqq1lVjheWJnFrxhnxXDcmmnFOVKbt+gt/+0dXs7jC+O1POCnRjDPGry/OWBSqSzJguWTa8CTgYMyhaP/GOYxo77o1tb3r9qeiS3jXhb9W8t45W1WKmd51p6l/iziRM6UEvI+jmhy962L81iRfLDZJTwt5j6siLmuOd91pimcHeA5Frf2UyazJmOt4162p7V03A6D8wLsu/LXC9s7ZqlLM9K6L/i1CVjl1OeMzhaz4wmfmn/7JH7u2wPVpGVf7ZeWhW0bGbz44++VZZg2cy8iMb/7t3/42fec738s4sGLFLP3Ry1+WyRvk4Fe//jXdcsut9ILfez5t37GDPvWp6+nlL/vDQUyhjgcCGL8eIDqYeMHxNe/AHWz2K/q6dW164enZv2f+cssSvfqGRXr3hW0675ou0Z5yK5c+tUVnHNWiS98nn2ZVLPvly2foadcpOw8Uz8XMQTzHoQ3O4ByCAOIqBNWiTXAuMhk0B4tCg5LzUK/pQlCmCfHvzRJ56Ga6IdgBOAdDmzEMzhkck3Bwzz330i9/+Ut6+tPPSd1pt/28qrJ71y66777/osXFRdqhFoW+cttXsSiUUh5CAuN3CNDdJddvWKJHrB2ss85/VEvVJXrvrcuLOhu2L9HR+xKddJiy2cfsyYe26BQuV7E95bg2PeOgRbr5gWH9utFrXHUzKzxoeAq6DQHWrA7ONUE1LAbODQHWrA7ONUE1LBaQMxaFGvZN0+peF4by9y8BAyfjt+jG0hNx0ZXjWPqiG0tP/BNdOY6lL7qx9MQ/0ZXjWPqiG0tP/BNdOY6lL7qx9MS/iPvDjzicnnrmmd4VjzzySHr9/36dd7sw2IDAsOJZdKXpscaT6MbSE/8q9i96zwJ96BvSsGLBv3lOm974/MEXZu/fQHT5x5cXhUTh0NcuSLJ0/+cfLtYrLTwKJwRj7P4VXWEQS190Y+mJf6Irx7H0RTeWnvgnunIcS190Y+mJf6Irx7H0RTeWnvgnunIcS190Y+mJf6Irx7H0RTeWnvgnunLsSR+LQgJ0BPayQCT7EWhS/ybkA7N/jfEuAX/Hu//6tR7924/QRJ2/9n3vp23bttE9995Lu3btpuc8ex3Nzs7SDZ/5rPbz0kv+iB732MfSAw/8gv7vtdfSz362nmZm1DctPe2p9OKLX0T8+tjfvfnv6Z/+8f9MFJexdQbjdyS67tiD+A41bmccdXSL7rq8Q3OvnKerX9Cm5z22TatXED38wBbt3Ev0uLcu0E/uW9Ln1p3cppOvXKALHtei6y7p0Oo5ogW1nnTl9V36uxuTRaM3PLNNn/nTNnXUXfKXfrhIz/hH9TpZ7C0uwtjeFfXgb5HJJOWgfyepN4u+oH+LTMYsB4tCQ+owc+HHTA/cHHUPtqgGpHxRmfpmQGqpf22VH3Kc8u2TaHLbdTqkoACCv+hfiQWPe8Szghlj/HrsszqmvvnNb6nXvO5Li554wgn00pe8mLZu3Urfv+MH9Na3/AP96le/or//h7fQqaecTP/41qvp0/9+A1133Yf0otDKlSvpmeefT48/7XG0ecsW+ovL/pLOOedsWlIT7fbtO1K7SAyXAMav4j+B4zcfVScf0aKN/7R8+3rzD5foTbcs0mwv68DVRMcd3KJXvm+B3vXVJfrxFR36xEtn9EIQnztAvWrG23tV3o13LNL/eFeXHnok0dNVHd7458mHt2juL+bpcepVs/+8TBk+LP5nDCGeVUfEiGfcT+J+kge+5w3jVwHF+PUcVcpcwPlq+arqv9mw2IdAuhikBk2aztUpyzeL8ZhbUrMP79vq8xe76i9evFcfc5Fu5sJNmtkwYY51XoTSmwpWnVY/uO1WXaPsIE3g6uLvjPKT/8IHfwchWV1HuolLDat/py2ep8FfibqbNm+l67dukUOn/b8c+Qin8o961In0guc/P62zatXKNP30c8+hA/bfX/9rqw4477xn0NzcHJ3++NPops99Xpdbu/Yg2rhxI335K19RTxZt13m//tWv6Xce9jupHSSGSwDzleIf4fo73F5O1B/YuESX8AdB97ab1fGpq5XzxrZ5xxK969YkKj6rFn5efmb2w6m56L2/XqJ1p7bpHRcv0V9/dTF95Y1rXfYRZV8N9e/ctUTzKvmyI1t0bcTPGEI8q06IEM/MWe4np+H6C3+n5/cFxLMa3Gqz/h6anBr456TOz5093a7+hS97OR2YU6YiQ+PO4MWJblf9UOmO+i2e8/iXzBCa3ACzs7T2YlfpzuiFA30+kHaZv231uE7eX1ns0XujwZLP7XTZmCnz3LtH3cAszNPKuRXqNYfEAl/wNJQAwPWko26Y9uyZp5byc+VcJ1mgWVILQi4OOJYVf/fAX31DM6n9O23xPA3+8mLQuvU/J1L7Qbd3/vR+uvExp9CzDty/lon99tuPDjvs4dayq1atSvP51bDVq9WjBGrj18hk+9znv0A33fQ5uuCC59Khhx4i2diPGIFhX4+mYfyOQpdvUQ/n3fx948aJG3VctmX8yphse9QfjvieIb895c1devU5i/SSM9r0m7Nn6drbuum3kq1/0CitpDqW+kaJIEnEc9z7yWkZv3L/DH+TBUHcP/uZvjBfjf981dmhrpZ6gtArGn4CQ6zoS7b6sXPnPG15cItapGjRgQccSCtWzOgxyK82JY8g5K62uqI6l8sWu/32urqqy0+QbNiwQUvsq27093vI6mRxRp3jV6sGtV+mr3XVj527F9RrCZuVv+3UX4Ys/rZayV+sZAFI9mV2a+WLv+qv2fxKw7777EMPMfzVwGsZcivEC067dqv+3ZL4u+bApH+1Fe4//YgJJzxv8Bf96zmk2BziOfz4Xfe9H3jpOV5YWjrwFC+2+hlZv349HXPM0XSuemWMP1/ItvHcx99CtnHTJjpozRpbEeQFJsB/BNq1S12PetffSb8eDc3fwP0Yy/wl6uvp36GeJnrHl7r04T8mWvdovjfjv6KNxja0/h3S/RX8DX/91ZGN/o1y/4x4Rjx7X2jgARxw/HZ4sUJWjQuLJHqVI2mAnkgG+MEm+BK7qBYH2urpEa3BmiqPdZMtTUjG8r7i1HIhS0oLsK5SV41YUv/x4gu3J7i/SqSrPuBHLwLpdiROmIs/ktZ7bhS3K9cBUiY52/8nm+mqp6LYSe23Oua8UoQ93fIC9TT5s4zY35ZaaUv+619Pl6hsXH8bXB3+on/TSEE8pyjqJhhZzPH7p+qDmr1t6kkjfuqoztNCt6mviud/svFTQO9+5zX6kF8Zs27LFyj9AdRvVp839Kr/+RparZ4s2nff5ENJzLmVnzjiD6C+/C//ip5/0YWqzrOtZpFZQsDD+GXLfK8xLdejYfpb0otRsm3LNmYe/y1K/z2q1xoOLTk2z13+rBl698ta6Svor3y/+kui1JF47NXtGsdSpnIv5c1JorKC/STi2c6lkMu8G7Dm6rHvJ9kH9C9TqLGhf2tAWi6CeA7/+y/TnrTx29q6Zy8/WFJ8cobzevHFazmDbHoMq7r8PjY/TcKLJKtXzeo9/yIiT84sKykVU5dFB9BmXa7HGnv2dqk7v0ArV86lH0IY09991NdfsJ/ib+JO7yf/0tHzlxeApN3cfN7qLgpJvVHwN37/Lqr+Va/LDal/4S9HXxLPOmh78cxpiUud7/BD6k1nPA93vmoaz7MqFKpes+BFIX71y9f2yqMOJ9fPF2qivWPnTtqn93pZmZ3du3erbyzq6H9lZZCfEFhQg32eB7z6J7NIk/sNNrIwRfcbof29Qn0b19U3mMst2ch9w3PbdNVFvffUjVODfiX9FZ/s0hsr9AwJf0n1zWO0j/q3qbnJy5jHhYoH4tkZJk8DoePZ1ijRHcb9Bvyd7N8H0b/o3+U7GzX7mNeF3nxnm5Oq8kLPV50lvgPjhvIdWXpX1juWlkm+HDvseaLtqGskL46wGf6jrH54R/1Qz5aoBRNDWNph2h9Qmz/CiAVXr+rQgvpKio7S5Uf5tJzoiG05Fl3Jl2OHfd5f1mPd5Ama5KksNidPCLGUbfHHllfVDPXRUNrfVStnaEEBZ385L+OvGGB/Jd1wz5z5w575l8nEl8Rf/aSSEtcLf6LhU7fn7+qVbZrvzMFfs0N9ch5y/05bPE+LvzIljNu+34IQ+8PfVIbNgYDH+YqvtcO8HsUev8Pyt1/vfvAVHfrgK8pLrd+gOn1Utj2qIfzP14Z4HpjksOJ5WPfP8Dfu7wvTMj8jnuP8/juJ41d9/rL6bZKvz/zP+MVSkjpbDgaY6rkqL0ywDG+8SLCkFona6keSlRXuFVtujmQk1Wv/5K8m1QtDyvws/+FG7flmUX+cD0tmZVPXdfaAmtw4rmrzl9Tim5xLSnFpLpuIsa5skifHdfa88Mb+8oIbLwixv8w646/FkKlrOV07SxZ/tDdKf2ZJfaC4rm1XsOfWltMLjewvD0r4q7iVAC3Jrg+6V3JY/Ttt8Twt/joHICpMBQHMV4N1c+z5ebBWLtd6xNrk7mA5ZzJTiOfB+jV2PE/r/fO03G+gf6fj90HEs5pv+aJTcuEpyc5M0upJod4ShXmNVuk6lTOWLAdsUiZ3Oc162c0QZl3zvHEqW6f6iKvJooiU7K296Hxt1rSt0qas1HHds8m8v0xX9ExJts3f1jVp/mb80QANr1Uyc944pYvW/MHVRqV/M/7AX/RvzRg2i01bPJu+m+lXHXUEXaC+Gj6/8WcGtb5+O9Fun3/Oz6vgeGgE+LrgQZzHUf76i/mZqfQ25myCNk5JkWHvP3a32cBht2ZAfeY8YFWzGncP4tkkwmkjaJmzCdo4la9VdczV2I7Jeli/L2T80Y02nIK/Vd1Yeg79q0ZNL4w4vnSydywhZg6jUpB9TrBJcwxxccSzAVolMzyMU33QZk5zNbZjsvbZv53k9a2MptcDZ7+dK9ib68mM3XhFbj/dwlNAuQqF8xVa5qmcGfNU0LSzrnMFe/M9mbEbr8h11nWuYBf3ZMZuvCLXWde5gl3ckxm78YpcZ13nCnZxT2bsxitynXWdK1SI505ds2WrXhTKfDuZWhC6kY4gWqVeycKiUI4YDvMEnMPTuUJeMTn2ZMZuvCLXWde5QoW4OsWf/2P7TKHqWjhbl4BzdzlXsLfEkxm78YpcZ13nCnZxT2bsxitynXWdK9jFPZmxG6/IddZ1rmAX92TGbrwi11nXuYJd3JMZu/GKXGdd5wp2cU9m7MYrcp11nSvYxT2ZsRpXL/pgC0WAF3jy/8q0pFzZeeSDAAiAwKQT4K+Zv/Exva+Z5wWhRxxBnIcNBEBgNAnwh0P72NjOj+7x8TdrH62BDRAAARAAARCYLgKdQZ9MmS5MYb1FH4TlC+sgAAKjT+BVB+xP1/z057SOlheG9FNDanEIGwiAwGgS4KeF+LWvay5s01knuv+d8dYfL9IX71qK/61jo4kTrQIBEAABEACBoRBQH8eMbRgEsBA0DOrQBAEQGFUC/PoY8QLQ5q16YYj32EAABIZH4NzjW+or6fvr8xM+Z7+Fnxjy89RQf0WUAAEQAAEQAAEQ8EkAi0I+aVbYwiJQBRycAgEQmHoC/KQQb9fwjylfEOqq75RdUp8m2OngEs3hgA0ExoEAL6JhAwEQAAEQAIFxJIDXx8ax19BmEAABEJhAAvztY/obyB6RdW7QzxW64wc/pO99/w5tbGFhgWZmZvTnvB16yMH0m99uoCc/6Yl0pPrcIt7uufc++vo3vkV/+JIX6WP+8el//ywdc8xRdNKjTkzzJPH/3vdvdPEfvJBWrJjVWZu3bKEbPnMjvfTFy/WlbN39tm3b6KbP30zbt+/Q7Vy5ciWdf965tObAA+uaqF1u2/bt9NGPfZJmZ5cXnk4+6ST6zW9+q78Z8/xnnFvL1s/vf4AeunYtreIPA8c2UQTOOoFfB8PTP3U7NeFVtzTKgQAIgAAIgMDoEFi+GxydNqElIAACIAACU0aAP09IPyXk0e9TTzmJ+B9v177/Ovq9iy6kfffdRx9/45u3091335MuCv34rruJF44e+MV/02EPP5Tm5xdo0+ZN9KxHnqfL538kXy/q74NxFxeX6FOf/gwdccThdMFzTiNeELrvv36a+x7TfCuaHfMiWX4Ri/2WrzitY/1bt3+bnnD64+mIww+rUxxlxozAZc9tq1fIFses1fGby5ywgQAIgAAIgMC4EsCi0Lj2HNoNAiAAAiAwMIETTzyePvmpT+vXtHghZPPmLfSYR59KP/rxXXpR6N777qP9DzgwfRLIRej7d9xJP7jzTmq3Z/QTNBddeIFaZJqnG2/6Am3fsUObOu8Z5+gnbMTubzf8Vi9KnfnkM/QTTZx/zNFH6dP8NM5tX/06LS0mv5yff97T6aEPXUufv/mL9Fv1ZA+v4vATT09RdTdu3ET/8aVblK2uWliao+c+e52TD9/93ve15hNOP43+7boPqaeU1tBvN2zQi0c3f/FLGb09e/bQtm3b6dYv30b77LOanv+7z9N18WNyCFx14Qz9q/og6U34ZrDKTmVO2EAABEAABEBgXAlgUWhcew7tBgEQAAEQGJjA/g95iH4aZ/3P71cLG9vokIMPVq+JnUAf+sjHiZ/auesn99KJxx07kP077/whnXv2WXTooYfQ1q3JB2Z/5bav0UEHraHnXfBs4kWeW279Cv3+712U2ufFHF5Y4ad38tvatQcRLyzxK1q3f/s79N3v3UFnPe0p9Av1VBO/7sZ1ROdzX/gPetpTn6wWth6uF5Ju//Z/6sWivE0+5s8u4oUf2c45+2m0d+9etciU5OzdO0+HHPIweva684kXgPJ6+6vX/T768U/SE59wOp4UEogTuP/A89q07q14jaysa/GUUBkZ5IMACIAACIwLASwKjUtPoZ0gAAIgMOYELtz/AHon3T8yXhxz9NH6FbJt27fRk854As3NzREvFv3knnto65bN9MhHHl3aVv4Q6C1bH6TfUU/s8LZVpVesmNPp09VTNreop2fa7RYdf9xx9NjHnEq/+O9fqsWmRfrNho3UUu+e8dNJ5rZWfS7Pjh079UJNfmFoi3qK6Wvf+CatmF1BGzdtooPWrNFtPe7YR9IHP/xRvbj1hMefRg9Rbd+9ezfd/p/f0//27N5FBz/sYaZMJs06L7n4DzJ5P/3p+szxo089VR8zm7weLwphm3wC/Fk5O9/Tpiuu7+JVMqO71xzbIl4ww2cJGVCQBAEQAAEQGEsCWBQay25Do0EABEBg/Ag8i79yvve18z5a/y9H5j6R2tHoiSccTx/52Cf0t3w9/NBDde0TTjiOvvb1b6rFnodWfvsXv6713e9+j84952z1Ctoi3fGDO9PXvfgJoYvVgs3OXbvoIx/9OJ2obB588MNolfqcoDOf8iSt8+CD2zKtfah6GogXmr7y1a/RGerJG/2ZQvf9Fx144AH6yaCjjjySTnvcY+hLt3xZv7LFTzM99rGP1k8B/Wz9z4mfRHrxxS+kuRUr6PGq3OGHPVwvMPETPk02XtjirVRPLRY9+OCDugw/ebRx02a9UMZPPu23336qXpd2qYWqAw84QJfBj/ElYL4iNa2vlPFCEG9YDBrfOEbLQQAEQAAEigSwKFRkghwQAAEQAIFABG5UiynrNv+gmXW1sMR2mm78odOrV6+iQw85JDV17COP0YtCxx+fvDrGCzsLuad69t13X3qMevrnttu+Ttd96CO6Lr9+dvJJybeU3fS5L+gngfjJoAPU01G8wHPmk59EN3z2RvrAdR+mJfUfL0Lx61qytdTnAv3u856jv33sgx/+WObbx/jzj3jRh78hrdOZ0U8M8dNNN9xwI82qbz/jhZ/jjk3a+/Rzz6b/+OIt6hvE2mpRaIFOP+00OuywQ/WijmjJQo8c19mX6Z1y8km6bfwtb888/xn6G9gu/oPfp39X38R2xhNP1237gXqdLv9EUh1NlBk9ArIwdNXoNQ0tAgEQAAEQAAEQGJBAa2c3+Q6VAeujGgiAAAiAAAhoArPqj+id5A/pfYn86c/W9y1jK8CvoOknjmwnA+TxgsYvf/XrjGX+MOjVq1frPF744Q/hyS+08AdLt9XCTP5VMP6GM87nf2Ub21xSl2azLh/zh0ebXyHP9XlBaFa9VmbTn52d1RL8QdB7+LOCehs/TXTW086UQ6e9TS9p24JqR6JX1+CC+vK2eX9f4FZXFuVAAARAAARAAARAAAQMAlgUMmAgCQIgAAIgMDgBl0WhwVVQc1IIYFFoUnoSfoAACIAACIAACIwzgcl9fazsr481/4o9dp0Kf5MuQ/+OXehaG4x4nux4tnY6MkFgTAlgvko6DtffMQ3gXLMRz4jnXEiM9SHiGfE81gGca3zAeI6wKGRrffg7B5uCrSU51B4ObSq21niQMkzYFGwtMap4StpUbK3xJNczY1OwtcSvKluzqdha41fZpmBriV9V+JvwtNH3S9qmMMn965cerIGAELCNGtvokvJ+9jYFW0v8qJlWbCq21ph1mqdtCraWNFfKW7Cp2FqTr9fs2KZga0kzFVttm4qtNba6g+fZFGwtGVyhrKZNxdaasvqD5dsUbC0ZzHpVLZuKrTVVNtzP2RRsLXG33K+GTcXWmn523M7bFGwtcbNap7RNxdaaOrbql7Ep2FpS32LdkjYVW2vq2qtXzqZga0k9ay6lbCq21rjY7F/WpmBrSX9LxRIRFoXyojZ38mWaH1sBxZHONT6OKPxV2OOgRv/mCIQ4RDxPdjyHiBnYBIEigTgXBcxXinwc1LkujiOK/kX/5gIv0CHiOQRYjF+M3xBxVbQ5/uM38qJQHGC6oyJKFQNDciI2IqKUeFfcR2xERKmin5ITsRERpcS74j5iIyJKFf2UnIiNiCgl3hX3I9GIYrOQAwIDEYgYzxGlylFEbEREKfgrBCJCjygl3hX3ERsRUarop+REbEREKfGuuI/YiIhSRT8lJ2IjIkqJd8V9xEZElCr6KTkRGxFQKsKiUMDWS1+M1B7+jlR3eG8M+tc70pEyiP5t0h1dVTnCRaVJE1F3oglg/E509w7ncaQhIkU8DxF+BGn0bwTIQ5RA/w4RfgTpyevf8u/EjYAzqIT1ecGgisM1Dn+Hyz+0Ovo3NOHh2p+2/h0ubaiPCAFeRJyIbdrGL/ydiLAtdQL9W4pmIk6gfyeiG0udQP+WopmIEwH7t6M/NzfgYle+7QGlMn29lBPSh9KY3LlMxYYHIiFmAkqJhN7DX4VB4AeELhICP6CUSKB/FQHNWeAHhC4SAj+glEhMVP8uMsBY0DIEcTCOBHS8eGw4xq9HmBWmcL+h4EiwBZzvREK6IqCUSOg9+hf9mwkITweIZ08g+5jB+FWAJNgCTpoiId0RUEok9D5k/wZ9UkiA8d5MZ7wLcGBqmekAUhmTppaZzhQKcGBqmekAUhmTppaZzhQKcGBqmekAUhmTppaZzhQKcGBqmekAUhmTppaZzhQKcGBqmekAUhmTppaZzhQKcGBqmekAUhmTppaZzhQa4GBBjA1QF1Wmh4DvOJGw472ZDk3U1DLT0PVLwGRrpv2qFK2ZWma6WNJvjqllpv2qFK2ZWma6WNJvjqllpv2qFK2ZWma6WNJvjqllpv2qFK2ZWma6WNJvjqllpv2qFK2ZWma6WNJvjqllpv2qFK2ZWma6WNJvjqllpv2qFK2ZWma6WNJvjqllpv2qFK2ZWma6WHKwnHZ+xWkwM261lpQn8s9akz0Vb60F+me21JLd4mJSrt1b+uJD+NufXdMS0re8t27oXyuWqkzEsxrPChDGb1WU+DnXdPzOq/Hdm3r9NAhWJpIAx0mMrWk812kj5mfMz3XixEcZxHOOIu4nc0D6H2K+wnzVP0r8lMB8leM44vNVa0dXdZlqJE8SxU3u2qwni8VzObo2/5AFGrXXCzQ9PbbKAZPZ+FwvY9BfAE2Tkmab7KPWYw0RyYvrY+vJTEnbgdbiH6q6XpBSe/ibI8Xse1no3xybkkMdV8Kst2eGiOc8MCElEZY/X32sa/MPVR3jNxmng87PbcVwbrBuqO4knJ0IAvyUUHFRCOPXpXMxX+H+atD5uSrOZBRyGUnzVI77jTw1k07+XP9jjF+MX4zf5D6TRwt+H+w/Z2hORjFzBvI1P8+8/sorr2SNFlsvvYkvPcFVK7f2DNGu3URbH9xO8wtdmlsxSzMqj3/p4gGRWZzhY9Na5sA8USOt6vLnFWzfsZt2bN+pKrRptqOEezbhr8lwcNDoX8RzGkkYvykK58SEzVcqFIh/8eeZhReIsIEAE+AnyPaquOhyojQuSk+wicoN1yNcj9IAwfUoReGcUEMQ98/4fcEeN5if7VyKubge4XqURsWYXI+SD5pOW51N6IUTlTXoCh5bm19QN4Hqx46du6gz06K52VlaMdfRvyjkf1kYfKrJtluO9qo/RT64bRvt2b1bPbHTopVzs8mTO1Igt4e/OSA1DtG/iGcJE4xfITHYvnK+ssAdh/nKfBqE5/ugH2I3GHbUCkxgx6491Jnt0GJrJr2XyPwxqKc/DvFchWoSxy/8XSaA/jXun8f0erTcm8UU+hf9a0YFrkcmjXrpkf19EPNV8uCP6sZ+6zkdtXil/2AnBS3s6kVDSSl1L6ieDOqofzM0OztDK1Z01BM76q/I6rto+S8R+YWhEjPO2fwkUkvdea6cW6kWo5Su2vNvJPDXGWVlBfQv4rkyQAY8ifGbm696HMdxfk4XhnjyVRvveO7nG4htatF+YWGe9ttvP1q1alZfi0wfM+nes9ZLthUFbbn6B+vy67zbdhBt3ryJVqjr0UFr9lfXpeR6xFrm9UhuCsWqXCPluO7+n9/2Nrrm7W+nP371n9GL//CPJt7f8v6dSfuXy/Bm9m+S0+znyF6Pem7BX/SvCwHE84jcX2H8uoRtaVnEM+K5NDganOj7+0LPNq6//SEnnylklMtAa3jnxtUX1I1/R910d9UiEP82wDflfG/Pe74Bz7xTqfJFn+umB5x22LiuXnBSGrz4tKQWiNS6VHpDapoSPZ2nRVUqk2mWrk5zdfiL/k2jRAWEhJIOLTlIC9RLcF3EM8YvR0smhHRQ5TO5VL2Nq2O+Cj9fyaLQq17zZ/Qnr34NrkdGeCKeFYwMBANOnyTGL+4ncf+cDBJ9KWwwjnB/hfsrjqRMCOH+qs8VKHsa16PJuB6ppZLlLTMgOLuQsVy2Toqrd1hBRcuMWqCRTf7Qm7mg8UlVQcahlB1kz7r6L77KWId1DW3TXsG9QoZZun+aq8Nf1Y09juhfxHP/UVMsweGD8WvnksnFfJXB0e9gWPNz2i5cj1IUnCiEbyEjU7zvwbD6l3UxXxW7p9CdhYxinaoc9G9CB/dXvShRAYHfF6pGjP0cjyPMV0U2hempkFGsU5XD1fH7IH4fTGNEBcQ4zFedhnGf+luWCG0fugkBcC6LBL/54OyXZ5k1cC4j4zcfnP3y7GctNu/YeuI/dIVE2D04h+Ur1sFZSITdg3NYvmIdnIVE2D04h+Ur1sFZSDTflzxD09wwLIAACIAACIAACIAACIAACIAACIAACIAACIwuASwKjW7foGUgAAIgAAIgAAIgAAIgAAIgAAIgAAIgEIwAFoWCoYVhEAABEAABEAABEAABEAABEAABEAABEBhdAlgUGt2+QctAAARAAARAAARAAARAAARAAARAAARAIBgBLAoFQwvDIAACIAACIAACIAACIAACIAACIAACIDC6BLAoNLp9g5aBAAiAAAiAAAiAAAiAAAiAAAiAAAiAQDACWBQKhhaGQQAEQAAEQAAEQAAEQAAEQAAEQAAEQGB0CWBRaHT7Bi0DARAAARAAARAAARAAARAAARAAARAAgWAEsCgUDC0MgwAIgAAIgAAIgAAIgAAIgAAIgAAIgMDoEsCi0Oj2DVoGAiAAAiAAAiAAAiAAAiAAAiAAAiAAAsEIYFEoGFoYBgEQAAEQAAEQAAEQAAEQAAEQAAEQAIHRJYBFodHtG7QMBEAABEAABEAABEAABEAABEAABEAABIIRwKJQMLQwDAIgAAIgAAIgAAIgAAIgAAIgAAIgAAKjS6BT1bSl3slWVaE65xwNORa3t0CMyNkaTkiVGkXFqn3vaMixeLWmnK3hhBdd1nM05FhcPMruxYjkwl8hke4FUQ00aR1rwtGQY3GrZBpTcraGE150Wc/RkGNx8Si7FyOSC3+FRLoXRDXQpHWsCUdDjsWtkmmmgzGHoql5a8LRkGNxq2Q6huRsjU7zost6joYci4tH2b0YkVz4KyTSvSCqgSatY004GnIsbpVMY0rO1nDCiy7rORpyLC4eZfdiRHLhr5BI94KoBpq0jjXhaMixuFUyjSk5W8MJL7qs52jIsbh4lN2LEcmFv0Ii3QuiGmjSOtaEoyHH4lbJNKbkbA0nvOiynqMhx+LiUXYvRiTXo7+Vi0Kix/o1NKV4Zt9aMlq/1CL1f+2tkW5OxWhF7kzxsJEu/C0CLclpxDlnE/2bA2IcNuKMeDZImT5HkAAAJ1hJREFUVicbcc6ZRjzngBiHjTgPKZ65+Xzpk8sf+tfo0FxyHPtX+lVcQf8KieIe/VtkUpaD++cyMsX8RnGVM4fxmwNiHDbiPKTrL+ZnowP7JNG/fQAZpydxfq61KJQfUAaTGsmktp5kHQ05Fre2xWVyFwPNdOGvcOy3b8Y5sY7+7Ud5+RfR/iVtJRDPNiq2PMSzjUp1HsZvNR8+2yyuMH77E05KNOOc2EA896fdjDPiuT9hxHNdRvlyGL95IsVjjN8ik/IczFflbLJnmsVVYgvjN8vUdtSPc+WiUL/KNsHSPAdjDkVL5dITDsYciqbmSxMOxhyKlsqlJxyMORRNzZcmHIw5FC2VS084GHMompovTTgYcyhaKpeecDDmUDQ1X5pwMOZQtFQuPeFgzKFoar404WDMoWipXHrCwZhD0dR8acLBmEPRUrn0hIMxh6Kp+dKEgzGHoqVy6QkHYw5FU/OlCQdjDkVL5dITDsYciqbmSxMOxhyKlsqlJxyMORRNzZcmHIw5FC2VS084GHMompovTTgYcyhaKpeecDDmUDQ1X5pwMOZQtFQuPeFgzKFoar404WDMoWipXHrCwZhD0dR8acLBmEPRUrn0hIMxh6Kp+dKEgzGHoqVy6QkHYw5FU/OlCQdjDkVL5dITDsYciqbmSxMOxhyKlsqlJxyMORRNzZcmHIw5FC2VS084GKtbtHJRKBVukBhk5a6BXFoVuimKoAlwDoo3NQ7OKYqgCXAOijc1Pm2c2fFh+DwMzWH5Cl0mEGdDXIFzCAKIqxBUizbBucgkRA44h6BatAnORSaD5gRfFGr47PugfjV95h66dQnUXX6sa69uOejWJdWsHDg341e3NjjXJdWs3LA4N2v14LWH5S90B+8zl5rg7EJr8LLgPDg7l5rg7EJr8LLgPDg7l5rg7EJr8LLgPDi7XM3wi0IsKMt4sTtOdMXpWPqiG0tP/BNdOY6lL7qx9MQ/0ZXjWPqiG0tP/BNdOY6lL7qx9MQ/0ZXjWPqiG0tP/BNdOY6lL7qx9MQ/0ZXjWPqiG0tP/OO9aHM6lr5oxtJj33gT3eQI/goH33vhjP71TTZrTzhLbizeohtLT/wTXTmOpS+6sfTEP9GV41j6ohtLT/wTXTmOpS+6sfTEP9GV41j6ohtLT/wTXTmOpS+6sfTEP9GV41j6ohtLT/wTXTn2pN8We8H2+YYHExoRw/B3RDoiUDPQv4HAjohZ9O+IdESgZqB/A4EdEbPo3xHpiEDNQP8GAjsiZtG/I9IRgZqB/g0EdkTMon9HpCMGb0bb0+JSaQsW1Rn+Gnr9j0uFFpSWKB1TW6dVwIaWNzX1+AgtCH91bKF/JRD87hHPfnmWWsN8RfxttaGny6HFs+p4vh7ItRDzVelIaHRiaP2L8TvZ4xf9i/5tNDPZK2O+snPxnovxi/HrPaiyawyT8vt+e1F5wjfjITbTLGvof0qINRfVj1JdrmhWdmwcV11Usy3vW+pZKE63eFJQGfDXEWZFcbOL0L+I5zRUODDM4EhP1EtwVYxfzFf1oqV+KTMkY85XZgtxPUruA0wmvtLD6l/MV7i/8hXDph3Ec3Ibgd8XzKhQaQ4MMzhyp/sdYr7CfNUvRgY5b4ZkzPsrxLPfeG7zTarezB4dJCJK6rR7izK7d8/Tnr0LejLjPFLPKPFCTaiNbfNjUHv3LNHuPXv1L5kzMwoe/PWKHP2r4gzx7DWm2BjGLxHmK+9hpccqLzjGvh7pmFY/cD3q9SnuN7wEN66/uP56CaScEVx/cf3NhYSXQ8xXmK+8BFLOCOYrf/PVzF/9zZVXMlC9PqN/5Gg3PVQ3fzt3zdPmLZtp7949tGLFnPplJ1mZYd1kybtEuCS7VpNU3YUu0YYNG9UvALtVlRbNzc0mj9Cpc9p0E/tljWB/1QLYVPk7bf07Rf7yiv8u+KtH+yTOV+jf8Nejb33zm3T7t75Fpz3hiXTk0Y+Mej1C/4bv32RyGM79BvoX/du7my3ekTa5v1V1h3H/jHhGPCOee0MZ47c4p5XlYL7ytr7R4T/YlcYen+SttEByuuonm1hUM31XPQPaaqlXbPR/VTWMc5WNM8qVJLl6d1GtDKnE4hK/vVu5BJWc5EKN/WXdafJ32vp3evzl4TBN4xf+8gxdcxvD+Rn9i/4tjW7Ecyka2wnGFfv+ituB65GtNyx5iGcLlPIsxHP434+YPsZveQxmzmD8ZnD0O8D49TN+O/zQDq/OFzaVJ2sjttOF8iUZ/LjgqtUr1DNza/TrXCtWdPSe3xO2bp502Ta/fnHQ2rXUnV+glSvn9CspM8qp4P6umlXwpsjfaevfKfKXX7ecpvELfyd7fh5m//LrzLGvR8P0dxjXX/iL8Zu5rxzz+0nEM+IZ8ZwQKPuVMcOn4gDXI/U7ceDffzFfjf981eHPV+A/DSevRvRGlHEhrRhjtU51lX1eeFqtFkp4kYl1WFM/uaMOMl9/5lNXPSDEgqtWztBCZ4Y6qg1dlaf9hL/pgl+tTqwohP6d7HjmsTpN4xf+Ip7T6c7j9YhtKnPRr0eIZ8RziHjme6lh3F8hnhHPiOeUwMAJjN84vw9ivsJ8lQ5Sj/eTIcdvR39ILt+t8j/LVpJtKVmdJYs/vDBEaoFmZqndW5iwK9hzqzXMs2odSD3arNxS/3hBiJ8O4jbwSqb2tUSgJNs0XSsNf9G/ZqA0jSvEM8avGU+SbhpXYgfzVdj5ijnztQ/XI4bQ+6d2+Q3xnCdS7xjjN+z4xfUX11/bSMR8ZaPSPw/zFeYrM0qajiPMz/7m5w4vluiFGv2j100q3bST2BKblMHfs2x5dcsQZl1T2Dgl9evsuZosAkl5eRIK/ioizFnANNgzZ/RvHqARtMzZBG2cyteqOuZqiOeEEMav4sBxVRUwNc9xXGH85mEZg5Q5m6CNU/ladY65upjA9cggxpyNw0GTzBbxnKcnEafymbMJ2jiVr1V1zNVwPUoI4XqkOHBcVQVMzXMcVxi/eVjGIGXOJmjjVL5W1TFXw/hNCGH8Kg4cV1UBU/McxxXGbx6WMUiZswnaOJWvVXXM1UKO386A7apqc+acs33nChm59MCTmdRe3YSzrnMFe0s8mbEbr8h11nWuYBf3ZMZuvCLXWde5gl3ckxm78YpcZ13nCnZxT2bsxitynXWdK9jFPZmxG6/IddZ1rmAX92TGbrwi11nXuUKFuDrl2Vy12CB6nhroyUxf//IFnHWdK+QVk2NPZuzGK3KddZ0r2MU9mbEbr8h11nWuYBf3ZMZuvCLXWde5gl3ckxm78YpcZ13nCnZxT2bsxitynXWdK9jFPZmxG6/IddZ1rmAX92TGbrwi11nXuYJd3JMZu/GKXGdd5wp2cU9m7MYrcp11nSvYxT2ZsRrnl6mwgQAIgAAIgAAIgAAIgAAIgAAIgAAIgAAITBkBLApNWYfDXRAAARAAARAAARAAARAAARAAARAAARBgAlgUQhyAAAiAAAiAAAiAAAiAAAiAAAiAAAiAwBQSwKLQFHY6XAYBEAABEAABEAABEAABEAABEAABEAABLAohBkAABEAABEAABEAABEAABEAABEAABEBgCglgUWgKOx0ugwAIgAAIgAAIgAAIgAAIgAAIgAAIgAAWhRADIAACIAACIAACIAACIAACIAACIAACIDCFBLAoNIWdDpdBAARAAARAAARAAARAAARAAARAAARAAItCiAEQAAEQAAEQAAEQAAEQAAEQAAEQAAEQmEICWBSawk6HyyAAAiAAAiAAAiAAAiAAAiAAAiAAAiCARSHEAAiAAAiAAAiAAAiAAAiAAAiAAAiAAAhMIQEsCk1hp8NlEAABEAABEAABEAABEAABEAABEAABEMCiEGIABEAABEAABEAABEAABEAABEAABEAABKaQQGdifV4q8axVkj/u2fA36UH077hHctJ+xDPieTIiOetFPq4xX2X5jOtRvl/FD/SvkBjvPfo36T/E83jHsbQe8Yx4lliYhD3i2Vs8R1gUsvVW+CuLTcHWEv/jwaZia41fZZuCrSV+VdmaTcXWGr/KNgVbS/yqwt+Ep42+X9I2BfSvX8aJNRtVG32/2jYFW0v8qrI1m4qtNf6VWcVUsrXEv6pNxWyFf0W2aFOwtcS/uk3F1hq/yjYFW0v8qrI1m4qtNX6VbQq2lvhVhb8JTxt9v6RtCuhfv4wTazaqNvp+tW0Ktpb4VWVrNhVba/wq2xRsLfGrCn8Tnjb6fknbFNC/gzGOsCiUb5it+/Jlmh9bAyKOdK7xcUThr8IeBzX6N0cgxCHiGfEcIq6KNuNNGhzTmbiOJ224HUc046eox5EWtd4+jij8VbjjoEb/5giEOEQ8I55DxFXRZpxJA/GMeC7GXoic8Y/nyItCcYDpro4oVR5aERsRUQr+CoGI0CNKiXfFfcRGRJQq+ik5ERsRUUq8K+4jNiKiVNFPyRlCI4YgKd5G/a19qH6KxxEbEVFKvCvuIzYiolTRT8mJ2IiIUuJdcR+xERGlin5KTsRGRJQS74r7iI2IKFX0U3IiNiKilHhX3EdsRESpop+SE7EREaXEu+I+YiMCSkVYFArY+mKvjEAO/B2BTgjYBPRvQLgjYBr9OwKdELAJ6N+AcEfANPp3BDohYBPQvwHhjoBp9O8IdELAJqB/A8IdAdPo3xHohEZNmNxvH7M+L9iI1WhXhr+j3T9NW4f+bUpwtOujf0e7f9A6NwKIZzde41Ya/TtuPebWXvSvG69xK43+Hbcec2sv+teN17iVDti/Hf0hBwEX9/JtDyiV6dalnJA+lMbkzmUqNjwQCTETUEok9B7+KgwCPyB0kRD4AaVEAv2rCGjOAj8gdJEQ+AGlRAL9OwX9K50t8YV4FiJ+98JXrGL8Cgm/e9xvKJ4SbAGDTCSk9wJKiYTeo3/Rv5mA8HSAePYEso8ZjF8FSIIt4KQpEtIdAaVEQu9D9m/QJ4UEGO/NdMa7AAemlpkOIJUxaWqZ6UyhAAemlpkOIJUxaWqZ6UyhAAemlpkOIJUxaWqZ6UyhAAemlpkOIJUxaWqZ6UyhAAemlpkOIJUxaWqZ6UyhAAemlpkOIJUxaWqZ6UyhAAemlpkOIJUxaWqZ6UyhgAesGVPX1DLTAV3Upk0tMw1dvwRMtmbar0rRmqllposl/eaYWmbar0rRmqllposl/eaYWmbar0rRmqllposl/eaYWmbar0rRmqllposl/eaYWmbar0rRmqllposl/eaYWmbar0rRmqllposl/eaYWmbar0rRmqllposl/eaYWmbar0rRmqllposl/eaYWmbar0rRmqllposlB8tp51ecBjPjVmtJeSL/rDXZU/HWWqB/Zkst2S0uJuXavaUvPoS//dk1LSF9y3vrhv61YqnKRDyr8awAYfxWRYmfcxi/OY4e5iu2KPMhrkc5voEPEc85wB7iGdcjXI9yURXsEOM3hxbjNwek/yHmK8xX/aPET4lxn6/0concrBaReJh9lAl+pGpJ/Ua3yOb4QP1rKWW5Oc7o9spzsSYb+zTTWwzq5haH4K+Q5Q7hfw22Xn+hfxHPOop68YDx6zamMF8tj59JnJ85Gtq9QYHrUdnYwPWojExpPq6/uJ80gwPXX5NG7TSuv5N9/UX/on+LkwHuN4pMiDrJh3WoU8yn6W9yFoX2DNHOXUTbt2+nzuwM7b/fKppRed1uUlhulPVR74JmMeOepXzhJ4W279hN83v30qpVq2j1qtllH+GvO1NLDfQv4jkNC4zfFIVzAvPVZM/PKiD4krNtO65Hemzg+us8Rdgq4PqL628aF7j+piicE7j+Tvb1F/2L/lUx4HubxOtv8kHTJaRafOOmtiavbMwvEO1VP3aolaHOTIvmZmdpxVxH/9U0syCkdHz32d75JXpw2zbas3u3eiqpRSvnZpefTrKIwV/d3U4/0L+IZwkYy5CSUwPtMX4xX5mBM+7zc7eL61H6dLBlshj3/sV8hflqkuYrxDPiGfGM33/NGOiXxu+D4//7YEf+YCcLP5Z7tX5xUHl+tqNe45rpqH8zNKueFFqxokOct6CeFOLXyfILQ5XGHE7yU0It9SLpyrmVajFK6ao9qdfJUn97tuCvA1RLUfQv4tkSFo2zMH4xX3EQTcr8rAcErke4/jaeGbMGcP3F9TcbEX6OcP3F9ZcjaVKuv4hnxDPiud61obWjm/0Eh8wk0HtSaNCZgasvqCeFOuqtLf26GC8C8cJMb88LQhl1lS/6XDc9qOdLWorr6gUnpcWLT/x5N2pdSpsT+1I4c6xF1ZlMppTsv+fq8Bf9m0aKCggJJR1acpAWqJfguohnjF+OlkwI6aDKZ3KpehtXx3wVfr7657e9ja55+9vpVa/5M/qTV78G1yMjPBHPCkYGggGnTxLjF/eTuH9OBom+FDYYR7i/wv0VR1ImhHB/1ecKlD2N69FkXI/UUsnylhkQnF3IWC5bJ8XVO6ygokU+9Jnr8SfB85a5oHGGypdxyIeDbmxeP4GkjHX4w6b5n2XrNWP5TCFj+VSdFFeHv+jfNFZUQCCeUxq1EzyOMH6LuArTUyGjWKcqh6tjvgo/X6V9gOtRioIThfAtZGSK9z1APCeIcH/VCxUVELj+9h02hQI8jnD9LWDBfIX5uRgUFTm4HiVwcD3qBcmYXI86Dcd5xZDoBUTfEmEKhParrNXQLSPjNx+c/fIsswbOZWT85oOzX55l1obFWdoTWz+23rD8hK4QiLNHXIFzCAKIqxBUizbBucgkRA44h6BatAnORSaD5rR25l4fG9QQ6oEACIAACIDAqBG49a5FevGn1TvEatt0j49nB0bNw+r2rDm2RZccn9w2XXWh+upPbCAAAiAAAiAAAiAAAiBgEMCikAEDSRAAARAAgckgIItB07gQVNaDlz23TVgYKqODfBAAARAAARAAARCYTgJYFJrOfofXIAACIDCxBK64vktX35A8HTSxTjZw7MbXztBZJ5R82F4Du6gKAiAAAiAAAiAAAiAwfgSwKDR+fYYWgwAIgAAIVBBY/Yr5irM4xa+UPXB55nsmAAUEQAAEQAAEQAAEQGBKCeBPhVPa8XAbBEAABCaRAD8lhK2aAL9SB07VjHAWBEAABEAABEAABKaFAJ4Umpaehp8gAAIgMAUE8JRQ/U7e+Z7Z+oVREgRAAARAAARAAARAYCIJ4EmhiexWOAUCIAAC00eAP1waW30C4FWfFUqCAAiAAAiAAAiAwKQSwKLQpPYs/AIBEACBKSPwxbun7yvnp6yL4S4IgAAIgAAIgAAIgIBnAvikSc9AYQ4EQAAEQGC0CbxBfTX7uSe06KwT3f8ucuuPF+lV1y/Sj9Tn8oz7xotoZ50w7l6g/SAAAiAAAiAAAiAAAk0IuN8RN1FDXRAAARAAARAYIgFeELrqIvWV7AMsCHGzud4PX9chtoMNBEAABEAABEAABEAABMadAO5qx70H0X4QAAEQAIFaBB6lvoqdF4R8bL7s+GgLbIAACIAACIAACIAACIDAoASwKDQoOdQDARAAARCYagJ4Wmiqux/OgwAIgAAIgAAIgMBEEMBnCk1EN8IJEAABEACBfgRecHyrXxHv51+3rk0vPD3795dfblmiV9+wSO++sE3nXdMl2lMue+lTW3TGUS269H3l36z25ctn6GnXKTsPlNvBGRAAARAAARAAARAAARCwEahcFJKP0Wx8G+1oyLG4zS8iMSJnazghVWoUFav2vaMhx+LVmnK2hhNedFnP0ZBjcfEouxcjkgt/hUS6F0Q10KR1rAlHQ47FrZJpTMnZGk540WU9R0OOxcWj7F6MSC78FRLpXhDVQJPW8ZVYv2GJHrF2MOXzH9VSdYnee+vyos6G7Ut09L5EJx2mbPYxe/KhLTqFy1VsTzmuTc84aJFufkAoVRTuc0osVCvWNCLFahjzost6joYci4tH2b0YkVz4KyTSvSCqgSatY004GnIsbpVMY0rO1nDCiy7rORpyLC4eZfdiRHLhr5BI94KoBpq0jjXhaMixuFUyjSk5W8MJL7qs52jIsbh4lN2LEcmFv0Ii3QuiGmjSOtaEoyHH4lbJNKbkbA0nvOiynqMhx+LiUXYvRiTXo7+Vi0Kix/o1NKV4Zt9aMlq/1CL1f+2tkW5OxWhF7kzxsJEu/C0CLclpxDlnE/2bA2IcNuKMeDZIVicbcc6ZRjzngBiHTTgbZjLJF71ngT70jXLqf/OcNr3x+YN/FtH9G4gu//jyopCIH/raBUmW7v/8w8V6pYU9nmjCOX+ZLydbbHAjXcxXRaAlOY0452yif3NAjMNGnBHPBsnqZCPOOdOI5xwQ47ARZ8SzQbI62YhzzjTiOQfEOGzEeQLjOftMuwHKTOZv8Mxz/dNcWy0G8T9HQ47FrU3hDncZEGykmS78tXaEJbMZ58Qg+tcCNpfVjDPiOYez9LAZ58Qs4rkUb3rCB+fUWC9x7EEhrOZVssdHHd2iPe+c1ZlXv6BNd7+pQ/df3aHF987S9mtm6bhjkjbxuTuvTP5+c8HjWrTtHbPUVWW47l+pV9Nke8Mz2zqPz938vwZfwBJ7PoggnoVm+b4ZZ66N+6tyustnmnFO7CCel3mWpZpxRjyXcc3nN+OcWEM856kWj5txRjwXidpzmnFObCKe7WzN3H6cl+8ozVq9dBLOlhODZPVriWHTu25Nbe+6hk9VSe+68NeK2ztnq0ox07su+rcIWeV452xVKWZ610X/FiH77l+rQrjMk49o0cZ/6qT/PvzHM7SfWueZ7T2re+BqouMObtHf3tCl9ivn6f6NS/SJlyYLO3zuAPWqGW/vVXk33rFIM5fO02FvnqefbubboCT2Tz68RXN/MU+nv2WBnn6yurQfpk85/0A8OyNbruAAz6Hosv2yVM05g6t7162p7V23jEUu37su/M0RTg69c7aqFDO966J/i5BVjnfOVpVipndd9G8RMvrXyqR2Zs2YYnujHs+1Xh+rDcZSMLlltZwInAXdwIB75sEZnEMQQFyFoFq0OW2ciwTi5DygFnku4Q+C7m03q+NTV2fvJDbvWKJ33Zr0yGfVws/Lzyz+zebeXy/RulPb9I6Ll+ivv7qYvvLGtS77iLK/neg7dy3RvEq+7MgWXevhM4akzS77aYsr+OsSHYOXBefB2bnUBGcXWoOXBefB2bnUBGcXWoOXBefB2bnUDMk5+KKQXhZz8dZX2ez9ti+r/e1Atz8jHyXA2QfF/jbAuT8jHyXA2QfFgW20AvPfsoPo5u/nLuXHZZu7c+/y8R71UUO2Nj3lzV169TmL9JIz2vSbs2fp2tu66beSrX9wuT6/M90J7JOhVkwOSxu6xb4IkQPOIagWbYJzkUmIHHAOQbVoE5yLTELkgHMIqkWbE8i5+KfIotvNc/heOHc/3NxoDQuiK/saVbwUia0njRZd2Ut+6H1sPfFHdGUv+aH3sfXEH9GVveSH3sfWE39EV/aSH3ofW0/8EV3ZS37ofWw98Ud0ZS/52JcSuER9Pf071NNET/q7Ln3i24u07tFxLuGlDao6If0q+6qyPs/F1pO2i67sJT/0Prae+CO6spf80PvYeuKP6Mpe8kPvY+uJP6Ire8kPvY+tJ/6IruwlP/Q+tp74I7qyl/zQ+9h64o/oyl7yQ+9j64k/oit7yQ+9j60n/oiu7CU/9D62nvgjurKX/Ib78E8KcYOnaYO/k93b6F/07yQRmLZ4HlLf2b4/zMzjL7HIfJGFaqccm+cuf9YMvftlLVpQTxK11XrQK9+//O1lUp5d5HR3Gvt22nyGv0Ma0ZFk0b+RQA9JBv07JPCRZNG/kUAPSWYC+1c/YR7SL77xNR+D1+mQghIb6rGuRaUj2nyT3FL/2io/pDz8VR0QEjD6VxNAPEsg+N1j/CqeEzx+y6LlXvUZP6G2c9+6/FlCpsadP1mitvrAaN5e8X6OPP6XbK//5CLxP97Mc8e/Xi0CzanMfdS/TXw22fiDp81tTn1Y9VA3XH9xvxEgADE/K6jhpqrlHsP4xfhdjgZvKYxfjF9vwWQawnzlbb7q8MIJb7J4khz5+Wleu9K/YvKiDJ9QP1pK1KorFVXZQTZtXs0+vOe/pnZ7f1VdTO6xtUmr7iBiRh1pNmfBX/RvGhoSGIjnFElVAuM3mbcwX1VFid9zH7i0Qx+4tNzm+g0yiMvLRDuzRynxv1CbuIr5qhZhzFeYr3A/WWuoVBaSaYcL4f4Z989psEhg4HqUIqlK4HqE61GT61G7JR9JIAOvKtoGOMeLMvzLze7d87Rnr1qdUTqcx4/sNGl4v6awbX4qaO+eJdq9Z69uw4z6hl/424+c23n0L+LZLWLqlcb4JcJ8VS9WYpR6xNoB70hjNG4ENTB+MX5DhCXuN3C/ESKuMF9hvgoRV5ivMF+FiKuQ81Vb/zU64P0u29+1a542bd5MW7Zsob17u5m/AiTP8wTApnxaUE/tb9i4Uelupe3bd2pd+OuXNfoX8ew3onrWMH4xXwUJLL9GP3Z3oL+m+G1mfGsYvxi/AaIO9xu43wgQVuqvxfh9gZ/Owu9HfqML8xXmK78R1bMWcL5qV97S8snKAvXcXVSzTVe9p7ao/iX/1avXVJub3l3sKt1F9flCybtjle7A35odky2G/s3yKD2qDL7SWukJxHOf6QjjN40Vl8Q0jd833mC8Q+wCaRrLYr5y6nXMz5ifMwGD61EGR92DaboeMRP4WzMycD2qCSophusRrkeZgKl5PerMqFe50vd3TQvKgFqM0luTsciva61avUI9Q7ZGv861YkVH7+WzjExJEfOhy7b49YuD1q6l7vwCrVw5p19Xm1HG4a+Cg/7V4eb6A/GM8ZuJGU/jiG1ivlIMAs/PzPmKT3bpqovUxaHhxnZ+dE+Tq2PDBoSojngemCrGb/jxi+svrr+ZAYr5KoPD5QDzFearNF48jSPMz+M/P3f044IcELISw1FiBEgaNAMm2D4vPK1eNasXmViH8/STO+qAP/cn3TzqdvkLX5TtVStnaKEzQx3VBs7TfsLfdMEvZT9gAv2LeE5DB+M3ReGawHwVZ37mfuGnhfi1r2subNNZJ6oLg+N2648X6Yt3LWk7jlVHuzjG78D9g/EbZ/zifgP3G+kgxXyVonBNYL7CfJXGjMdxhPl5/Ofnjv7QZxUUZa9q8Skfmyz+6DUgdR8+s9TuLUzYFey59Vui1oHUq2PKLfWPF4T46SBuA69kal9LBEqy6wv3SsJf9K8ZNE3jCvGM8WvGk6SbxpXYmZT56tzjW3T1DeJV+Z6f8Dn7LfyXA/6HLU+gaVxhvsJ8lY8pPm4aV2JzUuYr8affHv7iftKMkabjCPMz5mczniTdNK7EDuar8Z2vOrxYohdq9I9el6q0j+BgkxIcEizFV7cMYdY1hY1TUr/OnqvJIpCUlyeh4K8iwpwFTIM9c0b/5gEaQcucTdDGqXytqmOuhnhOCGH8Kg4cV1UBU/Mcx9U0jd+aWKaqGC+ipRvHlRlYxqm0TI0EV8N8lYDCfKU4cFzViJt+RTiupmm+gr+5+UgHCFPpbRxXZmAZp6RInT1Xw3yVkMJ8pThwXNUJnD5lOK4wX+UhGYOUOZugjVP5WlXHXA3jNyHkY/y2dnYz3VLFHudAAARAAARAYKQJrH7F/Ei3b5Qat/M9s6PUHLQFBEAABEAABEAABEBgCATcP1BhCI2EJAiAAAiAAAjUIXDZc3FZA6c6BFAGBEAABEAABEAABECACeBJIcQBCIAACIDARBE47B8WaNOkfTOY5x7CU0KegcIcCIAACIAACIAACIwpAfxJdUw7Ds0GARAAARCwE/jA83Bps5NJcvE0VRUdnAMBEAABEAABEACB6SKAJ4Wmq7/hLQiAAAhMDYErru+qbyNTX0GJTRNYc2yLeMHsrBOwaIaQAAEQAAEQAAEQAAEQSAh0AAIEQAAEQAAEJpHAVRfOpG79691LU/lKGS8E8YbFoDQUkAABEAABEAABEAABEDAI4EkhAwaSIAACIAACIAACIAACIAACIAACIAACIDAtBPAM+bT0NPwEARAAARAAARAAARAAARAAARAAARAAAYMAFoUMGEiCAAiAAAiAAAiAAAiAAAiAAAiAAAiAwLQQwKLQtPQ0/AQBEAABEAABEAABEAABEAABEAABEAABgwAWhQwYSIIACIAACIAACIAACIAACIAACIAACIDAtBDAotC09DT8BAEQAAEQAAEQAAEQAAEQAAEQAAEQAAGDABaFDBhIggAIgAAIgAAIgAAIgAAIgAAIgAAIgMC0EMCi0LT0NPwEARAAARAAARAAARAAARAAARAAARAAAYNAx0hPVnKpxJ1WSf64Z8PfpAfRv+MeyUn7Ec+I58mIZMSz2Y+Yn00a45vG/Jz0HeJ5fGPYbDniGfFsxsO4pxHPiOcBYzjCopAtOsNfSW0KtpYMyK2imk3F1poKEwOcsinYWjKA6T5VbCq21vQx43japmBriaPZGsVtKrbW1DDlUMSmYGuJg8maRW0qttbUNFezmE3B1pKa5hyK2VRsrXEwWaOoTcHWkhqmHIvYVGytcTTbp7hNwdaSPmYGOG1TsbVmANMVVWwKtpZUmBjwlE3F1poBzZdUsynYWlJSvUG2TcXWmgYSlqo2BVtLLFUbZtlUbK1pKJOrblOwtSRXzcOhTcXWGg9Shgmbgq0lRhVPSZuKrTWe5HpmbAq2lvhVZWs2FVtr/CrbFGwt8asKfxOeNvp+SdsU0L9+GSfWbFRt9P1q2xRsLfGrytZsKrbW+FW2KdhaMohqhEWhfLNs7uTLND+2AoojnWt8HFH4q7DHQY3+zREIcYh4RjyHiKuizTiTBuIZ8VyMvRA5iOcQVDF+MX5DxFXRJsZvkUnzHIxfxTBOaOU6K44o+tdf/0ZeFIoTIDoqI0rlRoFxGLEREaUMB3PJiI2IKJVz0jiM2IiIUoaDuWTERkSUyjlpHEZsREQpw8FcMmIjIkrlnDQOIzYiopThYC4ZsRERpXJOGocRGxFRynAwl4zYiIhSOSeNw4iNiChlOJhLRmxERKmck8ZhxEZElDIczCUjNiKiVM5J4zBiIyJKGQ7mkhEbEVEq56RxGLEREaUMB3PJiI0IKNXa2V2yLrLlvMUhCIAACIAACIAACIAACIAACIAACIAACIDABBGY3G8fm7alLvg7QcPS4gr61wJlgrLQvxPUmRZX0L8WKBOUhf6doM60uIL+tUCZoCz07wR1psUV9K8FygRloX+9dWZr54J6Uijgo0j5vgoolYFi1ZXMgI0QCWlMQCmR0HurrmQGbIRISGMCSokE/FUENGeBHxC6SAj8gFIigf5F/2ZiwecB4tknzXJbVs6SGXASEQlpWUApkdB7q65kBmyESEhjAkqJBPxVBDRngR8QukgI/IBSIoH+Rf9mYsHnAeLZJ81yW1bOkhlwEhEJaVlAKZHQe6uuZAZshEhIYwJKiURwf/8/hmwwqEtakfUAAAAASUVORK5CYII=;" vertex="1" parent="1">
          <mxGeometry x="770" y="1200" width="627.55" height="444.76" as="geometry" />
        </mxCell>
        <mxCell id="7g0lY63vqaFutVTRd0vr-2" value="Pool" style="swimlane;childLayout=stackLayout;resizeParent=1;resizeParentMax=0;startSize=20;html=1;" vertex="1" parent="1">
          <mxGeometry x="1435" y="1273" width="960" height="880" as="geometry" />
        </mxCell>
        <mxCell id="7g0lY63vqaFutVTRd0vr-3" value="Workflow" style="swimlane;startSize=20;html=1;verticalAlign=top;" vertex="1" parent="7g0lY63vqaFutVTRd0vr-2">
          <mxGeometry y="20" width="440" height="860" as="geometry" />
        </mxCell>
        <mxCell id="7g0lY63vqaFutVTRd0vr-8" value="" style="edgeStyle=orthogonalEdgeStyle;rounded=0;orthogonalLoop=1;jettySize=auto;html=1;" edge="1" parent="7g0lY63vqaFutVTRd0vr-3" source="7g0lY63vqaFutVTRd0vr-6" target="7g0lY63vqaFutVTRd0vr-7">
          <mxGeometry relative="1" as="geometry" />
        </mxCell>
        <mxCell id="7g0lY63vqaFutVTRd0vr-6" value="Start" style="ellipse;whiteSpace=wrap;html=1;aspect=fixed;" vertex="1" parent="7g0lY63vqaFutVTRd0vr-3">
          <mxGeometry x="46" y="53" width="37" height="37" as="geometry" />
        </mxCell>
        <mxCell id="7g0lY63vqaFutVTRd0vr-10" value="" style="edgeStyle=orthogonalEdgeStyle;rounded=0;orthogonalLoop=1;jettySize=auto;html=1;" edge="1" parent="7g0lY63vqaFutVTRd0vr-3" source="7g0lY63vqaFutVTRd0vr-7" target="7g0lY63vqaFutVTRd0vr-9">
          <mxGeometry relative="1" as="geometry" />
        </mxCell>
        <mxCell id="7g0lY63vqaFutVTRd0vr-7" value="publish campaign" style="rounded=1;whiteSpace=wrap;html=1;" vertex="1" parent="7g0lY63vqaFutVTRd0vr-3">
          <mxGeometry x="20" y="115" width="90" height="40" as="geometry" />
        </mxCell>
        <mxCell id="7g0lY63vqaFutVTRd0vr-13" style="edgeStyle=orthogonalEdgeStyle;rounded=0;orthogonalLoop=1;jettySize=auto;html=1;" edge="1" parent="7g0lY63vqaFutVTRd0vr-3" source="7g0lY63vqaFutVTRd0vr-9" target="7g0lY63vqaFutVTRd0vr-12">
          <mxGeometry relative="1" as="geometry" />
        </mxCell>
        <mxCell id="7g0lY63vqaFutVTRd0vr-9" value="save Schedule info" style="rounded=1;whiteSpace=wrap;html=1;" vertex="1" parent="7g0lY63vqaFutVTRd0vr-3">
          <mxGeometry x="20" y="186.5" width="90" height="40" as="geometry" />
        </mxCell>
        <mxCell id="7g0lY63vqaFutVTRd0vr-12" value="" style="shape=cylinder3;whiteSpace=wrap;html=1;boundedLbl=1;backgroundOutline=1;size=15;" vertex="1" parent="7g0lY63vqaFutVTRd0vr-3">
          <mxGeometry x="42" y="251" width="50" height="70" as="geometry" />
        </mxCell>
        <mxCell id="7g0lY63vqaFutVTRd0vr-17" style="edgeStyle=orthogonalEdgeStyle;rounded=0;orthogonalLoop=1;jettySize=auto;html=1;" edge="1" parent="7g0lY63vqaFutVTRd0vr-3" source="7g0lY63vqaFutVTRd0vr-14" target="7g0lY63vqaFutVTRd0vr-15">
          <mxGeometry relative="1" as="geometry" />
        </mxCell>
        <mxCell id="7g0lY63vqaFutVTRd0vr-14" value="Start" style="ellipse;whiteSpace=wrap;html=1;aspect=fixed;" vertex="1" parent="7g0lY63vqaFutVTRd0vr-3">
          <mxGeometry x="231.5" y="53" width="37" height="37" as="geometry" />
        </mxCell>
        <mxCell id="7g0lY63vqaFutVTRd0vr-18" style="edgeStyle=orthogonalEdgeStyle;rounded=0;orthogonalLoop=1;jettySize=auto;html=1;" edge="1" parent="7g0lY63vqaFutVTRd0vr-3" source="7g0lY63vqaFutVTRd0vr-15" target="7g0lY63vqaFutVTRd0vr-16">
          <mxGeometry relative="1" as="geometry" />
        </mxCell>
        <mxCell id="7g0lY63vqaFutVTRd0vr-15" value="Campaign Schedule job" style="rounded=1;whiteSpace=wrap;html=1;" vertex="1" parent="7g0lY63vqaFutVTRd0vr-3">
          <mxGeometry x="205" y="115" width="90" height="40" as="geometry" />
        </mxCell>
        <mxCell id="7g0lY63vqaFutVTRd0vr-22" value="" style="edgeStyle=orthogonalEdgeStyle;rounded=0;orthogonalLoop=1;jettySize=auto;html=1;" edge="1" parent="7g0lY63vqaFutVTRd0vr-3" source="7g0lY63vqaFutVTRd0vr-16" target="7g0lY63vqaFutVTRd0vr-20">
          <mxGeometry relative="1" as="geometry" />
        </mxCell>
        <mxCell id="7g0lY63vqaFutVTRd0vr-16" value="Query pending executable Campaign" style="rounded=1;whiteSpace=wrap;html=1;" vertex="1" parent="7g0lY63vqaFutVTRd0vr-3">
          <mxGeometry x="205" y="186.5" width="90" height="40" as="geometry" />
        </mxCell>
        <mxCell id="7g0lY63vqaFutVTRd0vr-19" value="subscription event filter rule" style="rounded=1;whiteSpace=wrap;html=1;" vertex="1" parent="7g0lY63vqaFutVTRd0vr-3">
          <mxGeometry x="309" y="272" width="90" height="40" as="geometry" />
        </mxCell>
        <mxCell id="7g0lY63vqaFutVTRd0vr-23" value="" style="edgeStyle=orthogonalEdgeStyle;rounded=0;orthogonalLoop=1;jettySize=auto;html=1;" edge="1" parent="7g0lY63vqaFutVTRd0vr-3" source="7g0lY63vqaFutVTRd0vr-20" target="7g0lY63vqaFutVTRd0vr-19">
          <mxGeometry relative="1" as="geometry" />
        </mxCell>
        <mxCell id="7g0lY63vqaFutVTRd0vr-20" value="realtime campaign?" style="rhombus;whiteSpace=wrap;html=1;" vertex="1" parent="7g0lY63vqaFutVTRd0vr-3">
          <mxGeometry x="217.5" y="260.5" width="65" height="63" as="geometry" />
        </mxCell>
        <mxCell id="7g0lY63vqaFutVTRd0vr-11" value="AIMAS_CAMPAIGN_WORKFLOW_SCHDULER" style="text;html=1;align=center;verticalAlign=middle;whiteSpace=wrap;rounded=0;" vertex="1" parent="7g0lY63vqaFutVTRd0vr-3">
          <mxGeometry x="46" y="277" width="60" height="30" as="geometry" />
        </mxCell>
        <mxCell id="7g0lY63vqaFutVTRd0vr-44" value="EventCenterDriveHandler" style="rounded=1;whiteSpace=wrap;html=1;verticalAlign=top;arcSize=1;" vertex="1" parent="7g0lY63vqaFutVTRd0vr-3">
          <mxGeometry x="180" y="367" width="160" height="143" as="geometry" />
        </mxCell>
        <mxCell id="7g0lY63vqaFutVTRd0vr-56" style="edgeStyle=orthogonalEdgeStyle;rounded=0;orthogonalLoop=1;jettySize=auto;html=1;" edge="1" parent="7g0lY63vqaFutVTRd0vr-3" source="7g0lY63vqaFutVTRd0vr-46" target="7g0lY63vqaFutVTRd0vr-47">
          <mxGeometry relative="1" as="geometry" />
        </mxCell>
        <mxCell id="7g0lY63vqaFutVTRd0vr-46" value="targetGroup check" style="rounded=1;whiteSpace=wrap;html=1;" vertex="1" parent="7g0lY63vqaFutVTRd0vr-3">
          <mxGeometry x="200" y="392" width="100" height="40" as="geometry" />
        </mxCell>
        <mxCell id="7g0lY63vqaFutVTRd0vr-49" style="edgeStyle=orthogonalEdgeStyle;rounded=0;orthogonalLoop=1;jettySize=auto;html=1;" edge="1" parent="7g0lY63vqaFutVTRd0vr-3" source="7g0lY63vqaFutVTRd0vr-47" target="7g0lY63vqaFutVTRd0vr-48">
          <mxGeometry relative="1" as="geometry" />
        </mxCell>
        <mxCell id="7g0lY63vqaFutVTRd0vr-47" value="send next element driven event" style="rounded=1;whiteSpace=wrap;html=1;" vertex="1" parent="7g0lY63vqaFutVTRd0vr-3">
          <mxGeometry x="200" y="461" width="100" height="40" as="geometry" />
        </mxCell>
        <mxCell id="7g0lY63vqaFutVTRd0vr-51" style="edgeStyle=orthogonalEdgeStyle;rounded=0;orthogonalLoop=1;jettySize=auto;html=1;" edge="1" parent="7g0lY63vqaFutVTRd0vr-3" source="7g0lY63vqaFutVTRd0vr-48" target="7g0lY63vqaFutVTRd0vr-50">
          <mxGeometry relative="1" as="geometry" />
        </mxCell>
        <mxCell id="7g0lY63vqaFutVTRd0vr-48" value="" style="shape=cylinder3;whiteSpace=wrap;html=1;boundedLbl=1;backgroundOutline=1;size=15;rotation=90;" vertex="1" parent="7g0lY63vqaFutVTRd0vr-3">
          <mxGeometry x="67" y="441" width="43" height="80" as="geometry" />
        </mxCell>
        <mxCell id="7g0lY63vqaFutVTRd0vr-50" value="ElementEventDrivenHandler" style="rounded=1;whiteSpace=wrap;html=1;verticalAlign=top;arcSize=1;" vertex="1" parent="7g0lY63vqaFutVTRd0vr-3">
          <mxGeometry x="35" y="607" width="160" height="253" as="geometry" />
        </mxCell>
        <mxCell id="7g0lY63vqaFutVTRd0vr-59" style="edgeStyle=orthogonalEdgeStyle;rounded=0;orthogonalLoop=1;jettySize=auto;html=1;" edge="1" parent="7g0lY63vqaFutVTRd0vr-3" source="7g0lY63vqaFutVTRd0vr-52" target="7g0lY63vqaFutVTRd0vr-57">
          <mxGeometry relative="1" as="geometry" />
        </mxCell>
        <mxCell id="7g0lY63vqaFutVTRd0vr-52" value="element execute" style="rounded=1;whiteSpace=wrap;html=1;" vertex="1" parent="7g0lY63vqaFutVTRd0vr-3">
          <mxGeometry x="55.5" y="637" width="100" height="40" as="geometry" />
        </mxCell>
        <mxCell id="7g0lY63vqaFutVTRd0vr-53" value="send next element driven event" style="rounded=1;whiteSpace=wrap;html=1;" vertex="1" parent="7g0lY63vqaFutVTRd0vr-3">
          <mxGeometry x="56" y="785" width="100" height="40" as="geometry" />
        </mxCell>
        <mxCell id="7g0lY63vqaFutVTRd0vr-60" value="N" style="edgeStyle=orthogonalEdgeStyle;rounded=0;orthogonalLoop=1;jettySize=auto;html=1;" edge="1" parent="7g0lY63vqaFutVTRd0vr-3" source="7g0lY63vqaFutVTRd0vr-57" target="7g0lY63vqaFutVTRd0vr-53">
          <mxGeometry relative="1" as="geometry" />
        </mxCell>
        <mxCell id="7g0lY63vqaFutVTRd0vr-57" value="event element?" style="rhombus;whiteSpace=wrap;html=1;" vertex="1" parent="7g0lY63vqaFutVTRd0vr-3">
          <mxGeometry x="83" y="709" width="45" height="43" as="geometry" />
        </mxCell>
        <mxCell id="7g0lY63vqaFutVTRd0vr-4" value="Event center" style="swimlane;startSize=20;html=1;" vertex="1" parent="7g0lY63vqaFutVTRd0vr-2">
          <mxGeometry x="440" y="20" width="340" height="860" as="geometry" />
        </mxCell>
        <mxCell id="7g0lY63vqaFutVTRd0vr-34" style="edgeStyle=orthogonalEdgeStyle;rounded=0;orthogonalLoop=1;jettySize=auto;html=1;entryX=0.5;entryY=1;entryDx=0;entryDy=0;" edge="1" parent="7g0lY63vqaFutVTRd0vr-4" source="7g0lY63vqaFutVTRd0vr-24" target="7g0lY63vqaFutVTRd0vr-33">
          <mxGeometry relative="1" as="geometry" />
        </mxCell>
        <mxCell id="7g0lY63vqaFutVTRd0vr-24" value="save event filter rule" style="rounded=1;whiteSpace=wrap;html=1;" vertex="1" parent="7g0lY63vqaFutVTRd0vr-4">
          <mxGeometry x="35" y="272" width="85" height="38" as="geometry" />
        </mxCell>
        <mxCell id="7g0lY63vqaFutVTRd0vr-31" style="edgeStyle=orthogonalEdgeStyle;rounded=0;orthogonalLoop=1;jettySize=auto;html=1;entryX=0.5;entryY=0;entryDx=0;entryDy=0;" edge="1" parent="7g0lY63vqaFutVTRd0vr-4" source="7g0lY63vqaFutVTRd0vr-28" target="7g0lY63vqaFutVTRd0vr-30">
          <mxGeometry relative="1" as="geometry" />
        </mxCell>
        <mxCell id="7g0lY63vqaFutVTRd0vr-28" value="Start" style="ellipse;whiteSpace=wrap;html=1;aspect=fixed;" vertex="1" parent="7g0lY63vqaFutVTRd0vr-4">
          <mxGeometry x="144.5" y="67" width="41" height="41" as="geometry" />
        </mxCell>
        <mxCell id="7g0lY63vqaFutVTRd0vr-38" style="edgeStyle=orthogonalEdgeStyle;rounded=0;orthogonalLoop=1;jettySize=auto;html=1;" edge="1" parent="7g0lY63vqaFutVTRd0vr-4" source="7g0lY63vqaFutVTRd0vr-29" target="7g0lY63vqaFutVTRd0vr-35">
          <mxGeometry relative="1" as="geometry" />
        </mxCell>
        <mxCell id="7g0lY63vqaFutVTRd0vr-29" value="" style="shape=cylinder3;whiteSpace=wrap;html=1;boundedLbl=1;backgroundOutline=1;size=15;rotation=89;" vertex="1" parent="7g0lY63vqaFutVTRd0vr-4">
          <mxGeometry x="152" y="113" width="43" height="80" as="geometry" />
        </mxCell>
        <mxCell id="7g0lY63vqaFutVTRd0vr-30" value="msg5" style="text;html=1;align=center;verticalAlign=middle;whiteSpace=wrap;rounded=0;" vertex="1" parent="7g0lY63vqaFutVTRd0vr-4">
          <mxGeometry x="135" y="133" width="60" height="30" as="geometry" />
        </mxCell>
        <mxCell id="7g0lY63vqaFutVTRd0vr-37" style="edgeStyle=orthogonalEdgeStyle;rounded=0;orthogonalLoop=1;jettySize=auto;html=1;entryX=0;entryY=0.5;entryDx=0;entryDy=0;" edge="1" parent="7g0lY63vqaFutVTRd0vr-4" source="7g0lY63vqaFutVTRd0vr-32" target="7g0lY63vqaFutVTRd0vr-35">
          <mxGeometry relative="1" as="geometry" />
        </mxCell>
        <mxCell id="7g0lY63vqaFutVTRd0vr-32" value="" style="shape=cylinder3;whiteSpace=wrap;html=1;boundedLbl=1;backgroundOutline=1;size=15;" vertex="1" parent="7g0lY63vqaFutVTRd0vr-4">
          <mxGeometry x="35" y="187" width="45" height="63" as="geometry" />
        </mxCell>
        <mxCell id="7g0lY63vqaFutVTRd0vr-33" value="event filter rule" style="text;html=1;align=center;verticalAlign=middle;whiteSpace=wrap;rounded=0;" vertex="1" parent="7g0lY63vqaFutVTRd0vr-4">
          <mxGeometry x="28" y="214" width="60" height="30" as="geometry" />
        </mxCell>
        <mxCell id="7g0lY63vqaFutVTRd0vr-40" style="edgeStyle=orthogonalEdgeStyle;rounded=0;orthogonalLoop=1;jettySize=auto;html=1;entryX=0.5;entryY=0;entryDx=0;entryDy=0;" edge="1" parent="7g0lY63vqaFutVTRd0vr-4" source="7g0lY63vqaFutVTRd0vr-35" target="7g0lY63vqaFutVTRd0vr-39">
          <mxGeometry relative="1" as="geometry" />
        </mxCell>
        <mxCell id="7g0lY63vqaFutVTRd0vr-35" value="Event filter rule calculation" style="rounded=1;whiteSpace=wrap;html=1;" vertex="1" parent="7g0lY63vqaFutVTRd0vr-4">
          <mxGeometry x="135" y="214" width="125" height="66" as="geometry" />
        </mxCell>
        <mxCell id="7g0lY63vqaFutVTRd0vr-42" style="edgeStyle=orthogonalEdgeStyle;rounded=0;orthogonalLoop=1;jettySize=auto;html=1;" edge="1" parent="7g0lY63vqaFutVTRd0vr-4" source="7g0lY63vqaFutVTRd0vr-39" target="7g0lY63vqaFutVTRd0vr-41">
          <mxGeometry relative="1" as="geometry" />
        </mxCell>
        <mxCell id="7g0lY63vqaFutVTRd0vr-39" value="event publish" style="rounded=1;whiteSpace=wrap;html=1;" vertex="1" parent="7g0lY63vqaFutVTRd0vr-4">
          <mxGeometry x="144.5" y="327" width="105.5" height="43" as="geometry" />
        </mxCell>
        <mxCell id="7g0lY63vqaFutVTRd0vr-41" value="" style="shape=cylinder3;whiteSpace=wrap;html=1;boundedLbl=1;backgroundOutline=1;size=15;rotation=90;" vertex="1" parent="7g0lY63vqaFutVTRd0vr-4">
          <mxGeometry x="25" y="327" width="55" height="100" as="geometry" />
        </mxCell>
        <mxCell id="7g0lY63vqaFutVTRd0vr-43" value="processed event" style="text;html=1;align=center;verticalAlign=middle;whiteSpace=wrap;rounded=0;" vertex="1" parent="7g0lY63vqaFutVTRd0vr-4">
          <mxGeometry x="20" y="362" width="60" height="30" as="geometry" />
        </mxCell>
        <mxCell id="7g0lY63vqaFutVTRd0vr-5" value="Engagement" style="swimlane;startSize=20;html=1;" vertex="1" parent="7g0lY63vqaFutVTRd0vr-2">
          <mxGeometry x="780" y="20" width="180" height="860" as="geometry" />
        </mxCell>
        <mxCell id="7g0lY63vqaFutVTRd0vr-25" style="edgeStyle=orthogonalEdgeStyle;rounded=0;orthogonalLoop=1;jettySize=auto;html=1;" edge="1" parent="7g0lY63vqaFutVTRd0vr-2" source="7g0lY63vqaFutVTRd0vr-19" target="7g0lY63vqaFutVTRd0vr-24">
          <mxGeometry relative="1" as="geometry" />
        </mxCell>
        <mxCell id="7g0lY63vqaFutVTRd0vr-45" style="edgeStyle=orthogonalEdgeStyle;rounded=0;orthogonalLoop=1;jettySize=auto;html=1;" edge="1" parent="7g0lY63vqaFutVTRd0vr-2" source="7g0lY63vqaFutVTRd0vr-43" target="7g0lY63vqaFutVTRd0vr-44">
          <mxGeometry relative="1" as="geometry" />
        </mxCell>
      </root>
    </mxGraphModel>
  </diagram>
</mxfile>
